<?xml version="1.0" standalone="no"?>
<!DOCTYPE svg PUBLIC "-//W3C//DTD SVG 20010904//EN"
 "http://www.w3.org/TR/2001/REC-SVG-20010904/DTD/svg10.dtd">
<svg version="1.0" xmlns="http://www.w3.org/2000/svg"
 width="600.000000pt" height="600.000000pt" viewBox="0 0 600.000000 600.000000"
 preserveAspectRatio="xMidYMid meet">

<g transform="translate(0.000000,600.000000) scale(0.100000,-0.100000)"
fill="#000000" stroke="none">
<path d="M2838 5475 c-8 -8 3 -289 12 -298 4 -4 42 -5 84 -1 71 6 77 9 74 28
-3 18 -11 21 -55 24 l-53 3 0 57 c0 31 -3 87 -7 125 -5 60 -8 67 -28 67 -12 0
-24 -2 -27 -5z"/>
<path d="M3135 5470 c-51 -21 -85 -83 -85 -158 0 -147 176 -204 257 -83 31 46
32 141 3 189 -32 52 -116 77 -175 52z m102 -55 c49 -34 47 -140 -2 -182 -35
-31 -61 -29 -97 7 -28 29 -30 35 -26 87 4 46 10 61 32 80 31 27 62 29 93 8z"/>
<path d="M2580 5430 c0 -22 28 -221 36 -259 5 -22 7 -23 71 -16 77 8 93 13 93
29 -1 29 -16 36 -62 28 -53 -10 -48 -22 -69 141 -12 97 -12 97 -41 97 -21 0
-28 -5 -28 -20z"/>
<path d="M3421 5313 c-41 -175 -41 -167 -10 -171 25 -3 27 0 49 95 l23 98 45
-117 c34 -89 49 -118 66 -122 11 -3 23 -2 27 2 8 9 71 283 66 288 -2 2 -14 5
-26 6 -22 3 -25 -4 -46 -87 -20 -81 -23 -87 -32 -65 -6 14 -25 61 -43 105 -32
81 -42 95 -72 95 -13 0 -23 -27 -47 -127z"/>
<path d="M2393 5407 c-52 -13 -83 -26 -83 -34 0 -21 62 -267 69 -275 4 -5 31
-2 61 6 30 7 67 16 83 20 20 5 27 12 27 31 0 29 -8 30 -72 10 -53 -15 -62 -10
-69 45 -4 21 1 25 39 33 31 6 42 13 42 27 0 27 -15 32 -57 21 -41 -12 -53 -4
-53 36 0 17 9 24 38 32 20 6 42 11 49 11 16 0 21 11 14 36 l-6 21 -82 -20z"/>
<path d="M2127 5328 l-29 -10 6 -72 c4 -39 9 -93 12 -121 l6 -50 -55 60 c-29
33 -65 73 -79 89 -23 28 -26 28 -61 15 -21 -7 -36 -18 -34 -24 2 -5 24 -70 48
-142 24 -73 48 -133 54 -133 5 0 17 5 25 10 13 8 10 23 -17 107 l-32 98 77
-82 c68 -72 80 -81 100 -73 22 9 22 12 16 107 -3 54 -7 104 -10 111 -10 33 9
4 52 -78 25 -49 49 -90 53 -90 3 1 16 6 28 13 22 12 21 13 -48 145 -39 72 -73
132 -77 131 -4 0 -20 -5 -35 -11z"/>
<path d="M3883 5206 c-60 -132 -58 -183 11 -225 49 -31 108 -28 145 7 27 25
119 207 110 216 -2 3 -15 7 -29 11 -24 6 -28 0 -72 -94 -51 -111 -74 -129
-123 -97 -36 23 -32 60 15 163 38 81 40 89 24 100 -10 7 -23 13 -28 13 -6 0
-30 -42 -53 -94z"/>
<path d="M4175 5023 c-43 -64 -79 -122 -81 -127 -4 -10 34 -42 41 -34 1 2 26
39 56 83 l54 80 3 -120 c2 -98 5 -122 19 -132 9 -7 20 -13 24 -13 8 0 158 224
162 241 1 6 -7 17 -19 25 -19 13 -23 10 -70 -63 l-49 -78 -7 40 c-4 22 -7 75
-7 117 -1 66 -4 79 -20 88 -11 5 -22 10 -25 10 -2 0 -39 -53 -81 -117z"/>
<path d="M1606 5055 c-90 -62 -90 -50 0 -181 43 -64 83 -118 87 -121 8 -4 147
84 147 94 0 2 -5 13 -10 24 -10 18 -13 17 -62 -16 l-51 -34 -24 32 -24 32 22
15 c13 8 31 22 42 30 18 15 18 16 0 32 -18 17 -21 16 -55 -7 l-37 -25 -20 29
-20 28 45 33 c30 21 43 37 40 47 -3 8 -6 17 -6 19 0 12 -30 -1 -74 -31z"/>
<path d="M4453 4817 l-91 -112 21 -23 21 -22 26 32 c15 18 59 72 98 119 68 82
70 87 53 103 -10 9 -22 16 -27 16 -5 0 -50 -51 -101 -113z"/>
<path d="M1408 4904 c-16 -16 -13 -22 45 -92 34 -41 79 -93 99 -116 l37 -41
20 20 21 21 -91 109 c-50 61 -96 111 -103 113 -6 1 -19 -5 -28 -14z"/>
<path d="M2780 4824 c-408 -50 -759 -219 -1058 -508 -249 -241 -404 -508 -501
-861 -41 -149 -71 -430 -47 -438 8 -3 7 -9 -3 -20 -19 -23 -6 -21 29 5 16 12
33 19 36 15 12 -11 -28 -47 -52 -47 -22 0 -22 -2 -17 -82 5 -98 37 -291 59
-368 25 -85 54 -173 64 -195 102 -227 129 -274 246 -430 280 -376 698 -629
1169 -709 136 -23 275 -29 275 -13 0 18 38 52 47 43 4 -4 2 -16 -5 -26 -7 -11
-12 -22 -12 -25 0 -3 37 -3 83 0 337 23 609 108 881 277 222 137 447 363 585
585 162 262 252 541 275 861 5 68 4 82 -8 82 -13 0 -13 4 -1 27 16 31 12 138
-11 278 -13 81 -21 116 -55 248 -16 64 -79 217 -127 307 -119 226 -289 435
-488 597 -164 134 -415 271 -584 319 -25 7 -77 22 -117 33 -152 44 -423 74
-423 47 0 -7 -9 -21 -20 -31 -19 -18 -20 -17 -20 1 0 11 5 25 10 30 15 15 -80
14 -210 -2z m223 -91 c-15 -12 -18 -12 -21 2 -2 9 4 25 15 34 17 17 18 17 21
-2 2 -12 -4 -27 -15 -34z m5 -55 c-10 -7 -10 -11 0 -15 6 -2 12 -11 12 -20 0
-14 -23 -43 -34 -43 -12 0 -6 38 7 44 10 5 10 7 0 12 -19 8 -16 41 5 53 13 7
18 6 20 -6 2 -9 -2 -20 -10 -25z m-164 -48 c146 -55 152 -56 159 -37 3 9 8 9
17 1 9 -9 43 0 138 37 70 27 132 49 139 49 7 0 34 -28 59 -62 25 -35 50 -64
55 -66 5 -2 9 -9 9 -15 1 -7 9 -22 20 -35 19 -23 20 -23 157 -14 76 5 143 7
149 5 6 -2 33 -43 60 -91 l50 -87 69 -6 c124 -9 234 -77 287 -176 51 -95 52
-92 -54 -86 -121 7 -217 -14 -328 -69 -149 -75 -276 -224 -321 -377 -13 -44
-13 -44 21 -72 18 -16 38 -25 43 -22 6 3 7 1 3 -5 -4 -6 12 -35 34 -64 47 -58
94 -146 121 -226 122 -353 -40 -758 -371 -928 -46 -24 -115 -51 -152 -61 l-68
-17 0 -38 c0 -46 5 -47 114 -13 268 83 487 312 557 583 26 98 38 263 18 245
-7 -7 -22 -13 -34 -13 -17 1 -16 4 13 31 31 28 33 34 27 72 -14 94 -49 197
-96 286 -27 52 -49 96 -49 98 0 6 773 383 777 379 2 -2 -18 -37 -45 -77 -75
-113 -97 -155 -142 -267 -49 -123 -87 -278 -96 -390 -6 -75 -5 -82 11 -82 17
0 17 -2 -3 -23 -21 -22 -21 -27 -12 -143 19 -242 79 -442 190 -631 28 -47 49
-87 48 -88 -2 -1 -73 -7 -158 -13 -339 -25 -584 -124 -858 -345 -80 -65 -212
-216 -278 -319 -51 -79 -104 -182 -104 -201 0 -8 -9 -22 -20 -32 -20 -18 -20
-17 -20 16 0 42 -68 170 -149 283 -204 282 -507 484 -851 566 -91 21 -321 45
-370 38 -17 -3 -30 -1 -30 2 0 4 21 42 46 83 114 190 180 413 199 670 6 85 6
87 -16 87 -21 0 -22 1 -4 20 15 17 17 32 12 97 -16 222 -100 462 -232 663 -30
46 -53 85 -51 87 6 6 778 -377 774 -385 -2 -4 -24 -50 -51 -102 -50 -101 -81
-197 -93 -295 -6 -54 -5 -59 9 -46 29 23 41 6 13 -19 -32 -31 -34 -77 -6 -209
20 -99 74 -224 131 -308 98 -142 273 -270 443 -322 99 -30 106 -29 106 19 0
30 -4 40 -16 40 -34 0 -173 53 -236 91 -137 81 -257 219 -318 366 -36 86 -60
187 -60 256 0 37 -3 47 -17 47 -15 0 -15 1 -1 13 10 7 18 36 22 75 9 78 39
178 77 253 32 65 119 184 154 214 24 20 24 22 10 68 -83 275 -357 469 -643
455 -94 -5 -93 -7 -44 85 53 99 163 167 286 176 l70 6 52 90 c43 75 56 90 76
89 12 -1 79 -4 148 -8 l125 -6 70 100 c39 54 76 99 82 100 7 0 73 -22 147 -50z
m-1534 -1619 c0 -11 -45 -41 -62 -41 -7 0 1 11 17 25 32 26 45 31 45 16z m80
-1 c0 -5 -6 -10 -14 -10 -7 0 -19 -7 -26 -15 -7 -8 -20 -15 -29 -15 -11 1 -7
8 14 25 31 26 55 32 55 15z m47 -15 c-15 -14 -36 -25 -45 -25 -13 1 -9 7 13
25 40 33 70 33 32 0z m71 0 c-15 -14 -37 -25 -50 -25 -22 0 -22 1 7 25 17 13
39 24 50 25 18 0 17 -3 -7 -25z m82 17 c0 -14 -40 -42 -62 -42 -20 0 -19 2 8
25 28 24 54 33 54 17z m70 5 c0 -15 -42 -47 -61 -47 -24 0 -24 1 6 25 26 21
55 32 55 22z m60 -6 c0 -13 -40 -41 -58 -41 -7 0 0 11 15 25 30 26 43 31 43
16z m80 2 c0 -11 -61 -45 -68 -39 -3 3 6 14 19 25 24 21 49 27 49 14z m2447
-18 c-15 -14 -36 -25 -45 -25 -13 1 -11 6 11 25 15 14 36 25 45 25 13 -1 11
-6 -11 -25z m70 0 c-15 -14 -36 -25 -45 -25 -12 0 -9 7 13 25 40 33 69 33 32
0z m69 0 c-15 -14 -34 -25 -43 -25 -13 0 -12 5 7 25 13 14 32 25 43 25 18 0
17 -3 -7 -25z m94 19 c0 -12 -45 -43 -62 -44 -24 0 -23 8 5 31 21 17 57 26 57
13z m50 -19 c-13 -14 -34 -25 -47 -25 l-24 0 28 25 c15 13 37 25 47 25 18 0
18 -2 -4 -25z m65 0 c-26 -21 -65 -34 -65 -21 0 8 66 46 80 45 9 0 4 -9 -15
-24z m64 -1 c-15 -14 -35 -24 -45 -22 -15 3 -12 7 16 25 47 30 60 29 29 -3z
m71 1 c-13 -14 -30 -25 -38 -25 -12 0 -9 7 8 25 13 14 30 25 38 25 12 0 9 -7
-8 -25z m90 16 c0 -12 -49 -43 -61 -39 -14 5 28 48 46 48 8 0 15 -4 15 -9z"/>
<path d="M2738 4415 c-6 -225 27 -378 120 -559 45 -85 47 -87 55 -60 11 40 0
256 -17 329 -29 120 -102 292 -142 335 -12 12 -14 6 -16 -45z"/>
<path d="M3228 4435 c-84 -132 -139 -328 -144 -509 -3 -124 3 -159 24 -134 20
25 84 160 103 222 44 135 66 317 51 411 l-8 50 -26 -40z"/>
<path d="M2340 4306 c0 -59 112 -318 165 -382 6 -7 21 -27 35 -46 35 -46 152
-168 162 -168 14 0 9 28 -18 108 -55 166 -129 290 -249 420 -65 70 -95 92 -95
68z"/>
<path d="M3576 4251 c-117 -119 -236 -327 -266 -466 -6 -27 -13 -58 -16 -67
-11 -38 18 -14 103 82 104 118 182 250 222 375 37 117 43 145 33 145 -5 0 -39
-31 -76 -69z"/>
<path d="M4592 4703 c-34 -76 -62 -143 -62 -149 0 -6 8 -18 18 -27 17 -16 27
-13 163 49 79 36 145 67 147 69 1 1 -6 12 -15 24 l-18 22 -108 -50 c-59 -27
-107 -48 -107 -46 0 2 22 50 50 107 l49 103 -22 17 c-12 10 -24 18 -27 18 -3
0 -34 -62 -68 -137z"/>
<path d="M1241 4754 c-71 -63 -78 -143 -19 -210 17 -19 45 -42 61 -51 36 -18
96 -19 129 -2 31 15 76 67 87 101 9 25 5 32 -40 75 -28 27 -54 49 -58 51 -4 1
-24 -16 -46 -38 -37 -38 -38 -41 -22 -57 16 -16 18 -15 41 6 l24 22 21 -22
c28 -31 27 -43 -11 -74 -42 -36 -80 -28 -130 25 -58 61 -47 125 28 156 31 13
33 16 22 34 -18 29 -43 25 -87 -16z"/>
<path d="M4839 4513 c-40 -31 -93 -72 -117 -91 l-42 -33 30 -42 c69 -96 74
-101 99 -88 l22 12 -37 51 -38 51 30 23 c16 13 31 24 34 24 3 0 16 -16 29 -35
25 -37 38 -40 54 -13 8 12 4 24 -15 49 l-26 33 25 20 26 20 36 -42 c39 -44 52
-50 69 -29 8 9 -2 29 -40 77 -27 36 -53 66 -57 68 -4 1 -41 -23 -82 -55z"/>
<path d="M1017 4494 c-26 -36 -47 -70 -45 -75 2 -4 55 -47 118 -94 l115 -86
28 33 c63 75 80 107 67 123 -19 23 -26 19 -61 -30 -18 -25 -35 -45 -38 -45 -3
0 -19 11 -36 24 l-29 23 27 33 c30 35 31 53 3 58 -11 2 -29 -9 -45 -29 l-28
-33 -26 21 -27 21 36 46 c34 45 35 48 17 61 -10 8 -20 15 -23 15 -3 0 -27 -30
-53 -66z"/>
<path d="M4955 4269 c-66 -39 -122 -73 -124 -75 -2 -2 2 -15 9 -29 l13 -25 45
25 c24 14 48 25 53 25 16 0 10 -28 -17 -83 -26 -53 -26 -54 -8 -82 l19 -29 30
67 c22 50 34 65 45 61 38 -17 76 -15 102 5 43 34 45 72 7 147 -18 35 -38 64
-44 64 -5 0 -64 -32 -130 -71z m145 -54 c0 -48 -59 -62 -86 -20 -9 14 -15 27
-13 29 2 2 19 13 38 24 32 20 35 20 47 4 8 -9 14 -26 14 -37z"/>
<path d="M882 4300 c-6 -11 -12 -22 -12 -24 0 -2 37 -26 83 -52 l82 -49 -114
-10 c-92 -9 -116 -14 -127 -30 -8 -10 -14 -22 -14 -26 0 -7 94 -63 208 -124
45 -24 55 -27 63 -14 17 28 8 39 -66 80 -41 22 -77 44 -80 48 -2 5 48 13 112
19 92 8 120 14 130 28 7 10 13 20 13 23 0 4 -211 124 -260 149 -3 1 -11 -7
-18 -18z"/>
<path d="M5140 4032 c-17 -13 -23 -32 -27 -82 -6 -67 -16 -90 -39 -90 -21 0
-46 45 -47 85 -1 34 -3 36 -26 30 -35 -9 -35 -8 -22 -62 23 -90 64 -121 131
-99 43 14 60 46 60 112 0 55 16 79 44 68 16 -6 39 -71 30 -86 -3 -4 6 -8 20
-8 34 0 39 12 26 61 -22 80 -95 115 -150 71z"/>
<path d="M718 3947 c-24 -27 -70 -135 -60 -141 4 -2 67 -28 141 -56 107 -42
135 -50 142 -39 19 31 9 47 -41 65 -55 20 -59 35 -14 46 16 4 48 12 70 18 34
8 43 15 47 38 3 15 4 28 4 29 -1 1 -29 -5 -62 -13 -75 -17 -75 -17 -75 2 0 8
-13 29 -29 45 -38 37 -93 40 -123 6z m92 -52 c8 -9 10 -28 6 -49 l-7 -35 -45
16 c-39 13 -44 18 -38 37 3 11 11 27 16 34 14 17 53 15 68 -3z"/>
<path d="M5197 3762 c-134 -45 -138 -47 -132 -72 4 -14 8 -26 10 -28 4 -4 256
76 274 87 14 9 8 62 -7 60 -4 -1 -69 -22 -145 -47z"/>
<path d="M5345 3670 c-3 -5 -1 -26 4 -47 6 -20 9 -38 8 -39 -3 -3 -222 -54
-231 -54 -3 0 -6 -13 -6 -30 0 -16 5 -30 10 -30 6 0 58 11 116 25 58 14 112
25 119 25 7 0 15 -17 19 -40 5 -31 11 -40 26 -40 30 0 33 16 15 93 -30 136
-35 147 -55 147 -10 0 -22 -4 -25 -10z"/>
<path d="M741 3629 c-80 -11 -146 -21 -148 -23 -1 -1 -5 -16 -8 -32 -5 -28 0
-33 127 -117 96 -64 134 -84 140 -75 15 25 8 47 -22 65 -33 19 -35 25 -19 88
10 41 13 43 55 50 41 6 44 9 44 36 0 17 -5 29 -12 28 -7 -1 -78 -10 -157 -20z
m20 -91 c-4 -18 -9 -33 -13 -33 -3 0 -25 11 -49 24 -37 21 -40 25 -23 32 10 4
35 8 55 8 36 1 36 0 30 -31z"/>
<path d="M5370 3349 c-79 -62 -117 -79 -170 -79 -31 0 -40 -4 -40 -17 0 -38
15 -46 68 -39 51 7 50 7 195 -58 l58 -26 -3 32 c-3 29 -9 35 -64 58 -33 14
-61 29 -63 33 -1 5 23 26 53 48 31 22 56 43 56 47 0 17 -13 52 -19 51 -3 0
-35 -23 -71 -50z"/>
<path d="M541 3329 c-24 -71 -6 -146 47 -184 37 -27 138 -33 181 -11 44 23 71
71 71 128 0 61 -7 78 -35 78 -22 0 -23 -3 -18 -54 5 -49 3 -57 -20 -80 -21
-21 -36 -26 -77 -26 -44 0 -56 5 -81 29 -33 33 -38 74 -13 109 19 27 18 28
-17 37 -23 6 -28 3 -38 -26z"/>
<path d="M5233 2563 c-29 -5 -63 -49 -63 -80 0 -66 122 -118 178 -76 36 26 49
65 34 97 -18 39 -92 69 -149 59z m89 -55 c29 -11 41 -30 32 -53 -13 -33 -95
-29 -133 6 -16 16 -19 24 -11 39 16 31 46 33 112 8z"/>
<path d="M693 2538 c-70 -16 -83 -23 -83 -40 0 -17 4 -19 39 -13 35 6 40 4 46
-17 12 -38 36 -58 70 -58 55 0 75 39 59 119 -8 37 -14 37 -131 9z m100 -40 c7
-20 -12 -48 -32 -48 -22 0 -46 46 -28 54 23 9 55 6 60 -6z"/>
<path d="M767 2306 c-84 -27 -97 -34 -95 -51 4 -24 -3 -25 113 11 71 22 95 33
95 46 0 9 -3 19 -7 21 -5 2 -52 -10 -106 -27z"/>
<path d="M5132 2320 c-60 -56 5 -150 105 -150 67 0 104 49 82 107 -22 58 -142
85 -187 43z m128 -40 c15 -10 25 -27 25 -41 0 -20 -6 -25 -34 -27 -42 -4 -88
14 -103 41 -9 17 -7 24 12 39 25 20 60 16 100 -12z"/>
<path d="M880 2211 c0 -5 4 -21 9 -34 9 -24 7 -26 -70 -57 -59 -24 -79 -37
-79 -51 0 -26 15 -24 100 11 40 17 74 30 75 30 2 0 8 -14 14 -32 10 -29 13
-30 27 -16 14 14 13 22 -14 84 -17 40 -36 70 -45 72 -10 2 -17 -1 -17 -7z"/>
<path d="M5073 2130 c-27 -11 -43 -40 -43 -78 0 -55 72 -90 109 -53 12 12 21
30 21 41 0 11 4 20 10 20 10 0 17 -22 22 -69 2 -14 9 -26 16 -29 8 -2 12 11
12 46 0 58 -25 97 -76 118 -38 16 -41 16 -71 4z m51 -36 c19 -7 21 -35 4 -52
-19 -19 -56 -14 -63 8 -11 36 20 59 59 44z"/>
<path d="M973 2013 c-10 -3 -9 -12 3 -35 8 -16 14 -31 12 -32 -2 -2 -36 -20
-75 -42 -77 -40 -78 -41 -64 -62 6 -11 24 -6 82 25 41 21 77 39 80 41 3 1 11
-9 17 -23 13 -28 30 -33 38 -11 5 14 -64 147 -76 145 -3 0 -11 -3 -17 -6z"/>
<path d="M4966 1944 c-11 -29 -6 -72 9 -78 10 -4 15 1 15 14 0 28 13 25 82
-16 59 -34 88 -38 88 -12 0 11 -165 108 -183 108 -3 0 -8 -7 -11 -16z"/>
<path d="M1062 1784 c-19 -13 -22 -24 -22 -75 0 -57 -1 -60 -22 -57 -16 2 -26
13 -33 36 -10 34 -13 36 -34 23 -16 -10 -8 -39 20 -75 15 -19 30 -26 54 -26
44 0 53 15 57 85 4 77 30 83 52 13 7 -23 36 -12 36 14 0 22 -51 78 -72 78 -7
0 -24 -7 -36 -16z"/>
<path d="M4760 1636 c-9 -12 0 -33 47 -110 32 -53 62 -96 66 -96 15 0 19 32 7
55 -11 20 -9 27 11 54 25 34 24 33 54 22 20 -8 45 3 45 20 0 8 -182 69 -206
69 -6 0 -17 -6 -24 -14z m88 -42 c25 -7 29 -26 8 -43 -10 -9 -17 -6 -30 13
-24 38 -22 41 22 30z"/>
<path d="M1158 1564 c-43 -36 -78 -68 -78 -73 0 -18 70 -81 90 -81 35 0 60 19
60 45 0 20 5 25 25 25 25 0 45 25 45 56 0 18 -48 94 -59 94 -3 0 -41 -30 -83
-66z m100 -20 c4 -27 -23 -38 -43 -18 -12 13 -13 19 -4 30 17 20 43 13 47 -12z
m-65 -46 c24 -37 -25 -67 -53 -33 -10 13 -9 19 5 35 20 22 33 22 48 -2z"/>
<path d="M4623 1474 c-4 -10 14 -35 53 -76 73 -74 91 -85 111 -66 12 13 3 24
-66 86 -43 40 -82 72 -85 72 -4 0 -9 -7 -13 -16z"/>
<path d="M1327 1391 c-65 -68 -73 -101 -33 -144 50 -54 101 -43 174 38 46 52
48 57 29 74 -11 8 -26 -2 -71 -49 -32 -33 -63 -60 -70 -60 -16 0 -46 32 -46
49 0 7 26 39 57 72 46 48 54 62 43 69 -23 14 -23 14 -83 -49z"/>
<path d="M4514 1369 c-3 -6 -3 -14 2 -18 22 -16 77 -81 73 -85 -3 -3 -37 3
-76 13 -58 15 -75 16 -89 7 -15 -11 -9 -22 56 -95 58 -66 75 -80 86 -70 8 6
14 13 14 15 0 3 -19 25 -41 49 -23 25 -40 48 -37 50 2 3 38 -4 79 -14 62 -16
76 -17 88 -6 12 11 3 25 -54 89 -67 74 -87 87 -101 65z"/>
<path d="M1521 1189 c-51 -65 -60 -83 -51 -95 17 -20 22 -18 45 16 11 16 23
30 27 30 4 0 8 -26 10 -57 2 -46 7 -59 21 -61 14 -3 17 4 17 42 0 42 2 46 24
46 26 0 66 41 66 68 0 16 -72 92 -87 92 -5 0 -38 -36 -72 -81z m108 -25 c-14
-17 -41 -18 -57 -2 -9 9 -7 17 10 36 l23 23 18 -22 c13 -16 15 -25 6 -35z"/>
<path d="M4254 1155 c-4 -8 4 -57 16 -108 29 -122 27 -118 46 -110 12 4 15 14
11 38 -4 27 -1 36 23 54 35 25 38 26 62 4 17 -16 20 -16 36 1 15 15 15 18 2
26 -8 5 -46 32 -85 59 -72 53 -101 62 -111 36z m84 -68 c10 -11 9 -17 -3 -27
-19 -16 -30 -6 -39 33 -6 25 -5 27 12 18 10 -5 24 -16 30 -24z"/>
<path d="M1783 1103 c-31 -6 -71 -50 -82 -91 -13 -46 7 -95 48 -116 52 -27 76
-21 104 26 l25 43 -37 22 c-31 18 -37 19 -44 7 -6 -10 -3 -20 8 -27 20 -15 10
-47 -15 -47 -25 0 -50 32 -50 64 0 17 11 39 30 57 34 35 62 33 96 -7 18 -22
22 -23 34 -9 11 13 10 19 -6 37 -16 18 -77 51 -86 47 -2 -1 -13 -4 -25 -6z"/>
<path d="M4113 1065 c-5 -15 -2 -40 13 -135 l6 -35 -60 58 c-55 55 -61 58 -83
47 l-23 -13 44 -39 c168 -147 173 -146 148 43 -8 62 -16 89 -25 89 -8 0 -16
-7 -20 -15z"/>
<path d="M1962 903 c-32 -73 -39 -99 -30 -105 22 -13 28 -9 45 30 10 20 18 38
19 40 1 2 20 -5 43 -15 l41 -18 -19 -42 c-11 -23 -17 -44 -13 -47 12 -12 40
-5 45 12 3 9 21 52 41 94 34 75 35 78 16 88 -17 9 -22 6 -37 -25 -18 -38 -28
-41 -68 -23 -22 10 -25 16 -19 37 12 43 10 65 -6 68 -10 2 -28 -27 -58 -94z"/>
<path d="M3832 931 c-11 -7 -6 -26 24 -97 20 -49 40 -92 44 -97 9 -11 111 34
107 47 -4 12 -43 13 -67 2 -12 -5 -23 11 -49 74 -33 82 -36 86 -59 71z"/>
<path d="M3690 834 l-12 -56 -38 37 c-29 29 -43 35 -60 30 -20 -6 -17 -11 38
-68 32 -34 62 -74 66 -89 4 -19 13 -28 26 -28 23 0 24 1 9 51 -10 30 -9 50 5
103 20 80 20 76 -3 76 -16 0 -22 -11 -31 -56z"/>
<path d="M2358 751 c-14 -55 -23 -103 -20 -106 17 -17 40 -2 46 30 7 34 9 35
51 35 34 0 47 5 59 22 35 50 3 102 -70 114 l-41 6 -25 -101z m103 43 c17 -21
0 -49 -32 -49 -24 0 -27 13 -14 53 6 17 30 15 46 -4z"/>
<path d="M3410 809 c-30 -12 -40 -26 -40 -60 0 -33 13 -44 68 -58 31 -9 42
-17 42 -31 0 -22 -31 -34 -66 -26 -19 5 -24 3 -24 -14 0 -17 7 -20 48 -20 57
0 82 20 82 67 0 37 -12 47 -68 63 -56 15 -56 43 1 48 30 3 37 7 35 20 -4 20
-42 26 -78 11z"/>
<path d="M2605 788 c-7 -23 -27 -189 -23 -193 7 -7 118 -22 123 -17 16 17 0
32 -41 38 -34 5 -44 10 -40 21 3 8 6 21 6 29 0 12 8 13 35 8 31 -5 35 -4 35
15 0 17 -6 21 -30 21 -26 0 -30 4 -30 26 0 26 1 27 45 21 39 -6 45 -4 45 12 0
13 -10 20 -37 25 -58 9 -83 7 -88 -6z"/>
<path d="M2820 708 c0 -40 -3 -90 -6 -110 -6 -34 -4 -38 15 -38 17 0 21 6 22
38 1 20 4 50 8 67 6 29 6 29 48 -38 30 -47 48 -67 63 -67 19 0 20 6 20 89 0
49 3 96 6 105 4 11 0 16 -14 16 -18 0 -22 -8 -27 -57 -4 -32 -7 -61 -8 -66 -1
-4 -20 23 -43 60 -27 46 -47 69 -62 71 -21 3 -22 0 -22 -70z"/>
<path d="M3233 715 c4 -36 5 -65 3 -65 -2 0 -24 27 -50 60 -34 43 -54 60 -71
60 -21 0 -23 -4 -19 -37 2 -21 6 -68 10 -105 5 -58 8 -68 25 -68 18 0 19 5 13
73 l-7 72 54 -67 c30 -37 62 -67 72 -67 19 -1 21 13 11 132 -6 68 -9 77 -27
77 -18 0 -19 -5 -14 -65z"/>
</g>
</svg>
