<svg xmlns="http://www.w3.org/2000/svg" xmlns:xlink="http://www.w3.org/1999/xlink" version="1.1" width="1000" height="1000" viewBox="0 0 1000 1000" xml:space="preserve">
<desc>Created with Fabric.js 3.5.0</desc>
<defs>
</defs>
<rect x="0" y="0" width="100%" height="100%" fill="#ffffff"/>
<g transform="matrix(1.1616 0 0 1.1681 1526.3736 500.0152)" id="724909">
<g style="" vector-effect="non-scaling-stroke">
		<g transform="matrix(0.8121 0 0 -0.8121 -204.1227 -100.875)" id="path14">
<path style="stroke: none; stroke-width: 1; stroke-dasharray: none; stroke-linecap: butt; stroke-dashoffset: 0; stroke-linejoin: miter; stroke-miterlimit: 4; is-custom-font: none; font-file-url: none; fill: rgb(41,61,155); fill-rule: nonzero; opacity: 1;" transform=" translate(-1287.8336, -630.4)" d="M 1566.8 985.5 c 7.2 0 10.8 -5.4 9.9 -14.4 L 1574 926 c 0 -2.7 -1.8 -6.3 -7.2 -7.2 l -26.1 -1.8 h -2.7 V 543.9 c 0 -182 -71.2 -268.6 -253.3 -268.6 c -173.9 0 -249.7 58.6 -249.7 268.6 V 917 l -27.9 1.8 c -6.3 0 -9 6.3 -8.1 14.4 l 2.7 45.1 c 0 4.5 2.7 7.2 7.2 7.2 H 1163 c 7.2 0 10.8 -5.4 9.9 -14.4 l -2.7 -45.1 c 0 -2.7 -1.8 -6.3 -7.2 -7.2 l -26.1 -1.8 V 525.9 c 0 -111.8 33.3 -172.1 146.9 -172.1 c 126.2 0 155 77.5 155 172.1 V 917 l -27.9 1.8 c -6.3 0 -9 6.3 -8.1 14.4 l 2.7 45.1 c 0 4.5 2.7 7.2 7.2 7.2 h 154.1" stroke-linecap="round"/>
</g>
		<g transform="matrix(0.8121 0 0 -0.8121 433.0688 -105.3123)" id="path16">
<path style="stroke: none; stroke-width: 1; stroke-dasharray: none; stroke-linecap: butt; stroke-dashoffset: 0; stroke-linejoin: miter; stroke-miterlimit: 4; is-custom-font: none; font-file-url: none; fill: rgb(41,61,155); fill-rule: nonzero; opacity: 1;" transform=" translate(-2072.4336, -635.8638)" d="M 2499.6 985.5 c 7.2 0 10.8 -5.4 9.9 -14.4 l -2.7 -45.1 c 0 -2.7 -1.8 -6.3 -7.2 -7.2 l -25.2 -1.8 l -152.3 -599.3 c -5.4 -19.8 -21.6 -31.5 -41.4 -31.5 l -70.3 2.7 c -9.9 0 -13.5 6.3 -16.2 16.2 l -122.6 527.2 h -0.9 l -120.8 -503.8 c -4.5 -18 -16.2 -43.3 -47.8 -42.4 l -67.6 2.7 c -8.1 0 -13.5 4.5 -16.2 16.2 l -147.8 612 l -27 1.8 c -6.3 0 -9 6.3 -8.1 14.4 l 2.7 45.1 c 0 4.5 2.7 7.2 7.2 7.2 H 1794 c 7.2 0 10.8 -5.4 9.9 -14.4 l -2.7 -45.1 c 0 -2.7 -1.8 -6.3 -7.2 -7.2 l -25.2 -1.8 L 1884 391.6 h 0.9 l 128.9 552.5 c 7.2 31.5 22.5 42.4 44.2 41.5 l 51.4 -2.7 c 9 -0.9 12.6 -5.4 15.3 -17.1 l 130.7 -574.1 h 0.9 L 2377 917 l -27 1.8 c -6.3 0 -9 6.3 -8.1 14.4 l 2.7 45.1 c 0 4.5 2.7 7.2 7.2 7.2 h 147.8" stroke-linecap="round"/>
</g>
		<g transform="matrix(0.8121 0 0 -0.8121 993.3857 -105.2604)" id="path18">
<path style="stroke: none; stroke-width: 1; stroke-dasharray: none; stroke-linecap: butt; stroke-dashoffset: 0; stroke-linejoin: miter; stroke-miterlimit: 4; is-custom-font: none; font-file-url: none; fill: rgb(41,61,155); fill-rule: nonzero; opacity: 1;" transform=" translate(-2762.3664, -635.8)" d="M 2872.7 537.6 l -117.2 332.6 h -0.9 l -110.9 -332.6 h 229 z m 197.4 -184.8 c 6.3 0 9 -6.3 8.1 -14.4 l -2.7 -45.1 c 0 -4.5 -2.7 -7.2 -6.3 -7.2 h -157.7 c -7.2 0 -10.8 5.4 -9.9 14.4 l 2.7 45.1 c 0 2.7 1.8 6.3 7.2 7.2 l 25.2 1.8 l -35.1 100 h -285.7 l -33.3 -100 l 27.9 -1.8 c 6.3 0 9 -6.3 8.1 -14.4 l -2.7 -45.1 c 0 -4.5 -2.7 -7.2 -7.2 -7.2 h -152.3 c -7.2 0 -10.8 5.4 -9.9 14.4 l 2.7 45.1 c 0 2.7 1.8 6.3 7.2 7.2 l 25.2 1.8 L 2683.5 917 l -27 1.8 c -6.3 0 -9 6.3 -8.1 14.4 l 2.7 45.1 c 0 4.5 2.7 7.2 7.2 7.2 h 143.3 l 241.5 -630.9 l 27 -1.8" stroke-linecap="round"/>
</g>
		<g transform="matrix(0.8121 0 0 -0.8121 -384.3196 322.2924)" id="path20">
<path style="stroke: none; stroke-width: 1; stroke-dasharray: none; stroke-linecap: butt; stroke-dashoffset: 0; stroke-linejoin: miter; stroke-miterlimit: 4; is-custom-font: none; font-file-url: none; fill: rgb(41,61,155); fill-rule: nonzero; opacity: 1;" transform=" translate(-1065.9425, -109.35)" d="M 1064.1 108.6 c 13.3 0 23.7 4.9 23.7 22.5 c 0 13.2 -6.3 21.3 -23.3 21.3 h -14.8 v -43.8 h 14.4 z m 0.2 56.4 c 28.6 0 39.9 -10.8 39.9 -33.5 c 0 -28.1 -20.4 -35.8 -38.5 -35.8 h -15.9 V 64.5 l 4.4 -0.3 c 1 0 1.4 -1 1.3 -2.3 l -0.4 -7.2 c 0 -0.7 -0.4 -1.1 -1.2 -1.1 h -24.6 c -1.2 0 -1.7 0.9 -1.6 2.3 l 0.4 7.2 c 0 0.4 0.3 1 1.2 1.2 l 4.2 0.3 v 89.6 l -4.5 0.3 c -1 0 -1.4 1 -1.3 2.3 l 0.4 7.2 c 0 0.7 0.4 1.1 1.2 1.1 h 35" stroke-linecap="round"/>
</g>
		<g transform="matrix(0.8121 0 0 -0.8121 -275.1288 322.2924)" id="path22">
<path style="stroke: none; stroke-width: 1; stroke-dasharray: none; stroke-linecap: butt; stroke-dashoffset: 0; stroke-linejoin: miter; stroke-miterlimit: 4; is-custom-font: none; font-file-url: none; fill: rgb(41,61,155); fill-rule: nonzero; opacity: 1;" transform=" translate(-1200.3925, -109.35)" d="M 1234.8 72.3 c 0.7 0 1.2 -0.4 1.2 -1.1 V 53.6 h -69.6 c -1.2 0 -1.7 0.9 -1.6 2.3 l 0.4 7.2 c 0 0.4 0.3 1 1.2 1.2 l 4.2 0.3 v 89.6 l -4.5 0.3 c -1 0 -1.4 1 -1.3 2.3 l 0.4 7.2 c 0 0.7 0.4 1.1 1.2 1.1 h 67.2 v -17.5 c 0 -1.1 -0.9 -1.7 -2.3 -1.6 l -7.2 0.4 c -0.4 0 -1 0.3 -1.1 1.1 l -0.3 4.2 h -35.8 v -34 h 40.5 v -13.2 h -40.5 V 67 h 38.2 l 0.3 4.4 c 0 1 1 1.4 2.3 1.3 l 7.1 -0.4" stroke-linecap="round"/>
</g>
		<g transform="matrix(0.8121 0 0 -0.8121 -163.3731 322.2924)" id="path24">
<path style="stroke: none; stroke-width: 1; stroke-dasharray: none; stroke-linecap: butt; stroke-dashoffset: 0; stroke-linejoin: miter; stroke-miterlimit: 4; is-custom-font: none; font-file-url: none; fill: rgb(41,61,155); fill-rule: nonzero; opacity: 1;" transform=" translate(-1338.0012, -109.35)" d="M 1332.5 109.5 c 15.5 0 24.4 6.8 24.4 22.3 c 0 14.8 -8.5 20.7 -23.1 20.7 H 1320 v -42.9 c 0 -0.1 12.5 -0.1 12.5 -0.1 z m 44.3 -45.3 c 1 0 1.4 -1 1.3 -2.3 l -0.4 -7.2 c 0 -0.7 -0.4 -1.1 -1.1 -1.1 h -16.4 l -24.4 43.1 H 1320 V 64.5 l 4.4 -0.3 c 1 0 1.4 -1 1.3 -2.3 l -0.4 -7.2 c 0 -0.7 -0.4 -1.1 -1.2 -1.1 h -24.6 c -1.2 0 -1.7 0.9 -1.6 2.3 l 0.4 7.2 c 0 0.4 0.3 1 1.2 1.2 l 4.2 0.3 v 89.6 l -4.4 0.3 c -1 0 -1.4 1 -1.3 2.3 l 0.4 7.2 c 0 0.7 0.4 1.1 1.2 1.1 h 32.4 c 28 0 41.2 -10.6 41.2 -33.3 c 0 -14.5 -7.6 -26.9 -21.3 -32 l 20.4 -35.2 l 4.5 -0.4" stroke-linecap="round"/>
</g>
		<g transform="matrix(0.8121 0 0 -0.8121 -52.4781 322.333)" id="path26">
<path style="stroke: none; stroke-width: 1; stroke-dasharray: none; stroke-linecap: butt; stroke-dashoffset: 0; stroke-linejoin: miter; stroke-miterlimit: 4; is-custom-font: none; font-file-url: none; fill: rgb(41,61,155); fill-rule: nonzero; opacity: 1;" transform=" translate(-1474.55, -109.3)" d="M 1514.7 165 v -17.5 c 0 -1.1 -0.9 -1.7 -2.3 -1.6 l -7.2 0.4 c -0.4 0 -1 0.3 -1.2 1.1 l -0.3 4.2 v 0.1 h -21.8 V 64.5 l 4.4 -0.3 c 1 0 1.4 -1 1.3 -2.3 l -0.4 -7.2 c 0 -0.7 -0.4 -1.1 -1.2 -1.1 h -24.6 c -1.2 0 -1.7 0.9 -1.6 2.3 l 0.4 7.2 c 0 0.4 0.3 1 1.2 1.2 l 4.2 0.3 v 87.3 h -20.2 l -0.3 -4.4 c 0 -1 -1 -1.4 -2.3 -1.3 l -7.2 0.4 c -0.7 0 -1.2 0.4 -1.2 1.1 V 165 h 80.3" stroke-linecap="round"/>
</g>
		<g transform="matrix(0.8121 0 0 -0.8121 68.6506 322.2924)" id="path28">
<path style="stroke: none; stroke-width: 1; stroke-dasharray: none; stroke-linecap: butt; stroke-dashoffset: 0; stroke-linejoin: miter; stroke-miterlimit: 4; is-custom-font: none; font-file-url: none; fill: rgb(41,61,155); fill-rule: nonzero; opacity: 1;" transform=" translate(-1623.7, -109.35)" d="M 1669.3 64.2 c 1 0 1.4 -1 1.3 -2.3 l -0.4 -7.2 c 0 -0.7 -0.4 -1.1 -1.2 -1.1 h -24.6 c -1.2 0 -1.7 0.9 -1.6 2.3 l 0.4 7.2 c 0 0.4 0.3 1 1.2 1.2 l 4.2 0.3 v 38.6 h -50 V 64.5 l 4.4 -0.3 c 1 0 1.4 -1 1.3 -2.3 l -0.4 -7.2 c 0 -0.7 -0.4 -1.1 -1.1 -1.1 h -24.6 c -1.2 0 -1.7 0.9 -1.6 2.3 l 0.4 7.2 c 0 0.4 0.3 1 1.2 1.2 l 4.2 0.3 v 89.6 l -4.4 0.3 c -1 0 -1.4 1 -1.3 2.3 l 0.4 7.2 c 0 0.7 0.4 1.1 1.2 1.1 h 24.6 c 1.1 0 1.7 -0.9 1.6 -2.3 l -0.4 -7.2 c 0 -0.4 -0.3 -1 -1.1 -1.2 l -4.2 -0.3 v -37.6 h 50 v 37.6 l -4.5 0.3 c -1 0 -1.4 1 -1.3 2.3 l 0.4 7.2 c 0 0.7 0.4 1.1 1.2 1.1 h 24.6 c 1.2 0 1.7 -0.9 1.6 -2.3 l -0.4 -7.2 c 0 -0.4 -0.3 -1 -1.2 -1.2 l -4.2 -0.3 V 64.5 l 4.3 -0.3" stroke-linecap="round"/>
</g>
		<g transform="matrix(0.8121 0 0 -0.8121 175.5276 321.6034)" id="path30">
<path style="stroke: none; stroke-width: 1; stroke-dasharray: none; stroke-linecap: butt; stroke-dashoffset: 0; stroke-linejoin: miter; stroke-miterlimit: 4; is-custom-font: none; font-file-url: none; fill: rgb(41,61,155); fill-rule: nonzero; opacity: 1;" transform=" translate(-1755.3, -110.2)" d="M 1762.2 117.1 c 1.9 -1.9 2.9 -4.2 2.9 -6.9 s -1 -5 -2.9 -6.9 c -1.9 -1.9 -4.2 -2.9 -6.9 -2.9 s -5 1 -6.9 2.9 c -1.9 1.9 -2.9 4.2 -2.9 6.9 s 1 5 2.9 6.9 c 1.9 2 4.2 2.9 6.9 2.9 s 5.1 -0.9 6.9 -2.9" stroke-linecap="round"/>
</g>
		<g transform="matrix(0.8121 0 0 -0.8121 278.7489 322.2518)" id="path32">
<path style="stroke: none; stroke-width: 1; stroke-dasharray: none; stroke-linecap: butt; stroke-dashoffset: 0; stroke-linejoin: miter; stroke-miterlimit: 4; is-custom-font: none; font-file-url: none; fill: rgb(41,61,155); fill-rule: nonzero; opacity: 1;" transform=" translate(-1882.4012, -109.4)" d="M 1900.1 93.7 l -18.7 53 h -0.2 l -17.7 -53 h 36.6 z m 31.4 -29.5 c 1 0 1.4 -1 1.3 -2.3 l -0.4 -7.2 c 0 -0.7 -0.4 -1.1 -1 -1.1 h -25.1 c -1.1 0 -1.7 0.9 -1.6 2.3 l 0.4 7.2 c 0 0.4 0.3 1 1.1 1.2 l 4 0.3 l -5.6 15.9 h -45.5 l -5.3 -15.9 l 4.4 -0.3 c 1 0 1.4 -1 1.3 -2.3 l -0.4 -7.2 c 0 -0.7 -0.4 -1.1 -1.2 -1.1 h -24.3 c -1.2 0 -1.7 0.9 -1.6 2.3 l 0.4 7.2 c 0 0.4 0.3 1 1.2 1.2 l 4 0.3 l 32.2 89.6 l -4.3 0.3 c -1 0 -1.4 1 -1.3 2.3 l 0.4 7.2 c 0 0.7 0.4 1.1 1.2 1.1 h 22.8 l 38.5 -100.5 l 4.4 -0.5" stroke-linecap="round"/>
</g>
		<g transform="matrix(0.8121 0 0 -0.8121 401.0528 323.0233)" id="path34">
<path style="stroke: none; stroke-width: 1; stroke-dasharray: none; stroke-linecap: butt; stroke-dashoffset: 0; stroke-linejoin: miter; stroke-miterlimit: 4; is-custom-font: none; font-file-url: none; fill: rgb(41,61,155); fill-rule: nonzero; opacity: 1;" transform=" translate(-2032.9979, -108.45)" d="M 2077.4 165 c 1.1 0 1.7 -0.9 1.6 -2.3 l -0.4 -7.2 c 0 -0.4 -0.3 -1 -1.1 -1.2 l -4.2 -0.3 h -0.4 V 94.7 c 0 -29 -11.4 -42.8 -40.4 -42.8 c -27.7 0 -39.8 9.3 -39.8 42.8 v 59.4 l -4.4 0.3 c -1 0 -1.4 1 -1.3 2.3 l 0.4 7.2 c 0 0.7 0.4 1.1 1.1 1.1 h 24.6 c 1.2 0 1.7 -0.9 1.6 -2.3 l -0.4 -7.2 c 0 -0.4 -0.3 -1 -1.2 -1.2 l -4.2 -0.3 V 91.8 c 0 -17.8 5.3 -27.4 23.4 -27.4 c 20.1 0 24.7 12.3 24.7 27.4 v 62.3 l -4.4 0.3 c -1 0 -1.4 1 -1.3 2.3 l 0.4 7.2 c 0 0.7 0.4 1.1 1.1 1.1 h 24.6" stroke-linecap="round"/>
</g>
		<g transform="matrix(0.8121 0 0 -0.8121 518.6103 322.1706)" id="path36">
<path style="stroke: none; stroke-width: 1; stroke-dasharray: none; stroke-linecap: butt; stroke-dashoffset: 0; stroke-linejoin: miter; stroke-miterlimit: 4; is-custom-font: none; font-file-url: none; fill: rgb(41,61,155); fill-rule: nonzero; opacity: 1;" transform=" translate(-2177.75, -109.5)" d="M 2213 84.2 c 0 -18.1 -13.4 -31.3 -38.5 -31.3 c -13.5 0 -24.3 2.9 -32 6.2 v 17.4 c 0 1.3 1 2 2.7 1.9 l 8.6 -0.6 c 0.6 0 1.3 -0.3 1.4 -1.3 l 0.3 -7.8 c 6.8 -1.6 13.5 -2.4 18.1 -2.4 c 13.1 0 23.3 4.4 23.3 16.4 c 0 12.8 -4.9 15.4 -27 23.3 c -16.1 6 -27.1 14.2 -27.1 30.2 c 0 18 13.6 29.9 37.9 29.9 c 8.9 0 17.4 -0.9 25.4 -2.9 v -18.8 c 0 -1.3 -1 -2 -2.7 -1.9 l -8.6 0.6 c -0.6 0 -1.3 0.3 -1.4 1.3 l -0.3 7.8 c -3.9 0.4 -7.8 0.7 -11.4 0.7 c -13.4 0 -22.1 -6.2 -22.1 -16.1 c 0 -10.3 6 -14.1 25.7 -21.1 c 20.5 -7.4 27.7 -17.2 27.7 -31.5" stroke-linecap="round"/>
</g>
		<g transform="matrix(0.8121 0 0 -0.8121 627.7602 322.333)" id="path38">
<path style="stroke: none; stroke-width: 1; stroke-dasharray: none; stroke-linecap: butt; stroke-dashoffset: 0; stroke-linejoin: miter; stroke-miterlimit: 4; is-custom-font: none; font-file-url: none; fill: rgb(41,61,155); fill-rule: nonzero; opacity: 1;" transform=" translate(-2312.15, -109.3)" d="M 2352.2 165 v -17.5 c 0 -1.1 -0.9 -1.7 -2.3 -1.6 l -7.2 0.4 c -0.4 0 -1 0.3 -1.1 1.1 l -0.3 4.2 v 0.1 h -21.8 V 64.5 l 4.4 -0.3 c 1 0 1.4 -1 1.3 -2.3 l -0.4 -7.2 c 0 -0.7 -0.4 -1.1 -1.1 -1.1 h -24.6 c -1.1 0 -1.7 0.9 -1.6 2.3 l 0.4 7.2 c 0 0.4 0.3 1 1.1 1.2 l 4.2 0.3 v 87.3 H 2283 l -0.3 -4.4 c 0 -1 -1 -1.4 -2.3 -1.3 l -7.2 0.4 c -0.7 0 -1.1 0.4 -1.1 1.1 V 165 h 80.1" stroke-linecap="round"/>
</g>
		<g transform="matrix(0.8121 0 0 -0.8121 745.5999 322.2924)" id="path40">
<path style="stroke: none; stroke-width: 1; stroke-dasharray: none; stroke-linecap: butt; stroke-dashoffset: 0; stroke-linejoin: miter; stroke-miterlimit: 4; is-custom-font: none; font-file-url: none; fill: rgb(41,61,155); fill-rule: nonzero; opacity: 1;" transform=" translate(-2457.25, -109.35)" d="M 2451.6 109.5 c 15.5 0 24.4 6.8 24.4 22.3 c 0 14.8 -8.5 20.7 -23.1 20.7 h -13.8 v -42.9 l 12.5 -0.1 z m 44.4 -45.3 c 1 0 1.4 -1 1.3 -2.3 l -0.4 -7.2 c 0 -0.7 -0.4 -1.1 -1.1 -1.1 h -16.4 L 2455 96.7 h -15.8 V 64.5 l 4.4 -0.3 c 1 0 1.4 -1 1.3 -2.3 l -0.4 -7.2 c 0 -0.7 -0.4 -1.1 -1.1 -1.1 h -24.6 c -1.1 0 -1.7 0.9 -1.6 2.3 l 0.4 7.2 c 0 0.4 0.3 1 1.1 1.2 l 4.2 0.3 v 89.6 l -4.4 0.3 c -1 0 -1.4 1 -1.3 2.3 l 0.4 7.2 c 0 0.7 0.4 1.1 1.1 1.1 h 32.5 c 28 0 41.2 -10.6 41.2 -33.3 c 0 -14.5 -7.6 -26.9 -21.2 -32 l 20.4 -35.2 l 4.4 -0.4" stroke-linecap="round"/>
</g>
		<g transform="matrix(0.8121 0 0 -0.8121 867.7452 322.2518)" id="path42">
<path style="stroke: none; stroke-width: 1; stroke-dasharray: none; stroke-linecap: butt; stroke-dashoffset: 0; stroke-linejoin: miter; stroke-miterlimit: 4; is-custom-font: none; font-file-url: none; fill: rgb(41,61,155); fill-rule: nonzero; opacity: 1;" transform=" translate(-2607.6521, -109.4)" d="M 2625.2 93.7 l -18.7 53 h -0.1 l -17.7 -53 h 36.5 z m 31.4 -29.5 c 1 0 1.4 -1 1.3 -2.3 l -0.4 -7.2 c 0 -0.7 -0.4 -1.1 -1 -1.1 h -25.1 c -1.2 0 -1.7 0.9 -1.6 2.3 l 0.4 7.2 c 0 0.4 0.3 1 1.2 1.2 l 4 0.3 l -5.6 15.9 h -45.5 l -5.3 -15.9 l 4.5 -0.3 c 1 0 1.4 -1 1.3 -2.3 l -0.4 -7.2 c 0 -0.7 -0.4 -1.1 -1.1 -1.1 H 2559 c -1.1 0 -1.7 0.9 -1.6 2.3 l 0.4 7.2 c 0 0.4 0.3 1 1.1 1.2 l 4 0.3 l 32.2 89.6 l -4.3 0.3 c -1 0 -1.4 1 -1.3 2.3 l 0.4 7.2 c 0 0.7 0.4 1.1 1.1 1.1 h 22.8 l 38.5 -100.5 l 4.3 -0.5" stroke-linecap="round"/>
</g>
		<g transform="matrix(0.8121 0 0 -0.8121 990.7347 322.2924)" id="path44">
<path style="stroke: none; stroke-width: 1; stroke-dasharray: none; stroke-linecap: butt; stroke-dashoffset: 0; stroke-linejoin: miter; stroke-miterlimit: 4; is-custom-font: none; font-file-url: none; fill: rgb(41,61,155); fill-rule: nonzero; opacity: 1;" transform=" translate(-2759.0925, -109.35)" d="M 2793.6 72.3 c 0.7 0 1.1 -0.4 1.1 -1.1 V 53.6 h -69.6 c -1.1 0 -1.7 0.9 -1.6 2.3 l 0.4 7.2 c 0 0.4 0.3 1 1.1 1.2 l 4.2 0.3 v 89.6 l -4.4 0.3 c -1 0 -1.4 1 -1.3 2.3 l 0.4 7.2 c 0 0.7 0.4 1.1 1.1 1.1 h 24.6 c 1.1 0 1.7 -0.9 1.6 -2.3 l -0.4 -7.2 c 0 -0.4 -0.3 -1 -1.1 -1.2 l -4.2 -0.3 V 67 h 38.3 l 0.3 4.4 c 0 1 1 1.4 2.3 1.3 l 7.2 -0.4" stroke-linecap="round"/>
</g>
		<g transform="matrix(0.8121 0 0 -0.8121 1083.6893 322.2924)" id="path46">
<path style="stroke: none; stroke-width: 1; stroke-dasharray: none; stroke-linecap: butt; stroke-dashoffset: 0; stroke-linejoin: miter; stroke-miterlimit: 4; is-custom-font: none; font-file-url: none; fill: rgb(41,61,155); fill-rule: nonzero; opacity: 1;" transform=" translate(-2873.55, -109.35)" d="M 2886.1 64.2 c 1 0 1.4 -1 1.3 -2.3 l -0.4 -7.2 c 0 -0.7 -0.4 -1.1 -1.1 -1.1 h -24.6 c -1.1 0 -1.7 0.9 -1.6 2.3 l 0.4 7.2 c 0 0.4 0.3 1 1.1 1.2 l 4.2 0.3 v 89.6 l -4.4 0.3 c -1 0 -1.4 1 -1.3 2.3 l 0.4 7.2 c 0 0.7 0.4 1.1 1.1 1.1 h 24.6 c 1.1 0 1.7 -0.9 1.6 -2.3 l -0.4 -7.2 c 0 -0.4 -0.3 -1 -1.1 -1.2 l -4.2 -0.3 V 64.5 l 4.4 -0.3" stroke-linecap="round"/>
</g>
		<g transform="matrix(0.8121 0 0 -0.8121 1184.3939 322.2518)" id="path48">
<path style="stroke: none; stroke-width: 1; stroke-dasharray: none; stroke-linecap: butt; stroke-dashoffset: 0; stroke-linejoin: miter; stroke-miterlimit: 4; is-custom-font: none; font-file-url: none; fill: rgb(41,61,155); fill-rule: nonzero; opacity: 1;" transform=" translate(-2997.5521, -109.4)" d="M 3015.2 93.7 l -18.7 53 h -0.1 l -17.7 -53 h 36.5 z m 31.4 -29.5 c 1 0 1.4 -1 1.3 -2.3 l -0.4 -7.2 c 0 -0.7 -0.4 -1.1 -1 -1.1 h -25.1 c -1.1 0 -1.7 0.9 -1.6 2.3 l 0.4 7.2 c 0 0.4 0.3 1 1.1 1.2 l 4 0.3 l -5.6 15.9 h -45.5 l -5.3 -15.9 l 4.4 -0.3 c 1 0 1.4 -1 1.3 -2.3 l -0.4 -7.2 c 0 -0.7 -0.4 -1.1 -1.1 -1.1 h -24.3 c -1.1 0 -1.7 0.9 -1.6 2.3 l 0.4 7.2 c 0 0.4 0.3 1 1.1 1.2 l 4 0.3 l 32.2 89.6 l -4.3 0.3 c -1 0 -1.4 1 -1.3 2.3 l 0.4 7.2 c 0 0.7 0.4 1.1 1.1 1.1 h 22.8 l 38.5 -100.5 l 4.5 -0.5" stroke-linecap="round"/>
</g>
		<g transform="matrix(0.8121 0 0 -0.8121 -888.534 287.2058)" id="path50">
<path style="stroke: none; stroke-width: 1; stroke-dasharray: none; stroke-linecap: butt; stroke-dashoffset: 0; stroke-linejoin: miter; stroke-miterlimit: 4; is-custom-font: none; font-file-url: none; fill: rgb(41,61,155); fill-rule: nonzero; opacity: 1;" transform=" translate(-445.1, -152.55)" d="M 799.2 305.1 C 723.4 180.8 591.5 106.6 446 106.6 S 168.6 180.8 92.8 305 l -79.5 -73.5 c 44.4 -66.4 103.8 -122.2 173 -162.2 C 264.9 24 354.7 0 446 0 s 181 24 259.7 69.4 c 67.2 38.8 127.2 100 171.2 163.9 l -77.7 71.8" stroke-linecap="round"/>
</g>
		<g transform="matrix(0.8121 0 0 -0.8121 -887.8412 -400.297)" id="path52">
<path style="stroke: none; stroke-width: 1; stroke-dasharray: none; stroke-linecap: butt; stroke-dashoffset: 0; stroke-linejoin: miter; stroke-miterlimit: 4; is-custom-font: none; font-file-url: none; fill: rgb(218,172,6); fill-rule: nonzero; opacity: 1;" transform=" translate(-445.95, -999.1)" d="M 101.6 986 h 688.7 v 26.2 H 101.6 V 986 z" stroke-linecap="round"/>
</g>
		<g transform="matrix(0.8121 0 0 -0.8121 -887.76 -46.8298)" id="path54">
<path style="stroke: none; stroke-width: 1; stroke-dasharray: none; stroke-linecap: butt; stroke-dashoffset: 0; stroke-linejoin: miter; stroke-miterlimit: 4; is-custom-font: none; font-file-url: none; fill: rgb(41,61,155); fill-rule: nonzero; opacity: 1;" transform=" translate(-446.05, -563.85)" d="M 790.3 736.5 C 789 659.7 807 354.9 446 141.7 c -361.1 213.2 -343 518 -344.3 594.8 V 986 h 688.7 l -0.1 -249.5" stroke-linecap="round"/>
</g>
		<g transform="matrix(0.8121 0 0 -0.8121 -887.84 50.9537)" id="path56">
<path style="stroke: none; stroke-width: 1; stroke-dasharray: none; stroke-linecap: butt; stroke-dashoffset: 0; stroke-linejoin: miter; stroke-miterlimit: 4; is-custom-font: none; font-file-url: none; fill: rgb(218,172,6); fill-rule: nonzero; opacity: 1;" transform=" translate(-445.95, -443.45)" d="M 147.1 468.8 C 190.9 361.6 276.8 241.6 446 141.7 c 169.2 99.9 255.1 219.9 298.8 327.1 L 446 745.2 L 147.1 468.8" stroke-linecap="round"/>
</g>
		<g transform="matrix(0.8121 0 0 -0.8121 -974.5277 -277.1006)" id="path58">
<path style="stroke: none; stroke-width: 1; stroke-dasharray: none; stroke-linecap: butt; stroke-dashoffset: 0; stroke-linejoin: miter; stroke-miterlimit: 4; is-custom-font: none; font-file-url: none; fill: rgb(255,255,255); fill-rule: nonzero; opacity: 1;" transform=" translate(-339.2, -847.4019)" d="M 389.9 917.8 V 785 c -35.7 13.1 -78.6 2.7 -101.4 -14.1 v 131.6 c 19.9 19.5 67.2 28.2 101.4 15.3" stroke-linecap="round"/>
</g>
		<g transform="matrix(0.8121 0 0 -0.8121 -1064.9987 -276.8482)" id="path60">
<path style="stroke: none; stroke-width: 1; stroke-dasharray: none; stroke-linecap: butt; stroke-dashoffset: 0; stroke-linejoin: miter; stroke-miterlimit: 4; is-custom-font: none; font-file-url: none; fill: rgb(255,255,255); fill-rule: nonzero; opacity: 1;" transform=" translate(-227.8, -847.0912)" d="M 177.1 917.5 V 784.7 c 35.6 13.1 78.6 2.7 101.4 -14.1 v 131.6 c -19.9 19.4 -67.2 28.2 -101.4 15.3" stroke-linecap="round"/>
</g>
		<g transform="matrix(0.8121 0 0 -0.8121 -1019.8065 -259.0294)" id="path62">
<path style="stroke: none; stroke-width: 1; stroke-dasharray: none; stroke-linecap: butt; stroke-dashoffset: 0; stroke-linejoin: miter; stroke-miterlimit: 4; is-custom-font: none; font-file-url: none; fill: rgb(255,255,255); fill-rule: nonzero; opacity: 1;" transform=" translate(-283.45, -825.15)" d="M 420.4 812.2 h -0.3 c -5.1 0.5 -9 0.8 -11.6 1 v 43.3 c 2.6 -0.2 6.4 -0.4 11.3 -1 h 0.6 c 10.2 -0.5 11.6 4.7 11.6 4.7 c -2.3 5.4 -7.4 7.8 -11.6 8.1 h -0.3 c -5.1 0.5 -9 0.8 -11.6 1 V 906 h -9 V 772.5 c -49.1 10.5 -86.1 5.1 -116 -16.8 c -29.8 21.9 -66.9 27.3 -116 16.8 V 906 h -9 v -36.6 c -1.9 -0.1 -4.4 -0.3 -7.6 -0.6 v 1.4 c 0 1 -0.8 1.8 -2 1.8 l -12.2 -1.3 c -1 -0.1 -1.8 -0.9 -1.8 -1.9 v -15.7 c 0 -1 0.8 -1.8 2.1 -1.8 l 12.2 1.2 c 0.9 0.1 1.7 0.9 1.7 1.9 v 1.5 c 3.2 0.3 5.7 0.5 7.6 0.6 v -43.3 c -1.9 -0.1 -4.4 -0.3 -7.6 -0.6 v 1.4 c 0 1 -0.8 1.8 -2 1.8 l -12.2 -1.3 c -1 -0.1 -1.8 -0.9 -1.8 -1.9 V 797 c 0 -1 0.8 -1.9 2.1 -1.8 l 12.2 1.2 c 0.9 0.1 1.7 0.9 1.7 1.8 v 1.5 c 3.2 0.3 5.7 0.5 7.6 0.6 v -39.1 l 5.5 1.3 c 50.5 11.8 87.6 6.7 116.7 -16 l 2.8 -2.2 l 2.8 2.2 c 29.1 22.7 66.2 27.8 116.7 16 l 5.5 -1.3 v 39.1 c 2.6 -0.2 6.4 -0.4 11.3 -1 h 0.6 c 10.2 -0.5 11.6 4.7 11.6 4.7 c -2.3 5.4 -7.4 7.8 -11.6 8.2" stroke-linecap="round"/>
</g>
		<g transform="matrix(0.8121 0 0 -0.8121 -1120.4664 289.9453)" id="path64">
<path style="stroke: none; stroke-width: 1; stroke-dasharray: none; stroke-linecap: butt; stroke-dashoffset: 0; stroke-linejoin: miter; stroke-miterlimit: 4; is-custom-font: none; font-file-url: none; fill: rgb(255,255,255); fill-rule: nonzero; opacity: 1;" transform=" translate(-159.5, -149.1812)" d="M 165.7 131.1 c -4.8 -6.2 -12.9 -7.2 -21.6 -0.5 c -4.7 3.6 -7.6 7.4 -9.4 10.6 l 4.6 6 c 0.3 0.4 0.9 0.4 1.4 -0.1 l 2.8 -2.5 c 0.2 -0.1 0.4 -0.4 0.2 -0.8 l -2 -2.8 c 1.9 -2.3 4 -4.4 5.6 -5.7 c 4.5 -3.5 9.2 -4.7 12.4 -0.6 c 3.4 4.4 2.4 6.6 -3.1 15.2 c -3.9 6.4 -5.6 12.1 -1.3 17.6 c 4.8 6.2 12.7 6.7 21 0.2 c 3.1 -2.4 5.8 -4.9 8 -7.8 l -5 -6.5 c -0.3 -0.4 -0.9 -0.4 -1.4 0.1 l -2.8 2.5 c -0.2 0.2 -0.4 0.4 -0.2 0.8 l 2 2.8 c -1.2 1.2 -2.5 2.3 -3.7 3.3 c -4.6 3.6 -9.3 3.8 -11.9 0.3 c -2.8 -3.6 -1.7 -6.5 3.2 -14.1 c 5.1 -7.8 5 -13.1 1.2 -18" stroke-linecap="round"/>
</g>
		<g transform="matrix(0.8121 0 0 -0.8121 -1080.5319 316.8683)" id="path66">
<path style="stroke: none; stroke-width: 1; stroke-dasharray: none; stroke-linecap: butt; stroke-dashoffset: 0; stroke-linejoin: miter; stroke-miterlimit: 4; is-custom-font: none; font-file-url: none; fill: rgb(255,255,255); fill-rule: nonzero; opacity: 1;" transform=" translate(-208.6727, -116.0299)" d="M 213.7 94.7 c 0.3 -0.2 0.3 -0.4 0.2 -0.7 l -3.9 -6.6 l -26.1 15.4 c -0.4 0.3 -0.5 0.7 -0.1 1.2 l 1.8 2.6 c 0.1 0.2 0.3 0.3 0.7 0.2 l 1.6 -0.8 l 19.8 33.6 l -1.6 1.1 c -0.4 0.2 -0.3 0.7 0 1.1 l 1.8 2.6 c 0.2 0.3 0.4 0.3 0.7 0.2 l 25.2 -14.9 l -3.9 -6.6 c -0.3 -0.4 -0.7 -0.5 -1.2 -0.1 l -2.6 1.8 c -0.2 0.1 -0.3 0.3 -0.2 0.7 l 0.8 1.6 l -13.4 7.9 l -7.5 -12.8 l 15.2 -9 l -2.9 -5 l -15.2 8.9 l -8.3 -14.1 l 14.3 -8.4 l 1.1 1.6 c 0.2 0.4 0.7 0.3 1.1 0 l 2.6 -1.5" stroke-linecap="round"/>
</g>
		<g transform="matrix(0.8121 0 0 -0.8121 -1038.1591 338.1551)" id="path68">
<path style="stroke: none; stroke-width: 1; stroke-dasharray: none; stroke-linecap: butt; stroke-dashoffset: 0; stroke-linejoin: miter; stroke-miterlimit: 4; is-custom-font: none; font-file-url: none; fill: rgb(255,255,255); fill-rule: nonzero; opacity: 1;" transform=" translate(-260.8476, -89.8187)" d="M 268.4 69.2 c 0.3 -0.1 0.4 -0.4 0.3 -0.7 l -3 -7 l -27.8 12 c -0.5 0.2 -0.5 0.6 -0.2 1.2 l 1.4 2.8 c 0.1 0.2 0.3 0.4 0.7 0.3 l 1.7 -0.6 L 257 113 l -1.7 0.9 c -0.4 0.2 -0.4 0.6 -0.1 1.1 l 1.4 2.8 c 0.1 0.3 0.4 0.4 0.7 0.3 l 26.9 -11.6 l -3 -7 c -0.2 -0.5 -0.6 -0.5 -1.2 -0.2 l -2.8 1.4 c -0.2 0.1 -0.4 0.3 -0.3 0.7 l 0.6 1.7 l -14.3 6.2 l -6.2 -13.7 l 16.2 -7 l -2.3 -5.3 l -16.2 7 l -6.5 -15 l 15.3 -6.6 l 0.9 1.7 c 0.2 0.4 0.6 0.4 1.1 0.1 l 2.9 -1.3" stroke-linecap="round"/>
</g>
		<g transform="matrix(0.8121 0 0 -0.8121 -991.0537 354.5753)" id="path70">
<path style="stroke: none; stroke-width: 1; stroke-dasharray: none; stroke-linecap: butt; stroke-dashoffset: 0; stroke-linejoin: miter; stroke-miterlimit: 4; is-custom-font: none; font-file-url: none; fill: rgb(255,255,255); fill-rule: nonzero; opacity: 1;" transform=" translate(-318.85, -69.6)" d="M 342.5 88.1 c 0.5 -0.1 0.6 -0.6 0.4 -1.1 l -1 -3 c -0.1 -0.2 -0.2 -0.4 -0.6 -0.3 l -1.8 0.4 l -19.6 -11.6 l 8.6 -25.8 l 1.8 -0.6 c 0.4 -0.1 0.5 -0.6 0.3 -1.1 l -1 -3 c -0.1 -0.3 -0.3 -0.4 -0.6 -0.3 l -6.4 1.8 l -8.5 25.5 l -5.4 -3.2 l -3.7 -12.6 l 1.8 -0.6 c 0.4 -0.1 0.5 -0.6 0.3 -1.1 l -1 -3 c -0.1 -0.3 -0.3 -0.4 -0.6 -0.3 L 295.2 51 c -0.5 0.1 -0.6 0.6 -0.4 1.1 l 1 3 c 0.1 0.2 0.2 0.4 0.6 0.3 l 1.8 -0.4 l 10.6 37.5 l -1.8 0.6 c -0.4 0.1 -0.5 0.6 -0.3 1.1 l 1 3 c 0.1 0.3 0.3 0.4 0.6 0.3 l 10.3 -2.9 c 0.5 -0.1 0.6 -0.6 0.4 -1.2 l -1 -3 c -0.1 -0.2 -0.2 -0.4 -0.6 -0.3 l -1.8 0.4 l -4.7 -16.8 L 331.4 86 l -1.8 0.6 c -0.4 0.1 -0.5 0.6 -0.3 1.1 l 1 3 c 0.1 0.3 0.3 0.4 0.6 0.3 l 11.6 -2.9" stroke-linecap="round"/>
</g>
		<g transform="matrix(0.8121 0 0 -0.8121 -906.7146 368.0605)" id="path72">
<path style="stroke: none; stroke-width: 1; stroke-dasharray: none; stroke-linecap: butt; stroke-dashoffset: 0; stroke-linejoin: miter; stroke-miterlimit: 4; is-custom-font: none; font-file-url: none; fill: rgb(255,255,255); fill-rule: nonzero; opacity: 1;" transform=" translate(-422.6998, -52.9953)" d="M 452.6 75.3 c 0.5 0 0.7 -0.4 0.6 -1 l -0.4 -3.1 c 0 -0.2 -0.1 -0.4 -0.5 -0.5 h -1.8 l -12.7 -41 c -0.5 -1.4 -1.6 -2.1 -3 -2 l -4.9 0.4 c -0.7 0 -0.9 0.5 -1.1 1.2 l -6.6 37 h -0.1 l -10.2 -34.5 c -0.4 -1.2 -1.3 -2.9 -3.5 -2.8 l -4.7 0.4 c -0.6 0 -0.9 0.4 -1.1 1.2 l -8 42.9 l -1.9 0.2 c -0.4 0 -0.6 0.5 -0.5 1 l 0.4 3.1 c 0 0.3 0.2 0.5 0.5 0.5 l 10.3 -0.5 c 0.5 0 0.7 -0.4 0.6 -1 l -0.4 -3.1 c 0 -0.2 -0.1 -0.4 -0.5 -0.5 h -1.8 l 6.1 -36.8 h 0.1 l 10.9 37.8 c 0.6 2.2 1.7 2.9 3.2 2.7 l 3.6 -0.4 c 0.6 -0.1 0.9 -0.4 1 -1.2 l 7 -40.2 h 0.1 l 10.3 36 l -1.9 0.2 c -0.4 0 -0.6 0.5 -0.5 1 l 0.3 3.1 c 0 0.3 0.2 0.5 0.5 0.5 l 10.6 -0.6" stroke-linecap="round"/>
</g>
		<g transform="matrix(0.8121 0 0 -0.8121 -856.3619 367.61)" id="path74">
<path style="stroke: none; stroke-width: 1; stroke-dasharray: none; stroke-linecap: butt; stroke-dashoffset: 0; stroke-linejoin: miter; stroke-miterlimit: 4; is-custom-font: none; font-file-url: none; fill: rgb(255,255,255); fill-rule: nonzero; opacity: 1;" transform=" translate(-484.7, -53.55)" d="M 491.8 34.5 c 0.4 0 0.7 -0.4 0.6 -1 l 0.1 -3.1 c 0 -0.3 -0.1 -0.5 -0.5 -0.5 l -10.6 -0.9 c -0.5 0 -0.8 0.3 -0.8 0.9 l -0.1 3.1 c 0 0.2 0.1 0.5 0.5 0.5 l 1.8 0.3 l -3.3 38.9 h -1.9 c -0.4 0 -0.7 0.4 -0.6 0.9 l -0.1 3.1 c 0 0.3 0.1 0.5 0.5 0.5 l 10.6 0.9 c 0.5 0 0.8 -0.3 0.8 -0.9 l 0.1 -3.1 c 0 -0.2 -0.1 -0.4 -0.5 -0.5 l -1.8 -0.3 l 3.3 -38.9 l 1.9 0.1" stroke-linecap="round"/>
</g>
		<g transform="matrix(0.8121 0 0 -0.8121 -816.6445 361.9516)" id="path76">
<path style="stroke: none; stroke-width: 1; stroke-dasharray: none; stroke-linecap: butt; stroke-dashoffset: 0; stroke-linejoin: miter; stroke-miterlimit: 4; is-custom-font: none; font-file-url: none; fill: rgb(255,255,255); fill-rule: nonzero; opacity: 1;" transform=" translate(-533.6056, -60.5173)" d="M 550.8 52.5 c 1.5 -7.7 -3.1 -14.5 -13.9 -16.5 c -5.8 -1.1 -10.6 -0.8 -14.2 0 l -1.4 7.4 c -0.1 0.6 0.3 0.9 1 1 l 3.7 0.5 c 0.2 0 0.6 0 0.7 -0.4 l 0.8 -3.3 c 3 -0.1 6 0.1 7.9 0.4 c 5.6 1.1 9.6 3.8 8.6 8.9 c -1 5.5 -3.3 6.2 -13.5 7.7 c -7.4 1.3 -12.8 3.8 -14.1 10.7 c -1.5 7.7 3.4 13.9 13.7 15.9 c 3.8 0.7 7.5 1.1 11.1 0.9 l 1.6 -8 c 0.1 -0.6 -0.3 -0.9 -1 -1 l -3.7 -0.5 c -0.2 0 -0.6 0 -0.7 0.4 l -0.8 3.3 c -1.7 -0.1 -3.4 -0.3 -4.9 -0.6 c -5.7 -1.1 -8.9 -4.5 -8.1 -8.7 c 0.8 -4.4 3.7 -5.5 12.7 -6.9 c 9.4 -1.4 13.3 -5 14.5 -11.2" stroke-linecap="round"/>
</g>
		<g transform="matrix(0.8121 0 0 -0.8121 -769.3496 351.1315)" id="path78">
<path style="stroke: none; stroke-width: 1; stroke-dasharray: none; stroke-linecap: butt; stroke-dashoffset: 0; stroke-linejoin: miter; stroke-miterlimit: 4; is-custom-font: none; font-file-url: none; fill: rgb(255,255,255); fill-rule: nonzero; opacity: 1;" transform=" translate(-591.8417, -73.8405)" d="M 596.7 57.5 c 12.6 4.2 12.6 13.8 9.4 23.3 c -3.5 10.4 -8.3 16.5 -21.9 11.9 L 579 91 l 11.9 -35.4 l 5.8 1.9 z M 582.4 98 c 18.4 6.2 26.1 -1 30.8 -14.9 c 5.8 -17.2 -0.5 -26.1 -16.4 -31.4 l -12.6 -4.2 c -0.5 -0.2 -0.8 0.1 -1 0.7 l -0.8 3 c -0.1 0.2 0 0.5 0.3 0.6 l 1.7 0.7 l -12.4 37 l -1.9 -0.5 c -0.4 -0.1 -0.7 0.2 -0.9 0.8 l -0.8 3 c -0.1 0.3 0 0.5 0.3 0.6 l 13.7 4.6" stroke-linecap="round"/>
</g>
		<g transform="matrix(0.8121 0 0 -0.8121 -718.5663 328.7092)" id="path80">
<path style="stroke: none; stroke-width: 1; stroke-dasharray: none; stroke-linecap: butt; stroke-dashoffset: 0; stroke-linejoin: miter; stroke-miterlimit: 4; is-custom-font: none; font-file-url: none; fill: rgb(255,255,255); fill-rule: nonzero; opacity: 1;" transform=" translate(-654.3728, -101.4499)" d="M 643.5 96.1 c 3.7 -7.3 10.1 -16 19.3 -11.4 c 7.6 3.8 7.6 11.9 2.4 22.3 c -3.8 7.5 -10.2 15.8 -19.2 11.3 c -9.2 -4.7 -6.2 -15 -2.5 -22.2 z m 28.3 14.1 c 7.4 -14.8 4.5 -25.2 -6.5 -30.7 c -10.8 -5.4 -21.2 -1.4 -28.5 13.2 c -5.3 10.5 -7.1 24 6.5 30.8 c 11.8 5.8 22 -0.3 28.5 -13.3" stroke-linecap="round"/>
</g>
		<g transform="matrix(0.8121 0 0 -0.8121 -668.3551 299.0256)" id="path82">
<path style="stroke: none; stroke-width: 1; stroke-dasharray: none; stroke-linecap: butt; stroke-dashoffset: 0; stroke-linejoin: miter; stroke-miterlimit: 4; is-custom-font: none; font-file-url: none; fill: rgb(255,255,255); fill-rule: nonzero; opacity: 1;" transform=" translate(-716.2, -138)" d="M 747.1 136.6 c 0.4 0.3 0.8 0 1 -0.5 l 1.7 -2.7 c 0.2 -0.3 0.1 -0.5 -0.1 -0.7 l -8.6 -6.1 c -0.4 -0.3 -0.8 -0.1 -1.1 0.4 l -1.7 2.7 c -0.1 0.2 -0.2 0.4 0.1 0.7 l 1.4 1.1 l -17.9 24 l 6.5 -30.1 c 0.2 -1 0.2 -2.1 -0.5 -2.6 c -0.6 -0.4 -1.4 -1 -2 -1.3 c -0.6 -0.4 -1 -0.4 -1.5 -0.1 l -27.2 16.5 l 16.6 -24.8 l 1.7 1 c 0.4 0.3 0.8 0 1 -0.5 l 1.7 -2.7 c 0.2 -0.3 0.1 -0.5 -0.1 -0.7 l -8.4 -5.9 c -0.4 -0.3 -0.8 -0.1 -1.1 0.4 l -1.7 2.7 c -0.1 0.2 -0.1 0.4 0.1 0.7 l 1.4 1.2 l -21.5 32.6 l -1.6 -1 c -0.4 -0.3 -0.8 0 -1 0.5 l -1.7 2.7 c -0.2 0.3 -0.1 0.5 0.1 0.7 l 6.1 4.3 c 0.3 0.2 0.5 0.1 0.8 0 l 32.1 -19.2 l -7.9 36 c -0.1 0.6 0 0.9 0.5 1.3 l 6.4 4.5 c 0.4 0.3 0.8 0.1 1.1 -0.4 l 1.7 -2.7 c 0.1 -0.2 0.2 -0.4 -0.1 -0.7 l -1.4 -1.1 l 23.7 -31 l 1.4 0.8" stroke-linecap="round"/>
</g>
		<g transform="matrix(0.8121 0 0 -0.8121 -1186.9811 137.0456)" id="path84">
<path style="stroke: none; stroke-width: 1; stroke-dasharray: none; stroke-linecap: butt; stroke-dashoffset: 0; stroke-linejoin: miter; stroke-miterlimit: 4; is-custom-font: none; font-file-url: none; fill: rgb(41,61,155); fill-rule: nonzero; opacity: 1;" transform=" translate(-77.6, -337.45)" d="M 32.8 267.5 l 50.6 46.8 l 11.5 10.8 l 6.4 -10.6 c 11 -18.3 23.4 -35.5 36.7 -51.5 l 17.2 15.6 A 364.08 364.08 0 0 0 99 372.5 c -5.3 12.9 -9.7 26 -13.4 39.4 l -27.5 -70.7 L 0 333 c 0.1 -0.2 0.2 -0.5 0.3 -0.7 l 32.5 -64.8" stroke-linecap="round"/>
</g>
		<g transform="matrix(0.8121 0 0 -0.8121 -710.3425 -277.1006)" id="path86">
<path style="stroke: none; stroke-width: 1; stroke-dasharray: none; stroke-linecap: butt; stroke-dashoffset: 0; stroke-linejoin: miter; stroke-miterlimit: 4; is-custom-font: none; font-file-url: none; fill: rgb(255,255,255); fill-rule: nonzero; opacity: 1;" transform=" translate(-664.5, -847.4019)" d="M 715.2 917.8 V 785 c -35.6 13.1 -78.6 2.7 -101.4 -14.1 v 131.6 c 20 19.5 67.2 28.2 101.4 15.3" stroke-linecap="round"/>
</g>
		<g transform="matrix(0.8121 0 0 -0.8121 -800.7324 -276.8482)" id="path88">
<path style="stroke: none; stroke-width: 1; stroke-dasharray: none; stroke-linecap: butt; stroke-dashoffset: 0; stroke-linejoin: miter; stroke-miterlimit: 4; is-custom-font: none; font-file-url: none; fill: rgb(255,255,255); fill-rule: nonzero; opacity: 1;" transform=" translate(-553.2, -847.0912)" d="M 502.5 917.5 V 784.7 c 35.6 13.1 78.6 2.7 101.4 -14.1 v 131.6 c -20 19.4 -67.2 28.2 -101.4 15.3" stroke-linecap="round"/>
</g>
		<g transform="matrix(0.8121 0 0 -0.8121 -755.5401 -259.0294)" id="path90">
<path style="stroke: none; stroke-width: 1; stroke-dasharray: none; stroke-linecap: butt; stroke-dashoffset: 0; stroke-linejoin: miter; stroke-miterlimit: 4; is-custom-font: none; font-file-url: none; fill: rgb(255,255,255); fill-rule: nonzero; opacity: 1;" transform=" translate(-608.85, -825.15)" d="M 745.8 812.2 h -0.3 c -5.1 0.5 -9 0.8 -11.6 1 v 43.3 c 2.6 -0.2 6.4 -0.4 11.3 -1 h 0.6 c 10.2 -0.5 11.6 4.7 11.6 4.7 c -2.3 5.4 -7.4 7.8 -11.6 8.1 h -0.3 c -5.1 0.5 -9 0.8 -11.6 1 V 906 h -9 V 772.5 c -49.1 10.5 -86.1 5.1 -116 -16.8 c -29.8 21.9 -66.9 27.3 -116 16.8 V 906 h -9 v -36.6 c -1.9 -0.1 -4.4 -0.3 -7.6 -0.6 v 1.4 c 0 1 -0.8 1.8 -2 1.8 l -12.2 -1.3 c -1 -0.1 -1.8 -0.9 -1.8 -1.9 v -15.7 c 0 -1 0.8 -1.8 2.1 -1.8 l 12.2 1.2 c 0.9 0.1 1.7 0.9 1.7 1.9 v 1.5 c 3.2 0.3 5.7 0.5 7.6 0.6 v -43.3 c -1.9 -0.1 -4.4 -0.3 -7.6 -0.6 v 1.4 c 0 1 -0.8 1.8 -2 1.8 l -12.2 -1.3 c -1 -0.1 -1.8 -0.9 -1.8 -1.9 V 797 c 0 -1 0.8 -1.9 2.1 -1.8 l 12.2 1.2 c 0.9 0.1 1.7 0.9 1.7 1.8 v 1.5 c 3.2 0.3 5.7 0.5 7.6 0.6 v -39.1 l 5.5 1.3 c 50.5 11.8 87.6 6.7 116.7 -16 l 2.8 -2.2 l 2.8 2.2 c 29.1 22.7 66.2 27.8 116.7 16 l 5.5 -1.3 v 39.1 c 2.6 -0.2 6.4 -0.4 11.3 -1 h 0.6 c 10.2 -0.5 11.6 4.7 11.6 4.7 c -2.4 5.4 -7.5 7.8 -11.6 8.2" stroke-linecap="round"/>
</g>
		<g transform="matrix(0.8121 0 0 -0.8121 -589.0114 137.0456)" id="path92">
<path style="stroke: none; stroke-width: 1; stroke-dasharray: none; stroke-linecap: butt; stroke-dashoffset: 0; stroke-linejoin: miter; stroke-miterlimit: 4; is-custom-font: none; font-file-url: none; fill: rgb(41,61,155); fill-rule: nonzero; opacity: 1;" transform=" translate(-813.9, -337.45)" d="M 858.7 267.5 l -50.6 46.8 l -11.5 10.8 l -6.4 -10.6 c -11 -18.3 -23.4 -35.5 -36.7 -51.5 l -17.2 15.6 c 23.3 28.1 42.3 59.7 56.2 93.9 c 5.3 12.9 9.7 26 13.4 39.4 l 27.5 -70.7 l 58.1 -8.1 c -0.1 -0.2 -0.2 -0.5 -0.3 -0.7 l -32.5 -64.9" stroke-linecap="round"/>
</g>
		<g transform="matrix(0.8121 0 0 -0.8121 -844.465 119.1661)" id="path94">
<path style="stroke: none; stroke-width: 1; stroke-dasharray: none; stroke-linecap: butt; stroke-dashoffset: 0; stroke-linejoin: miter; stroke-miterlimit: 4; is-custom-font: none; font-file-url: none; fill: rgb(255,255,255); fill-rule: nonzero; opacity: 1;" transform=" translate(-499.35, -359.4677)" d="M 463.5 362.7 c 20.3 -10.2 37.8 -15.2 48.3 -14.5 h 1.4 c 3.6 0.3 8.2 1.3 11.7 3.4 c 3.2 1.9 5.3 3.9 7.1 6.5 c 2.1 3.1 3 5.7 3.2 8.9 c -1.3 -0.5 -2.6 -0.9 -3.8 -1.2 c -0.3 -0.1 -1.1 -0.2 -1.5 -0.3 c -11.8 -1.8 -26.6 -0.2 -47 5.3 c -3.3 -3.7 -10.2 -5.8 -17.5 -4.1 c -0.7 -1.3 -1.3 -2.6 -1.9 -4" stroke-linecap="round"/>
</g>
		<g transform="matrix(0.8121 0 0 -0.8121 -822.5784 1.5427)" id="path96">
<path style="stroke: none; stroke-width: 1; stroke-dasharray: none; stroke-linecap: butt; stroke-dashoffset: 0; stroke-linejoin: miter; stroke-miterlimit: 4; is-custom-font: none; font-file-url: none; fill: rgb(255,255,255); fill-rule: nonzero; opacity: 1;" transform=" translate(-526.3, -504.3)" d="M 492.4 474.3 c -0.5 -1.3 -1.1 -2.5 -1.8 -3.8 c -3 -5.3 -7.2 -9.2 -11.4 -11.2 c 0 -1.3 0.1 -2.7 0.1 -4 c 8.7 3.8 17.6 8.2 26.5 12.9 c 32.8 17.6 55.9 37.1 63.1 51 c 0.2 0.3 0.6 1.1 0.8 1.5 c 2 3.8 3.7 9 3.7 13.8 c 0 8 -3.4 15.1 -8.6 18.8 c -6.8 -15.8 -19.2 -33.6 -36.2 -50.3 c -11.6 -11.4 -24 -21.1 -36.2 -28.7" stroke-linecap="round"/>
</g>
		<g transform="matrix(0.8121 0 0 -0.8121 -833.7215 98.2052)" id="path98">
<path style="stroke: none; stroke-width: 1; stroke-dasharray: none; stroke-linecap: butt; stroke-dashoffset: 0; stroke-linejoin: miter; stroke-miterlimit: 4; is-custom-font: none; font-file-url: none; fill: rgb(255,255,255); fill-rule: nonzero; opacity: 1;" transform=" translate(-512.579, -385.2775)" d="M 487.9 391.5 c -2.9 -3.2 -7.9 -6.1 -13.7 -6.6 c -1.2 -0.1 -2.3 -0.2 -3.4 -0.1 c -0.3 -1.2 -0.7 -2.4 -1.1 -3.5 c 29.5 -8.2 54.1 -10 66.7 -6 c 0.3 0.1 1.1 0.3 1.4 0.4 c 3.6 1.2 8.1 3.4 11.1 6.4 c 2.7 2.8 4.4 5.3 5.6 8.5 c 1.3 3.6 0.9 6.7 0.9 6.7 c -1.2 -0.9 -7.4 -2.8 -7.4 -2.8 c -11.5 -4.2 -31.2 -5.1 -60.1 -3" stroke-linecap="round"/>
</g>
		<g transform="matrix(0.8121 0 0 -0.8121 -821.401 48.7686)" id="path100">
<path style="stroke: none; stroke-width: 1; stroke-dasharray: none; stroke-linecap: butt; stroke-dashoffset: 0; stroke-linejoin: miter; stroke-miterlimit: 4; is-custom-font: none; font-file-url: none; fill: rgb(255,255,255); fill-rule: nonzero; opacity: 1;" transform=" translate(-527.75, -446.15)" d="M 571.1 468 c -10.9 -12 -38.9 -25.3 -76.1 -34.2 c -2.4 -3.8 -6.8 -7.3 -12.4 -9.4 c -1.6 -0.6 -3.2 -1 -4.8 -1.3 c -0.1 -1.3 -0.3 -2.4 -0.4 -3.7 c 2.9 0.1 5.9 0.2 8.8 0.4 c 37.2 2.1 66.4 10 78.8 19.6 c 0.3 0.2 1 0.8 1.3 1 c 3.3 2.6 7.2 6.6 9.2 10.9 c 1.8 3.9 2.5 7.2 2.6 10.9 c 0 4.3 -0.8 7.4 -2.7 10.7 c -1 -1.3 -2 -2.6 -2.9 -3.7 c -0.4 -0.2 -1.1 -0.9 -1.4 -1.2" stroke-linecap="round"/>
</g>
		<g transform="matrix(0.8121 0 0 -0.8121 -880.5013 140.4384)" id="path102">
<path style="stroke: none; stroke-width: 1; stroke-dasharray: none; stroke-linecap: butt; stroke-dashoffset: 0; stroke-linejoin: miter; stroke-miterlimit: 4; is-custom-font: none; font-file-url: none; fill: rgb(255,255,255); fill-rule: nonzero; opacity: 1;" transform=" translate(-454.9784, -333.2742)" d="M 506.7 338.6 c -11.7 0.3 -28.6 5.6 -48.2 15.4 c -0.9 -1.5 -1.8 -3 -2.8 -4.4 c 15.1 -7.9 28.8 -13.3 39.9 -15.9 c -0.5 -0.6 -1.1 -1.2 -1.8 -1.8 c -2.3 -2.2 -4.8 -3.6 -8.3 -4.8 c -3.8 -1.3 -8.6 -1.2 -12.2 -0.6 c -0.3 0 -1.1 0.2 -1.4 0.3 c -6.6 1.1 -15.4 5 -25.4 11.4 c -1.2 -1.2 -2.4 -2.3 -3.5 -3.4 c 10.4 -6.9 19.7 -11.5 27.1 -13.3 c -1.9 -1.5 -3.8 -2.4 -6.6 -3.2 c -3.2 -0.9 -7.1 -0.6 -10.1 0 c -0.3 0 -0.9 0.2 -1.1 0.3 c -5.1 1.1 -11.6 4.4 -19 9.5 c -1.7 -0.8 -3.4 -1.6 -5 -2.2 c -3.2 -0.9 -7.6 -1.8 -10.9 -1.8 c -9.8 0 -19.2 4.5 -27.5 12.5 c -0.3 0.3 -2.8 -2.2 -2.4 -2.5 c 8.2 -9 19 -14.1 29.7 -14.1 c 3.5 0 11.9 1.2 15 3.1 c 8.8 -6.1 15.9 -9 21.8 -10 c 0.3 0 1 -0.2 1.3 -0.2 c 3.2 -0.5 7.5 -0.6 11 0.6 c 3.2 1 5.4 2.4 7.5 4.3 c 0.9 0.8 1.7 1.7 2.3 2.5 c 3.7 -0.4 8.2 -0.3 11.9 0.9 c 3.9 1.3 6.6 2.9 9.2 5.3 c 2.1 2 4.2 3.8 5.2 5.9 c 5.8 -0.2 10.3 0.7 10.3 0.7 c 2.2 0.3 4.7 1.1 6.7 2.9 c 1.5 1.3 2.5 2.6 3.1 4.2 c -4.6 -1.3 -9.6 -1.8 -13.7 -1.7 c -0.4 0 -1.6 0.1 -2.1 0.1" stroke-linecap="round"/>
</g>
		<g transform="matrix(0.8121 0 0 -0.8121 -821.2513 26.8003)" id="path104">
<path style="stroke: none; stroke-width: 1; stroke-dasharray: none; stroke-linecap: butt; stroke-dashoffset: 0; stroke-linejoin: miter; stroke-miterlimit: 4; is-custom-font: none; font-file-url: none; fill: rgb(255,255,255); fill-rule: nonzero; opacity: 1;" transform=" translate(-527.9343, -473.2)" d="M 525.5 469.9 c -9.4 -5.7 -18.9 -10.7 -28.4 -14.7 c -1.1 -1.8 -2.4 -3.7 -4 -5.4 c -4.2 -4.7 -9.3 -7.7 -14 -8.8 c -0.1 -1.3 -0.1 -2.7 -0.2 -4 c 5.4 1.2 11 2.6 16.5 4.1 c 35.9 9.8 62.8 23.6 73 35.6 c 0.2 0.3 0.9 0.9 1.1 1.2 c 2.7 3.2 5.7 8 6.7 12.6 c 1.8 7.8 0.4 14.1 -3.8 18.9 c -10.1 -13.8 -26.6 -27 -46.9 -39.5" stroke-linecap="round"/>
</g>
		<g transform="matrix(0.8121 0 0 -0.8121 -824.6912 72.047)" id="path106">
<path style="stroke: none; stroke-width: 1; stroke-dasharray: none; stroke-linecap: butt; stroke-dashoffset: 0; stroke-linejoin: miter; stroke-miterlimit: 4; is-custom-font: none; font-file-url: none; fill: rgb(255,255,255); fill-rule: nonzero; opacity: 1;" transform=" translate(-523.6986, -417.4869)" d="M 568.3 433.7 c -0.3 -0.3 -1.2 -0.9 -1.5 -1.1 c -11.9 -9.2 -38.3 -16.6 -72.6 -19.5 c -2.3 -2.2 -5.2 -4.8 -8.5 -6.4 c -3.6 -1.7 -7.3 -2.7 -10.7 -2.9 c -0.2 -1.3 -0.5 -2.1 -0.8 -3.4 c 0.2 0 0.4 0 0.7 -0.1 c 37 -4.4 67.1 -1.7 81 5.6 c 0.3 0.2 1.2 0.6 1.5 0.7 c 3.8 2 8.2 5.3 11 9.2 c 2.5 3.5 3.8 6.7 4.4 10.3 c 0.7 4.2 0.5 7.1 -0.8 10.7 c -1.3 -1.2 -2.6 -2.2 -3.7 -3.1" stroke-linecap="round"/>
</g>
		<g transform="matrix(0.8121 0 0 -0.8121 -828.5244 -22.9838)" id="path108">
<path style="stroke: none; stroke-width: 1; stroke-dasharray: none; stroke-linecap: butt; stroke-dashoffset: 0; stroke-linejoin: miter; stroke-miterlimit: 4; is-custom-font: none; font-file-url: none; fill: rgb(255,255,255); fill-rule: nonzero; opacity: 1;" transform=" translate(-518.9784, -534.5)" d="M 493.2 503.9 c 0 -4.4 -1.4 -9.5 -4.1 -14.3 c -3 -5.2 -7.1 -9.1 -11.2 -11.2 c 0.1 -1.4 0.3 -2.8 0.4 -4.2 c 14.7 8.1 29.9 19.3 43.9 33 c 16.7 16.4 28.8 33.7 35.4 49.2 c 1.8 4.2 2.7 9.4 2.4 14.9 c -0.8 11.2 -6.6 20.5 -14.1 23.5 c 0.1 -2.1 0 -4.4 -0.3 -6.6 c -1.6 -15.6 -16.1 -42.3 -40.2 -70.6 c -4 -4.7 -8 -9.3 -12.2 -13.7" stroke-linecap="round"/>
</g>
		<g transform="matrix(0.8121 0 0 -0.8121 -838.4978 -39.6324)" id="path110">
<path style="stroke: none; stroke-width: 1; stroke-dasharray: none; stroke-linecap: butt; stroke-dashoffset: 0; stroke-linejoin: miter; stroke-miterlimit: 4; is-custom-font: none; font-file-url: none; fill: rgb(255,255,255); fill-rule: nonzero; opacity: 1;" transform=" translate(-506.6975, -555)" d="M 499.2 521.4 c 23.8 28.6 37.9 55.5 39.4 71.1 c 1.2 9.8 -1.3 18.8 -6.8 22 c -0.4 -13.9 -19.3 -47.8 -49.2 -85.7 c 2.8 -5.3 1.5 -14.1 -3 -21.9 c -1.5 -2.6 -2.4 -3.5 -5.1 -6.2 c 0.4 -1.7 0.7 -3.5 1 -5.2 c 7.9 7.8 16 16.7 23.7 25.9" stroke-linecap="round"/>
</g>
		<g transform="matrix(0.8121 0 0 -0.8121 -994.8859 16.5432)" id="path112">
<path style="stroke: none; stroke-width: 1; stroke-dasharray: none; stroke-linecap: butt; stroke-dashoffset: 0; stroke-linejoin: miter; stroke-miterlimit: 4; is-custom-font: none; font-file-url: none; fill: rgb(35,31,32); fill-rule: nonzero; opacity: 1;" transform=" translate(-314.1309, -485.8304)" d="M 310.5 505.2 c -0.7 0.3 -1.5 0.5 -2.2 0.8 c 0.3 -3.3 0.3 -6.9 0.3 -10.6 c -0.1 -9.2 -1.3 -17.9 -3.1 -25.1 c -0.5 -1.9 0.4 -3.8 2 -4.4 c 0.5 -0.2 1.1 -0.3 1.6 -0.2 v 0.1 c 2.9 6.7 6.7 14.1 11.3 21.6 c 0.8 1.4 1.7 2.8 2.5 4.1 c -1.5 5.8 -5.9 11.1 -12.4 13.7" stroke-linecap="round"/>
</g>
		<g transform="matrix(0.8121 0 0 -0.8121 -887.7874 59.768)" id="path114">
<path style="stroke: none; stroke-width: 1; stroke-dasharray: none; stroke-linecap: butt; stroke-dashoffset: 0; stroke-linejoin: miter; stroke-miterlimit: 4; is-custom-font: none; font-file-url: none; fill: rgb(35,31,32); fill-rule: nonzero; opacity: 1;" transform=" translate(-446.0093, -432.6)" d="M 566.3 440.4 c -0.3 -0.2 -1 -0.7 -1.3 -1 c -12.4 -9.6 -41.6 -17.5 -78.8 -19.6 c -2.9 -0.2 -5.9 -0.3 -8.8 -0.4 c 0.1 1.2 0.3 2.4 0.4 3.7 c 1.6 0.3 3.2 0.7 4.8 1.3 c 5.6 2 10 5.6 12.4 9.4 c 37.2 8.9 65.2 22.2 76.1 34.2 c 0.3 0.3 0.9 1 1.2 1.3 c 1 1.1 2 2.3 2.9 3.7 c 1.9 -3.2 2.8 -6.4 2.7 -10.7 c 0 -3.7 -0.8 -7 -2.6 -10.9 c -1.8 -4.3 -5.7 -8.4 -9 -11 z m 3.3 80.3 c -0.2 -0.3 -0.6 -1.1 -0.8 -1.5 c -7.2 -13.9 -30.3 -33.5 -63.1 -51 c -8.8 -4.8 -17.7 -9.1 -26.5 -12.9 c 0 1.4 0 2.7 -0.1 4 c 4.2 2.1 8.4 6 11.4 11.2 c 0.7 1.3 1.3 2.5 1.8 3.8 c 12.3 7.6 24.6 17.3 36.2 28.6 c 17 16.7 29.4 34.5 36.2 50.3 c 5.1 -3.8 8.6 -10.8 8.6 -18.8 c 0 -4.7 -1.7 -10 -3.7 -13.7 z m 6.6 -30.2 c -1.1 -4.6 -4 -9.3 -6.7 -12.6 c -0.2 -0.3 -0.8 -1 -1.1 -1.2 c -10.1 -11.9 -37.1 -25.8 -73 -35.6 c -5.5 -1.5 -11 -2.9 -16.5 -4.1 c 0.1 1.3 0.1 2.6 0.2 4 c 4.7 1.1 9.8 4.1 14 8.8 c 1.6 1.7 2.9 3.6 4 5.4 c 9.5 4 19 8.9 28.4 14.7 c 20.3 12.5 36.8 25.7 47 39.5 c 4.1 -4.8 5.5 -11 3.7 -18.9 z m -30.3 104.3 c 7.4 -3.1 13.3 -12.4 14.1 -23.5 c 0.4 -5.5 -0.5 -10.6 -2.4 -14.9 c -6.6 -15.4 -18.8 -32.8 -35.4 -49.2 c -13.9 -13.7 -29.2 -24.9 -43.9 -33 c -0.1 1.4 -0.3 2.8 -0.4 4.2 c 4.2 2.1 8.2 6 11.2 11.2 c 2.8 4.8 4.2 9.9 4.1 14.3 c 4.1 4.4 8.2 9 12.2 13.7 c 24.2 28.3 38.6 55 40.2 70.6 c 0.3 2.2 0.4 4.4 0.3 6.6 z m -7.3 -2.3 c -1.4 -15.6 -15.5 -42.5 -39.4 -71.1 c -7.7 -9.3 -15.8 -18.1 -23.8 -26 c -0.3 1.7 -0.6 3.5 -1 5.2 c 2.7 2.7 3.6 3.6 5.1 6.2 c 4.6 7.8 5.8 16.6 3 21.9 c 29.9 37.9 48.8 71.8 49.2 85.7 c 5.6 -3.1 8.1 -12.1 6.9 -21.9 z m -25.4 -244.2 h -1.4 c -10.5 -0.7 -28 4.4 -48.3 14.5 c 0.6 1.3 1.3 2.6 1.9 4 c 7.3 -1.7 14.2 0.3 17.5 4.1 c 20.4 -5.5 35.2 -7.1 47 -5.3 c 0.3 0.1 1.1 0.2 1.5 0.3 c 1.2 0.3 2.5 0.7 3.8 1.2 c -0.2 -3.2 -1.1 -5.8 -3.2 -8.9 c -1.8 -2.6 -3.9 -4.6 -7.1 -6.5 c -3.5 -2.2 -8.1 -3.2 -11.7 -3.4 z m -0.5 -15.2 s -4.5 -1 -10.3 -0.7 c -1 -2.2 -3 -4 -5.2 -5.9 c -2.6 -2.4 -5.3 -4 -9.2 -5.3 c -3.7 -1.2 -8.2 -1.3 -11.9 -0.9 c -0.6 -0.8 -1.5 -1.7 -2.3 -2.5 c -2.1 -2 -4.4 -3.3 -7.5 -4.3 c -3.5 -1.1 -7.8 -1.1 -11 -0.6 c -0.3 0 -1 0.2 -1.3 0.2 c -5.8 1 -13 3.9 -21.8 10 c -3.1 -1.9 -11.5 -3.1 -15 -3.1 c -10.7 0 -21.4 5.1 -29.7 14.1 c -0.3 0.3 2.1 2.8 2.4 2.5 c 8.3 -8 17.6 -12.5 27.5 -12.5 c 3.3 0 7.8 0.9 10.9 1.8 c 1.7 0.6 3.4 1.3 5 2.2 c 7.4 -5.1 13.9 -8.4 19 -9.5 c 0.3 0 0.9 -0.2 1.1 -0.3 c 2.9 -0.6 6.8 -0.9 10.1 0 c 2.7 0.8 4.6 1.7 6.6 3.2 c -7.3 1.9 -16.7 6.4 -27.1 13.3 c 1.2 1.1 2.4 2.2 3.5 3.4 c 10 -6.4 18.8 -10.3 25.4 -11.4 c 0.3 -0.1 1.1 -0.2 1.4 -0.3 c 3.6 -0.6 8.3 -0.7 12.2 0.6 c 3.5 1.2 6 2.6 8.3 4.8 c 0.7 0.6 1.2 1.2 1.8 1.8 c -11.2 2.6 -24.8 8 -39.9 15.9 c 1 1.4 1.9 2.9 2.8 4.4 c 19.7 -9.8 36.5 -15.1 48.2 -15.4 c 0.5 0 1.7 -0.1 2.2 -0.1 c 4.1 -0.1 9.1 0.4 13.7 1.7 c -0.6 -1.6 -1.6 -2.8 -3.1 -4.2 c -2.2 -1.8 -4.6 -2.5 -6.8 -2.9 z m 41.8 57.5 c -1.2 -3.2 -2.8 -5.7 -5.6 -8.5 c -3 -3 -7.5 -5.2 -11.1 -6.4 c -0.3 -0.1 -1.1 -0.3 -1.4 -0.4 c -12.6 -4 -37.2 -2.3 -66.7 6 c 0.4 1.2 0.8 2.3 1.1 3.5 c 1.1 0 2.2 0 3.4 0.1 c 5.9 0.5 10.9 3.4 13.7 6.6 c 28.8 -2.1 48.6 -1.3 60.1 3 c 0 0 6.1 2 7.4 2.8 c 0 0 0.5 -3.1 -0.9 -6.7 z m 18.2 35.5 c -0.7 -3.6 -2 -6.8 -4.4 -10.3 c -2.7 -3.9 -7.2 -7.2 -11 -9.2 c -0.3 -0.2 -1.1 -0.5 -1.5 -0.7 c -13.8 -7.3 -44 -10 -81 -5.6 c -0.2 0 -0.4 0 -0.7 0.1 c 0.3 1.3 0.5 2.1 0.8 3.4 c 3.4 0.3 7.1 1.3 10.7 2.9 c 3.3 1.6 6.2 4.2 8.5 6.4 c 34.2 2.9 60.7 10.3 72.6 19.5 c 0.3 0.2 1.2 0.9 1.5 1.1 c 1.2 0.9 2.4 1.9 3.6 3 c 1.4 -3.5 1.6 -6.4 0.9 -10.6 z m 15.1 36.9 c -0.4 5.8 -2.2 11.2 -5 15.6 c 3.5 5.1 5.3 11.6 5 18.9 c -0.2 7.9 -3.1 15.2 -7.5 20.6 c 2.8 5 4.3 11 4.1 17.7 c -0.4 11.9 -6.1 22.2 -14.4 27.6 c 0.3 2.3 0.4 4.5 0.3 6.9 c -0.5 17.8 -8.2 29.1 -20.6 33.9 c -2.6 12.8 -11.2 24.6 -18.9 30.4 c -9.3 -39.7 -38.8 -77.8 -49.4 -92.8 c -17.1 -24.2 -21.1 -47.3 -30.6 -75 c -11.2 -32.8 -19.1 -67.6 -49.1 -88.3 c 0 3.3 0.2 6.6 0.6 10.1 c 4.9 44.7 41 117.4 28 159.8 c -0.8 2.6 -1.7 5.1 -2.8 7.5 c -12.9 29.1 -42.1 33.6 -72.1 20.1 c -18.7 -8.4 -38.1 -15.5 -47 -35.9 c -3.6 -8.2 -4.9 -16.6 -4 -23.8 c 0.2 -1.6 1 -2.9 2.4 -3.4 c 1.9 -0.6 4 0.5 5.1 2.5 c 0.8 1.4 1.4 3.4 1.5 5.6 v 0.3 c 0 0.5 0.1 1 0.3 1.5 c 0.9 2.3 3.4 3.5 5.6 2.6 c 2.1 -0.9 3.1 -3.5 2.2 -5.8 c -0.2 -0.4 -0.4 -0.8 -0.6 -1.1 c -0.5 -0.7 -1.1 -1.6 -1.6 -2.5 c -1.1 -2.1 -1.8 -4.1 -2.1 -5.8 c -0.3 -2.4 1 -4.8 3.3 -5.8 l 0.6 -0.3 c 8.5 -3.5 18.6 1 24.6 9.9 c 2.2 3.4 4.3 7.2 6.2 11.3 c 3 6.4 2.8 13 7.7 18.7 c 8.2 9.5 32.1 15.8 42.5 3.1 c 20.2 -24.5 -2.3 -56.3 -16.3 -77.2 c -17.7 -26.3 -42.2 -56.4 -54.6 -86 c -32.3 -77.4 22.8 -153.3 111.7 -153.3 c 56.4 0 91.7 24.6 111.7 54 c -38.6 3 -59.5 27.9 -59.5 27.9 s 7.7 0.8 12.7 9.2 c 0 0 3.6 0.4 6.8 0.8 c 7.8 1 14.9 5 17.9 13.7 c 2.5 7.3 2.7 11.9 2.7 11.9 s 5.2 2.2 8.2 9.2 c 1.7 4 2.2 5.9 2.2 10 c 8.9 3 15.7 10.7 19.5 20.4 c 2 5.2 2.4 7.6 1.9 12.6 c 10 5 17.6 19.3 17.2 30.9 c -0.1 3.9 -1.1 7.5 -2.6 10.9 c 4.5 5.2 6.8 12.5 6.2 20.9" stroke-linecap="round"/>
</g>
		<g transform="matrix(0.8121 0 0 -0.8121 -820.1251 -296.3448)" id="path116">
<path style="stroke: none; stroke-width: 1; stroke-dasharray: none; stroke-linecap: butt; stroke-dashoffset: 0; stroke-linejoin: miter; stroke-miterlimit: 4; is-custom-font: none; font-file-url: none; fill: rgb(41,61,155); fill-rule: nonzero; opacity: 1;" transform=" translate(-529.3196, -871.1)" d="M 538.9 855.6 h -19.4 v 31 h 19 c 0.2 -0.5 0.3 -1.5 0.3 -2.8 c 0 -1 -0.1 -1.9 -0.3 -2.8 H 526 v -6.7 h 10.5 c 0.2 -0.5 0.3 -1.4 0.3 -2.7 c 0 -1 -0.1 -1.8 -0.3 -2.8 H 526 v -7.6 h 12.8 c 0.2 -0.5 0.3 -1.5 0.3 -2.8 c 0.1 -1 0 -1.9 -0.2 -2.8" stroke-linecap="round"/>
</g>
		<g transform="matrix(0.8121 0 0 -0.8121 -799.0258 -296.2636)" id="path118">
<path style="stroke: none; stroke-width: 1; stroke-dasharray: none; stroke-linecap: butt; stroke-dashoffset: 0; stroke-linejoin: miter; stroke-miterlimit: 4; is-custom-font: none; font-file-url: none; fill: rgb(41,61,155); fill-rule: nonzero; opacity: 1;" transform=" translate(-555.3, -871)" d="M 553.5 881.4 c -1 0 -2.2 0 -3 -0.1 v -9.2 h 2.3 c 3.8 0 5.4 1.4 5.4 4.8 s -1.7 4.5 -4.7 4.5 z m 13.2 -25.8 c -1.2 -0.2 -2.4 -0.3 -3.9 -0.3 c -1.3 0 -2.6 0 -3.4 0.2 l -6.3 11.1 h -2.7 v -11.1 c -1.1 -0.2 -2.1 -0.2 -3.3 -0.2 c -1.1 0 -2.1 0 -3.2 0.2 v 31 c 2.1 0.1 6.5 0.2 9.2 0.2 c 7.8 0 11.7 -2.8 11.7 -9.9 c 0 -3.8 -2.3 -7.6 -5.5 -9 l 7.4 -12.2" stroke-linecap="round"/>
</g>
		<g transform="matrix(0.8121 0 0 -0.8121 -779.1126 -296.3448)" id="path120">
<path style="stroke: none; stroke-width: 1; stroke-dasharray: none; stroke-linecap: butt; stroke-dashoffset: 0; stroke-linejoin: miter; stroke-miterlimit: 4; is-custom-font: none; font-file-url: none; fill: rgb(41,61,155); fill-rule: nonzero; opacity: 1;" transform=" translate(-579.8196, -871.1)" d="M 589.4 855.6 H 570 v 31 h 19 c 0.2 -0.5 0.3 -1.5 0.3 -2.8 c 0 -1 -0.1 -1.9 -0.3 -2.8 h -12.4 v -6.7 H 587 c 0.2 -0.5 0.3 -1.4 0.3 -2.7 c 0 -1 -0.1 -1.8 -0.3 -2.8 h -10.5 v -7.6 h 12.8 c 0.2 -0.5 0.3 -1.5 0.3 -2.8 c 0.1 -1 0 -1.9 -0.2 -2.8" stroke-linecap="round"/>
</g>
		<g transform="matrix(0.8121 0 0 -0.8121 -819.4907 -261.5857)" id="path122">
<path style="stroke: none; stroke-width: 1; stroke-dasharray: none; stroke-linecap: butt; stroke-dashoffset: 0; stroke-linejoin: miter; stroke-miterlimit: 4; is-custom-font: none; font-file-url: none; fill: rgb(41,61,155); fill-rule: nonzero; opacity: 1;" transform=" translate(-530.1008, -828.3)" d="M 529.1 838.6 c -0.9 0 -2.1 0 -3 -0.1 v -9.1 h 2.8 c 3.5 0 5.4 0.9 5.4 4.7 c 0 3.2 -1.6 4.5 -5.2 4.5 z m 0.1 -14.7 H 526 v -11.1 c -0.9 -0.1 -1.9 -0.2 -3.3 -0.2 c -1.2 0 -2.4 0.1 -3.3 0.2 v 30.9 c 2.7 0.1 6.7 0.3 9.3 0.3 c 7 0 12.1 -2.4 12.1 -9.7 c 0.1 -7.1 -4.4 -10.4 -11.6 -10.4" stroke-linecap="round"/>
</g>
		<g transform="matrix(0.8121 0 0 -0.8121 -799.4724 -261.5857)" id="path124">
<path style="stroke: none; stroke-width: 1; stroke-dasharray: none; stroke-linecap: butt; stroke-dashoffset: 0; stroke-linejoin: miter; stroke-miterlimit: 4; is-custom-font: none; font-file-url: none; fill: rgb(41,61,155); fill-rule: nonzero; opacity: 1;" transform=" translate(-554.75, -828.3)" d="M 564.3 812.8 h -19.4 v 31 h 19 c 0.2 -0.5 0.3 -1.5 0.3 -2.8 c 0 -1 -0.1 -1.9 -0.3 -2.8 h -12.4 v -6.7 H 562 c 0.2 -0.5 0.3 -1.4 0.3 -2.7 c 0 -1 -0.1 -1.8 -0.3 -2.8 h -10.5 v -7.6 h 12.8 c 0.2 -0.5 0.3 -1.5 0.3 -2.8 c 0 -0.9 -0.1 -1.8 -0.3 -2.8" stroke-linecap="round"/>
</g>
		<g transform="matrix(0.8121 0 0 -0.8121 -778.7226 -261.5857)" id="path126">
<path style="stroke: none; stroke-width: 1; stroke-dasharray: none; stroke-linecap: butt; stroke-dashoffset: 0; stroke-linejoin: miter; stroke-miterlimit: 4; is-custom-font: none; font-file-url: none; fill: rgb(41,61,155); fill-rule: nonzero; opacity: 1;" transform=" translate(-580.3, -828.3)" d="M 578.4 838.7 c -1 0 -2.2 -0.1 -3 -0.1 v -9.2 h 2.3 c 3.8 0 5.4 1.4 5.4 4.8 s -1.7 4.5 -4.7 4.5 z m 13.3 -25.8 c -1.2 -0.2 -2.4 -0.3 -3.9 -0.3 c -1.3 0 -2.6 0 -3.4 0.2 l -6.3 11.1 h -2.7 v -11.1 c -1.1 -0.2 -2.1 -0.2 -3.3 -0.2 c -1.1 0 -2.1 0 -3.2 0.2 v 31 c 2.1 0.1 6.5 0.2 9.2 0.2 c 7.8 0 11.7 -2.8 11.7 -9.9 c 0 -3.8 -2.3 -7.6 -5.5 -9 l 7.4 -12.2" stroke-linecap="round"/>
</g>
		<g transform="matrix(0.8121 0 0 -0.8121 -721.021 -296.3448)" id="path128">
<path style="stroke: none; stroke-width: 1; stroke-dasharray: none; stroke-linecap: butt; stroke-dashoffset: 0; stroke-linejoin: miter; stroke-miterlimit: 4; is-custom-font: none; font-file-url: none; fill: rgb(41,61,155); fill-rule: nonzero; opacity: 1;" transform=" translate(-651.35, -871.1)" d="M 654.9 867.3 l -2.7 8.8 c -0.3 1 -0.6 2.3 -0.9 3.7 h -0.1 c -0.2 -1.4 -0.6 -2.7 -0.9 -3.7 l -2.6 -8.8 h 7.2 z m 10.9 -11.7 c -0.6 -0.1 -2 -0.2 -3.5 -0.2 c -1.2 0 -2.6 0.1 -3.2 0.2 l -2.3 6.3 h -11 l -2.2 -6.3 c -1 -0.1 -2.2 -0.2 -3.4 -0.2 c -1.2 0 -2.6 0.1 -3.3 0.2 l 10.8 31 c 0.6 0.1 2.2 0.2 3.2 0.2 c 1.2 0 2.7 -0.1 3.2 -0.2 l 11.7 -31" stroke-linecap="round"/>
</g>
		<g transform="matrix(0.8121 0 0 -0.8121 -697.7534 -296.2636)" id="path130">
<path style="stroke: none; stroke-width: 1; stroke-dasharray: none; stroke-linecap: butt; stroke-dashoffset: 0; stroke-linejoin: miter; stroke-miterlimit: 4; is-custom-font: none; font-file-url: none; fill: rgb(41,61,155); fill-rule: nonzero; opacity: 1;" transform=" translate(-680, -871)" d="M 678.1 881.4 c -1 0 -2.2 0 -3 -0.1 v -9.2 h 2.3 c 3.8 0 5.4 1.4 5.4 4.8 s -1.6 4.5 -4.7 4.5 z m 13.3 -25.8 c -1.2 -0.2 -2.4 -0.3 -3.9 -0.3 c -1.3 0 -2.6 0 -3.4 0.2 l -6.3 11.1 h -2.7 v -11.1 c -1.1 -0.2 -2.1 -0.2 -3.3 -0.2 c -1.1 0 -2.1 0 -3.2 0.2 v 31 c 2.1 0.1 6.5 0.2 9.2 0.2 c 7.8 0 11.7 -2.8 11.7 -9.9 c 0 -3.8 -2.3 -7.6 -5.5 -9 l 7.4 -12.2" stroke-linecap="round"/>
</g>
		<g transform="matrix(0.8121 0 0 -0.8121 -729.8325 -261.5045)" id="path132">
<path style="stroke: none; stroke-width: 1; stroke-dasharray: none; stroke-linecap: butt; stroke-dashoffset: 0; stroke-linejoin: miter; stroke-miterlimit: 4; is-custom-font: none; font-file-url: none; fill: rgb(41,61,155); fill-rule: nonzero; opacity: 1;" transform=" translate(-640.5, -828.2)" d="M 651.9 838.2 h -8.2 v -25.4 c -0.9 -0.1 -2.1 -0.2 -3.2 -0.2 s -2.4 0.1 -3.3 0.2 v 25.4 H 629 c -0.2 0.6 -0.3 2 -0.3 2.8 c 0 0.8 0.2 2.2 0.4 2.8 H 652 c 0.2 -0.6 0.3 -2 0.3 -2.8 c -0.1 -0.7 -0.2 -2.2 -0.4 -2.8" stroke-linecap="round"/>
</g>
		<g transform="matrix(0.8121 0 0 -0.8121 -709.4887 -261.5857)" id="path134">
<path style="stroke: none; stroke-width: 1; stroke-dasharray: none; stroke-linecap: butt; stroke-dashoffset: 0; stroke-linejoin: miter; stroke-miterlimit: 4; is-custom-font: none; font-file-url: none; fill: rgb(41,61,155); fill-rule: nonzero; opacity: 1;" transform=" translate(-665.55, -828.3)" d="M 675.1 812.8 h -19.4 v 31 h 19 c 0.2 -0.5 0.3 -1.5 0.3 -2.8 c 0 -1 -0.1 -1.9 -0.3 -2.8 h -12.4 v -6.7 h 10.5 c 0.2 -0.5 0.3 -1.4 0.3 -2.7 c 0 -1 -0.1 -1.8 -0.3 -2.8 h -10.5 v -7.6 h 12.8 c 0.2 -0.5 0.3 -1.5 0.3 -2.8 c 0 -0.9 -0.1 -1.8 -0.3 -2.8" stroke-linecap="round"/>
</g>
		<g transform="matrix(0.8121 0 0 -0.8121 -690.0788 -261.5858)" id="path136">
<path style="stroke: none; stroke-width: 1; stroke-dasharray: none; stroke-linecap: butt; stroke-dashoffset: 0; stroke-linejoin: miter; stroke-miterlimit: 4; is-custom-font: none; font-file-url: none; fill: rgb(41,61,155); fill-rule: nonzero; opacity: 1;" transform=" translate(-689.45, -828.3)" d="M 688.8 812.4 c -3.4 0 -7 0.6 -9.6 1.8 c -0.1 0.6 -0.2 1.5 -0.2 2.2 c 0 1.1 0.1 2.2 0.5 3.4 c 2.7 -1.1 6.3 -1.8 9.1 -1.8 c 3.3 0 5 1.5 5 3.6 c 0 2.3 -1.5 3.3 -5.9 4.6 c -5 1.5 -8.6 3.9 -8.6 9.2 c 0 5.7 4.9 8.8 11.4 8.8 c 3 0 5.6 -0.5 7.4 -1.1 c 0.1 -0.5 0.2 -1.3 0.2 -2.5 c 0 -0.9 -0.1 -2.2 -0.3 -2.9 c -2.3 0.6 -4.9 0.9 -7 0.9 c -3.4 0 -5.3 -1.1 -5.3 -3 c 0 -2.2 1.7 -3 5.8 -4.3 c 4.9 -1.6 8.6 -3.9 8.6 -9.4 c -0.1 -5.9 -4.8 -9.5 -11.1 -9.5" stroke-linecap="round"/>
</g>
		<g transform="matrix(0.8121 0 0 -0.8121 -1080.0626 -296.2636)" id="path138">
<path style="stroke: none; stroke-width: 1; stroke-dasharray: none; stroke-linecap: butt; stroke-dashoffset: 0; stroke-linejoin: miter; stroke-miterlimit: 4; is-custom-font: none; font-file-url: none; fill: rgb(41,61,155); fill-rule: nonzero; opacity: 1;" transform=" translate(-209.25, -871)" d="M 207.5 869.1 c 0.7 -1.9 1.4 -4.1 1.7 -5.9 h 0.1 c 0.3 1.8 1 4 1.7 5.9 l 3.4 9.8 c 0.9 2.5 1.4 4.9 1.4 7.6 c 0.9 0.1 2.2 0.2 3.3 0.2 c 1 0 2.3 -0.1 3.2 -0.2 c 0 -3.1 -0.6 -6 -1.8 -9.3 l -8.3 -21.7 c -0.6 -0.1 -1.8 -0.2 -2.9 -0.2 c -1.2 0 -2.2 0.1 -3.1 0.2 l -8.2 21.6 c -1.2 3.3 -1.8 6.3 -1.8 9.4 c 0.8 0.1 1.9 0.2 3.3 0.2 c 1.1 0 2.4 -0.1 3.2 -0.2 c 0 -2.8 0.5 -5.1 1.4 -7.6 l 3.4 -9.8" stroke-linecap="round"/>
</g>
		<g transform="matrix(0.8121 0 0 -0.8121 -1063.6168 -296.3448)" id="path140">
<path style="stroke: none; stroke-width: 1; stroke-dasharray: none; stroke-linecap: butt; stroke-dashoffset: 0; stroke-linejoin: miter; stroke-miterlimit: 4; is-custom-font: none; font-file-url: none; fill: rgb(41,61,155); fill-rule: nonzero; opacity: 1;" transform=" translate(-229.5, -871.1)" d="M 232.8 855.6 c -0.9 -0.1 -1.9 -0.2 -3.3 -0.2 c -1.2 0 -2.4 0.1 -3.3 0.2 v 31 c 0.9 0.1 2.2 0.2 3.3 0.2 c 1.3 0 2.4 -0.1 3.3 -0.2 v -31" stroke-linecap="round"/>
</g>
		<g transform="matrix(0.8121 0 0 -0.8121 -1048.1866 -296.1824)" id="path142">
<path style="stroke: none; stroke-width: 1; stroke-dasharray: none; stroke-linecap: butt; stroke-dashoffset: 0; stroke-linejoin: miter; stroke-miterlimit: 4; is-custom-font: none; font-file-url: none; fill: rgb(41,61,155); fill-rule: nonzero; opacity: 1;" transform=" translate(-248.5, -870.9)" d="M 259.9 880.9 h -8.2 v -25.4 c -0.9 -0.1 -2.1 -0.2 -3.3 -0.2 c -1.1 0 -2.4 0.1 -3.3 0.2 v 25.4 H 237 c -0.2 0.6 -0.3 2 -0.3 2.8 c 0 0.8 0.2 2.2 0.4 2.8 H 260 c 0.2 -0.6 0.3 -2 0.3 -2.8 c 0 -0.7 -0.2 -2.2 -0.4 -2.8" stroke-linecap="round"/>
</g>
		<g transform="matrix(0.8121 0 0 -0.8121 -1080.956 -261.5857)" id="path144">
<path style="stroke: none; stroke-width: 1; stroke-dasharray: none; stroke-linecap: butt; stroke-dashoffset: 0; stroke-linejoin: miter; stroke-miterlimit: 4; is-custom-font: none; font-file-url: none; fill: rgb(41,61,155); fill-rule: nonzero; opacity: 1;" transform=" translate(-208.15, -828.3)" d="M 211.7 824.6 l -2.7 8.8 c -0.3 1 -0.6 2.3 -0.9 3.7 h -0.1 c -0.2 -1.4 -0.6 -2.7 -0.9 -3.7 l -2.6 -8.8 h 7.2 z m 10.9 -11.8 c -0.6 -0.1 -2 -0.2 -3.5 -0.2 c -1.2 0 -2.6 0.1 -3.2 0.2 l -2.3 6.3 h -11 l -2.2 -6.3 c -1 -0.1 -2.2 -0.2 -3.4 -0.2 c -1.2 0 -2.6 0.1 -3.3 0.2 l 10.8 31 c 0.6 0.1 2.2 0.2 3.2 0.2 c 1.2 0 2.7 -0.1 3.2 -0.2 l 11.7 -31" stroke-linecap="round"/>
</g>
		<g transform="matrix(0.8121 0 0 -0.8121 -1053.6686 -261.5045)" id="path146">
<path style="stroke: none; stroke-width: 1; stroke-dasharray: none; stroke-linecap: butt; stroke-dashoffset: 0; stroke-linejoin: miter; stroke-miterlimit: 4; is-custom-font: none; font-file-url: none; fill: rgb(41,61,155); fill-rule: nonzero; opacity: 1;" transform=" translate(-241.75, -828.2)" d="M 257.6 812.8 c -0.6 -0.1 -1.8 -0.2 -3.1 -0.2 c -1.4 0 -2.7 0.1 -3.2 0.2 l -0.5 18.6 l -6.8 -15.7 c -0.5 -0.2 -1.6 -0.3 -2.3 -0.3 c -0.8 0 -1.8 0.1 -2.3 0.2 l -6.8 15.7 l -0.6 -18.6 c -0.6 -0.1 -2 -0.2 -3.3 -0.2 c -0.7 0 -2 0.1 -2.8 0.2 l 1.3 31 c 0.9 0.1 1.7 0.2 2.7 0.2 c 1.1 0 2.2 -0.1 2.7 -0.2 l 9.1 -21 l 9.1 21 c 0.9 0.1 1.8 0.2 2.7 0.2 c 1.1 0 2 -0.1 2.7 -0.2 l 1.4 -30.9" stroke-linecap="round"/>
</g>
		<g transform="matrix(0.8121 0 0 -0.8121 -994.2207 -296.3448)" id="path148">
<path style="stroke: none; stroke-width: 1; stroke-dasharray: none; stroke-linecap: butt; stroke-dashoffset: 0; stroke-linejoin: miter; stroke-miterlimit: 4; is-custom-font: none; font-file-url: none; fill: rgb(41,61,155); fill-rule: nonzero; opacity: 1;" transform=" translate(-314.95, -871.1)" d="M 324.5 855.6 h -19.4 v 31 h 19 c 0.2 -0.5 0.3 -1.5 0.3 -2.8 c 0 -1 -0.1 -1.9 -0.3 -2.8 h -12.4 v -6.7 h 10.5 c 0.2 -0.5 0.3 -1.4 0.3 -2.7 c 0 -1 -0.1 -1.8 -0.3 -2.8 h -10.5 v -7.6 h 12.8 c 0.2 -0.5 0.3 -1.5 0.3 -2.8 c 0 -1 -0.1 -1.9 -0.3 -2.8" stroke-linecap="round"/>
</g>
		<g transform="matrix(0.8121 0 0 -0.8121 -972.74 -296.3448)" id="path150">
<path style="stroke: none; stroke-width: 1; stroke-dasharray: none; stroke-linecap: butt; stroke-dashoffset: 0; stroke-linejoin: miter; stroke-miterlimit: 4; is-custom-font: none; font-file-url: none; fill: rgb(41,61,155); fill-rule: nonzero; opacity: 1;" transform=" translate(-341.4, -871.1)" d="M 331.7 863.9 l 5.9 8 l -5.4 7.5 c -1.7 2.4 -2.8 4.6 -3.2 7.2 c 0.7 0.1 2.2 0.2 3.2 0.2 c 1.1 0 2.5 -0.1 3.3 -0.2 c 0.2 -2 1.4 -3.7 2.6 -5.4 l 3.2 -4.7 l 3.3 4.6 c 1.1 1.6 2.2 3.5 2.3 5.5 c 0.8 0.1 2.2 0.2 3.3 0.2 c 1 0 2.4 -0.1 3.1 -0.2 c -0.4 -2.9 -1.6 -5.2 -3.4 -7.8 l -4.9 -6.7 l 5.9 -8.2 c 2.1 -2.8 3 -5.6 3.2 -8.3 c -0.8 -0.1 -2.1 -0.2 -3.3 -0.2 c -1 0 -2.3 0.1 -3.2 0.2 c -0.1 2 -0.8 3.9 -2 5.7 l -4.4 6.6 l -4.3 -6.4 c -1.1 -1.7 -1.7 -3.8 -1.7 -5.8 c -0.7 -0.1 -2.3 -0.2 -3.3 -0.2 c -1.1 0 -2.4 0.1 -3.2 0.2 c 0.1 2.6 0.7 5 3 8.2" stroke-linecap="round"/>
</g>
		<g transform="matrix(0.8121 0 0 -0.8121 -952.4773 -296.223)" id="path152">
<path style="stroke: none; stroke-width: 1; stroke-dasharray: none; stroke-linecap: butt; stroke-dashoffset: 0; stroke-linejoin: miter; stroke-miterlimit: 4; is-custom-font: none; font-file-url: none; fill: rgb(41,61,155); fill-rule: nonzero; opacity: 1;" transform=" translate(-366.35, -870.95)" d="M 377.3 880.1 c -2.2 0.7 -5 1.2 -7.1 1.2 c -5.2 0 -8.6 -3.7 -8.6 -10.4 c 0 -6.1 2.7 -10.1 8.6 -10.1 c 2.2 0 4.7 0.5 6.9 1.1 c 0.3 -0.8 0.5 -2.1 0.5 -3.1 c 0 -0.8 0 -1.7 -0.1 -2.2 c -2.3 -1.1 -5.2 -1.6 -7.9 -1.6 c -9.9 0 -14.7 6 -14.7 15.7 c 0 9.4 5.2 16.2 15 16.2 c 2.4 0 5.5 -0.6 7.7 -1.6 c 0.1 -0.5 0.2 -1.5 0.2 -2.1 c -0.2 -1.2 -0.4 -2.6 -0.5 -3.1" stroke-linecap="round"/>
</g>
		<g transform="matrix(0.8121 0 0 -0.8121 -993.774 -261.6264)" id="path154">
<path style="stroke: none; stroke-width: 1; stroke-dasharray: none; stroke-linecap: butt; stroke-dashoffset: 0; stroke-linejoin: miter; stroke-miterlimit: 4; is-custom-font: none; font-file-url: none; fill: rgb(41,61,155); fill-rule: nonzero; opacity: 1;" transform=" translate(-315.5, -828.35)" d="M 315.5 838.6 c -3.9 0 -6.2 -3 -6.2 -10.3 s 2.2 -10.3 6.2 -10.3 c 3.9 0 6.2 3 6.2 10.3 s -2.3 10.3 -6.2 10.3 z m 0 -26.2 c -8.5 0 -13 5.9 -13 15.9 c 0 10.1 4.5 16 13 16 s 13 -5.9 13 -16 c 0 -10 -4.5 -15.9 -13 -15.9" stroke-linecap="round"/>
</g>
		<g transform="matrix(0.8121 0 0 -0.8121 -972.4539 -261.6669)" id="path156">
<path style="stroke: none; stroke-width: 1; stroke-dasharray: none; stroke-linecap: butt; stroke-dashoffset: 0; stroke-linejoin: miter; stroke-miterlimit: 4; is-custom-font: none; font-file-url: none; fill: rgb(41,61,155); fill-rule: nonzero; opacity: 1;" transform=" translate(-341.752, -828.4)" d="M 351.1 812.8 h -19 v 31 c 0.9 0.1 2.1 0.2 3.2 0.2 c 1.3 0 2.5 -0.1 3.3 -0.2 v -25.4 H 351 c 0.2 -0.5 0.3 -1.5 0.3 -2.8 c 0.2 -0.9 0.1 -1.8 -0.2 -2.8" stroke-linecap="round"/>
</g>
		<g transform="matrix(0.8121 0 0 -0.8121 -953.1271 -261.5045)" id="path158">
<path style="stroke: none; stroke-width: 1; stroke-dasharray: none; stroke-linecap: butt; stroke-dashoffset: 0; stroke-linejoin: miter; stroke-miterlimit: 4; is-custom-font: none; font-file-url: none; fill: rgb(41,61,155); fill-rule: nonzero; opacity: 1;" transform=" translate(-365.55, -828.2)" d="M 377.2 824.6 c 0 -7.9 -3 -12.2 -11.8 -12.2 c -8.9 0 -11.7 4.4 -11.7 12.2 v 19.2 c 0.9 0.1 2.1 0.2 3.2 0.2 c 1.3 0 2.4 -0.1 3.4 -0.2 v -19.7 c 0 -4.2 1.2 -6.6 5.2 -6.6 s 5.4 2.4 5.4 6.6 v 19.7 c 0.8 0.1 2.2 0.2 3.3 0.2 c 1 0 2.4 -0.1 3.2 -0.2 v -19.2" stroke-linecap="round"/>
</g>
</g>
</g>
</svg>