<?xml version="1.0" encoding="utf-8"?>
<!-- Generator: Adobe Illustrator 26.0.3, SVG Export Plug-In . SVG Version: 6.00 Build 0)  -->
<svg version="1.0" id="Layer_1" xmlns="http://www.w3.org/2000/svg" xmlns:xlink="http://www.w3.org/1999/xlink" x="0px" y="0px"
	 viewBox="0 0 302 218" style="enable-background:new 0 0 302 218;" xml:space="preserve">
<style type="text/css">
	.st0{clip-path:url(#SVGID_00000116952758404971052780000011883486703361508266_);}
	.st1{fill:#21409A;}
	.st2{clip-path:url(#SVGID_00000093144033568355170900000007633794520399322764_);}
	.st3{clip-path:url(#SVGID_00000096776843124646390480000006328308613753414573_);}
	.st4{clip-path:url(#SVGID_00000077300403564957837510000007408074125071675837_);}
	.st5{clip-path:url(#SVGID_00000176723042471724080160000011710793898486255542_);}
	.st6{clip-path:url(#SVGID_00000104706334080526253040000011764414826245360574_);}
	.st7{clip-path:url(#SVGID_00000133522638665383584360000014548612037258872246_);}
	.st8{fill:#DDB00A;}
	.st9{fill-rule:evenodd;clip-rule:evenodd;fill:#FFFFFF;}
	.st10{fill:#FFFFFF;}
	.st11{fill:none;}
</style>
<g>
	<defs>
		<rect id="SVGID_1_" x="97.9" y="19" width="106.2" height="180"/>
	</defs>
	<clipPath id="SVGID_00000080888143642785294860000001437774249897633172_">
		<use xlink:href="#SVGID_1_"  style="overflow:visible;"/>
	</clipPath>
	<g style="clip-path:url(#SVGID_00000080888143642785294860000001437774249897633172_);">
		<path class="st1" d="M104.3,151.5v1.2c0,0.1-0.1,0.1-0.2,0.1h-0.5c0,0-0.1,0-0.1-0.1l0,0v-0.3H102v6.2h0.3c0.1,0,0.1,0.1,0.1,0.2
			v0.5c0,0.1,0,0.1-0.1,0.1h-1.7c-0.1,0-0.1-0.1-0.1-0.2v-0.5c0,0,0-0.1,0.1-0.1l0,0h0.3v-6.2h-1.4v0.3c0,0.1-0.1,0.1-0.2,0.1h-0.5
			c0,0-0.1,0-0.1-0.1v-1.2L104.3,151.5z"/>
		<path class="st1" d="M111.9,158.6c0.1,0,0.1,0.1,0.1,0.2v0.5c0,0,0,0.1-0.1,0.1c0,0,0,0,0,0h-1.8c-0.1,0-0.1-0.1-0.1-0.2v-0.5
			c0,0,0-0.1,0.1-0.1l0,0h0.3v-2.7h-3.5v2.7h0.3c0.1,0,0.1,0.1,0.1,0.2v0.5c0,0,0,0.1-0.1,0.1c0,0,0,0,0,0h-1.8
			c-0.1,0-0.1-0.1-0.1-0.2v-0.5c0,0,0-0.1,0.1-0.1l0,0h0.3v-6.3h-0.3c-0.1,0-0.1-0.1-0.1-0.2v-0.5c0,0,0-0.1,0.1-0.1c0,0,0,0,0,0
			h1.7c0.1,0,0.1,0.1,0.1,0.2v0.5c0,0,0,0.1-0.1,0.1h0h-0.3v2.6h3.5v-2.6h-0.3c-0.1,0-0.1-0.1-0.1-0.2v-0.5c0,0,0-0.1,0.1-0.1
			c0,0,0,0,0,0h1.7c0.1,0,0.1,0.1,0.1,0.2v0.5c0,0,0,0.1-0.1,0.1h0h-0.3v6.3H111.9z"/>
		<path class="st1" d="M118.3,158C118.4,158,118.4,158,118.3,158C118.4,158.1,118.4,158.1,118.3,158l0.1,1.3h-4.9
			c-0.1,0-0.1-0.1-0.1-0.2v-0.5c0,0,0-0.1,0.1-0.1h0h0.3v-6.3h-0.3c-0.1,0-0.1-0.1-0.1-0.2v-0.5c0,0,0-0.1,0.1-0.1c0,0,0,0,0,0h4.7
			v1.2c0,0.1-0.1,0.1-0.2,0.1h-0.5c0,0-0.1,0-0.1-0.1v-0.3h-2.5v2.4h2.8v0.9h-2.8v2.6h2.7v-0.3c0-0.1,0.1-0.1,0.2-0.1L118.3,158z"/>
		<path class="st1" d="M130,151.5c0.1,0,0.1,0.1,0.1,0.2v0.5c0,0,0,0.1-0.1,0.1l0,0h-0.3l0,0v4.2c0,2.1-0.8,3-2.8,3
			c-2,0-2.8-0.7-2.8-3v-4.2h-0.3c-0.1,0-0.1-0.1-0.1-0.2v-0.5c0,0,0-0.1,0.1-0.1c0,0,0,0,0,0h1.7c0.1,0,0.1,0.1,0.1,0.2v0.5
			c0,0,0,0.1-0.1,0.1h-0.3v4.4c0,1.3,0.4,1.9,1.7,1.9c1.4,0,1.7-0.9,1.7-1.9v-4.4h-0.3c-0.1,0-0.1-0.1-0.1-0.2v-0.5
			c0,0,0-0.1,0.1-0.1c0,0,0,0,0,0H130z"/>
		<path class="st1" d="M138.5,151.5c0.1,0,0.1,0.1,0.1,0.2v0.5c0,0,0,0.1-0.1,0.1h-0.3h-0.1v7.1h-0.8c0,0-0.1,0-0.1-0.1l-4.1-5.8
			v5.1h0.1h0.3c0.1,0,0.1,0.1,0.1,0.2v0.5c0,0.1,0,0.1-0.1,0.1h-1.8c-0.1,0-0.1-0.1-0.1-0.2v-0.5c0,0,0-0.1,0.1-0.1l0,0h0.3v-6.3
			h-0.3c-0.1,0-0.1-0.1-0.1-0.2v-0.5c0,0,0-0.1,0.1-0.1c0,0,0,0,0,0h1.1c0,0,0.1,0,0.1,0.1l4.1,5.7v-5h-0.3c-0.1,0-0.1-0.1-0.1-0.2
			v-0.5c0,0,0-0.1,0.1-0.1c0,0,0,0,0,0L138.5,151.5z"/>
		<path class="st1" d="M142.1,158.6c0.1,0,0.1,0.1,0.1,0.2v0.5c0,0,0,0.1-0.1,0.1c0,0,0,0,0,0h-1.8c-0.1,0-0.1-0.1-0.1-0.2v-0.5
			c0,0,0-0.1,0.1-0.1l0,0h0.3v-6.3h-0.3c-0.1,0-0.1-0.1-0.1-0.2v-0.5c0,0,0-0.1,0.1-0.1c0,0,0,0,0,0h1.7c0.1,0,0.1,0.1,0.1,0.2v0.5
			c0,0,0,0.1-0.1,0.1l0,0h-0.3v6.3H142.1z"/>
		<path class="st1" d="M150.3,151.5c0.1,0,0.1,0.1,0.1,0.2v0.5c0,0,0,0.1-0.1,0.1l0,0H150l-2.5,6.8c0,0.1-0.2,0.2-0.3,0.2h-0.8
			c0,0,0,0-0.1-0.1l-2.6-7h-0.3c-0.1,0-0.1-0.1-0.1-0.2v-0.5c0,0,0-0.1,0.1-0.1c0,0,0,0,0,0h1.8c0.1,0,0.1,0.1,0.1,0.2v0.5
			c0,0,0,0.1-0.1,0.1l0,0h-0.3l2,5.7l0,0l2-5.7h-0.3c-0.1,0-0.1-0.1-0.1-0.2v-0.5c0,0,0-0.1,0.1-0.1c0,0,0,0,0,0L150.3,151.5z"/>
		<path class="st1" d="M156.4,158C156.5,158,156.5,158,156.4,158C156.5,158.1,156.5,158.1,156.4,158l0.1,1.3h-4.9
			c-0.1,0-0.1-0.1-0.1-0.2v-0.5c0,0,0-0.1,0.1-0.1l0,0h0.3v-6.3h-0.3c-0.1,0-0.1-0.1-0.1-0.2v-0.5c0-0.1,0-0.1,0.1-0.1h4.7v1.2
			c0,0.1-0.1,0.1-0.2,0.1h-0.5c0,0-0.1,0-0.1-0.1v-0.3H153v2.4h2.9v0.9H153v2.6h2.7v-0.3c0-0.1,0.1-0.1,0.2-0.1L156.4,158z"/>
		<path class="st1" d="M163.6,158.6c0.1,0,0.1,0.1,0.1,0.2v0.5c0,0.1,0,0.1-0.1,0.1h-1.2l-1.7-3h-1.1v2.3h0.3c0.1,0,0.1,0.1,0.1,0.2
			v0.5c0,0.1,0,0.1-0.1,0.1h-1.7c-0.1,0-0.1-0.1-0.1-0.2v-0.5c0,0,0-0.1,0.1-0.1l0,0h0.3v-6.3h-0.3c-0.1,0-0.1-0.1-0.1-0.2v-0.5
			c0,0,0-0.1,0.1-0.1c0,0,0,0,0,0h2.3c2,0,2.9,0.8,2.9,2.4c0,1-0.6,1.9-1.5,2.3l1.4,2.5L163.6,158.6z M160.4,155.4
			c1.1,0,1.7-0.5,1.7-1.6s-0.6-1.5-1.6-1.5h-1v3L160.4,155.4z"/>
		<path class="st1" d="M169.9,157.2c0,1.3-0.9,2.2-2.7,2.2c-0.8,0-1.5-0.1-2.3-0.4v-1.2c0-0.1,0.1-0.1,0.2-0.1h0.6
			c0,0,0.1,0,0.1,0.1v0.5c0.4,0.1,0.8,0.2,1.3,0.2c0.9,0,1.6-0.3,1.6-1.2s-0.3-1.1-1.9-1.6c-1.1-0.4-1.9-1-1.9-2.1
			c0-1.3,1-2.1,2.7-2.1c0.6,0,1.2,0.1,1.8,0.2v1.4c0,0.1-0.1,0.1-0.2,0.1h-0.6c0,0-0.1,0-0.1-0.1v-0.6c-0.3,0-0.5,0-0.8-0.1
			c-0.9,0-1.6,0.4-1.6,1.1s0.4,1,1.8,1.5S169.9,156.3,169.9,157.2"/>
		<path class="st1" d="M173.1,158.6c0.1,0,0.1,0.1,0.1,0.2v0.5c0,0,0,0.1-0.1,0.1c0,0,0,0,0,0h-1.7c-0.1,0-0.1-0.1-0.1-0.2v-0.5
			c0,0,0-0.1,0.1-0.1l0,0h0.3v-6.3h-0.3c-0.1,0-0.1-0.1-0.1-0.2v-0.5c0,0,0-0.1,0.1-0.1c0,0,0,0,0,0h1.7c0.1,0,0.1,0.1,0.1,0.2v0.5
			c0,0,0,0.1-0.1,0.1l0,0h-0.3v6.3H173.1z"/>
		<path class="st1" d="M180.1,151.5v1.2c0,0.1-0.1,0.1-0.2,0.1h-0.5c0,0-0.1,0-0.1-0.1l0,0v-0.3h-1.5v6.2h0.3c0.1,0,0.1,0.1,0.1,0.2
			v0.5c0,0.1,0,0.1-0.1,0.1h-1.7c-0.1,0-0.1-0.1-0.1-0.2v-0.5c0,0,0-0.1,0.1-0.1l0,0h0.3v-6.2h-1.4v0.3c0,0.1-0.1,0.1-0.2,0.1h-0.5
			c0,0-0.1,0-0.1-0.1v-1.2L180.1,151.5z"/>
		<path class="st1" d="M186.9,151.5c0.1,0,0.1,0.1,0.1,0.2v0.5c0,0,0,0.1-0.1,0.1l0,0h-0.3l-2.2,4.3v2h0.3c0.1,0,0.1,0.1,0.1,0.2
			v0.5c0,0,0,0.1-0.1,0.1c0,0,0,0,0,0H183c-0.1,0-0.1-0.1-0.1-0.2v-0.5c0,0,0-0.1,0.1-0.1l0,0h0.3v-2l-2.2-4.3h-0.3
			c-0.1,0-0.1-0.1-0.1-0.2v-0.5c0-0.1,0-0.1,0.1-0.1h1.7c0.1,0,0.1,0.1,0.1,0.2v0.5c0,0,0,0.1-0.1,0.1l0,0h-0.3l1.6,3.3l0,0l1.6-3.3
			h-0.3c-0.1,0-0.1-0.1-0.1-0.2v-0.5c0,0,0-0.1,0.1-0.1c0,0,0,0,0,0L186.9,151.5z"/>
		<path class="st1" d="M197.2,155.4c0,2.7-1.2,4-3.2,4s-3.2-1.3-3.2-4c0-1.9,0.7-4,3.2-4C196.1,151.4,197.2,153,197.2,155.4
			 M192,155.4c0,1.3,0.3,3,2,3c1.4,0,2-1.2,2-3c0-1.4-0.3-3-2-3S192,154.1,192,155.4"/>
	</g>
</g>
<g>
	<defs>
		<rect id="SVGID_00000076584216668031787370000005443342620029088948_" x="98.7" y="19" width="104.7" height="180"/>
	</defs>
	<clipPath id="SVGID_00000049194543633308701980000013258575952971086469_">
		<use xlink:href="#SVGID_00000076584216668031787370000005443342620029088948_"  style="overflow:visible;"/>
	</clipPath>
	<g style="clip-path:url(#SVGID_00000049194543633308701980000013258575952971086469_);">
		<path class="st1" d="M203.2,151.5v1.2c0,0.1-0.1,0.1-0.2,0.1h-0.5c0,0-0.1,0-0.1-0.1l0,0v-0.3h-2.5v2.4h2.8v0.9h-2.8v2.8h0.3
			c0.1,0,0.1,0.1,0.1,0.2v0.5c0,0.1,0,0.1-0.1,0.1h-1.8c-0.1,0-0.1-0.1-0.1-0.2v-0.5c0,0,0-0.1,0.1-0.1h0.3v-6.3h-0.3
			c-0.1,0-0.1-0.1-0.1-0.2v-0.5c0,0,0-0.1,0.1-0.1c0,0,0,0,0,0L203.2,151.5z"/>
		<path class="st1" d="M120.2,163c0.2,0,0.3,0.1,0.2,0.4l-0.1,1.1c0,0.1,0,0.1-0.2,0.2h-0.6l-3.8,14.9c-0.1,0.5-0.5,0.8-1,0.8
			l-1.7,0c-0.2,0-0.3-0.1-0.4-0.4l-3.1-13.1l0,0l-3,12.5c-0.1,0.6-0.6,1-1.2,1.1l-1.7-0.1c-0.2,0-0.3-0.1-0.4-0.4l-3.7-15.2h-0.7
			c-0.2,0-0.2-0.2-0.2-0.4l0.1-1.1c0-0.1,0-0.2,0.1-0.2c0,0,0,0,0,0h3.7c0.2,0,0.3,0.1,0.2,0.4l-0.1,1.1c0,0.1,0,0.1-0.2,0.2H102
			l2.9,13.1l0,0l3.2-13.7c0.2-0.8,0.6-1.1,1.1-1l1.3,0.1c0.2,0,0.3,0.1,0.4,0.4l3.2,14.3l0,0l3-13.1h-0.7c-0.2,0-0.2-0.2-0.2-0.4
			l0.1-1.1c0-0.1,0.1-0.2,0.1-0.2c0,0,0,0,0,0L120.2,163z"/>
	</g>
</g>
<g>
	<defs>
		<rect id="SVGID_00000043448593804459154570000012386016207433654681_" x="97.9" y="19" width="106.2" height="180"/>
	</defs>
	<clipPath id="SVGID_00000111183745859920156150000017978096054286882724_">
		<use xlink:href="#SVGID_00000043448593804459154570000012386016207433654681_"  style="overflow:visible;"/>
	</clipPath>
	<g style="clip-path:url(#SVGID_00000111183745859920156150000017978096054286882724_);">
		<path class="st1" d="M132.5,177.4c0.1,0,0.2,0,0.2,0.1c0,0,0,0,0,0v2.7h-10.8c-0.2,0-0.3-0.1-0.2-0.4l0.1-1.1c0-0.1,0-0.1,0.2-0.2
			h0.7v-14h-0.7c-0.2,0-0.2-0.2-0.2-0.4l0.1-1.1c0-0.1,0-0.2,0.1-0.2c0,0,0,0,0,0h10.5v2.7c0,0.2-0.1,0.3-0.4,0.2l-1.1-0.1
			c-0.1,0-0.2-0.1-0.2-0.2v-0.6h-5.6v5.3h6.3v2.1h-6.3v5.8h6v-0.7c0-0.1,0.1-0.2,0.4-0.2L132.5,177.4z"/>
		<path class="st1" d="M145.4,175.6c0,2.8-2.1,4.9-6,4.9c-1.7,0-3.4-0.3-5-1v-2.7c0-0.2,0.2-0.3,0.4-0.3l1.3,0.1
			c0.1,0,0.2,0.1,0.2,0.2c0,0,0,0,0,0v1.2c0.9,0.2,1.9,0.4,2.8,0.4c2,0,3.6-0.7,3.6-2.6s-0.8-2.4-4.2-3.6c-2.5-0.9-4.2-2.2-4.2-4.7
			c0-2.8,2.1-4.6,5.9-4.6c1.3,0,2.7,0.1,4,0.4v2.9c0,0.2-0.2,0.3-0.4,0.3l-1.3-0.1c-0.1,0-0.2-0.1-0.2-0.2V165
			c-0.6-0.1-1.2-0.1-1.8-0.1c-2.1,0-3.4,1-3.4,2.5s0.9,2.2,4,3.3S145.4,173.3,145.4,175.6"/>
		<path class="st1" d="M158.8,163v2.7c0,0.2-0.1,0.3-0.3,0.2l-1.1-0.1c-0.1,0-0.2-0.1-0.2-0.2l-0.1-0.6l0,0h-3.4v13.6h0.7
			c0.2,0,0.2,0.2,0.2,0.4l-0.1,1.1c0,0.1-0.1,0.2-0.2,0.2c0,0,0,0,0,0h-3.8c-0.2,0-0.3-0.1-0.2-0.4l0.1-1.1c0-0.1,0.1-0.2,0.2-0.2
			h0.7v-13.6H148v0.7c0,0.2-0.2,0.2-0.4,0.2l-1.1-0.1c-0.1,0-0.2,0-0.2-0.1c0,0,0,0,0,0V163H158.8z"/>
		<path class="st1" d="M171.3,177.4c0.1,0,0.2,0.1,0.2,0.2c0,0,0,0,0,0v2.7h-10.9c-0.2,0-0.3-0.1-0.2-0.4l0.1-1.1
			c0-0.1,0.1-0.2,0.2-0.2h0.7v-14h-0.7c-0.2,0-0.2-0.2-0.2-0.4l0.1-1.1c0-0.1,0.1-0.2,0.2-0.2c0,0,0,0,0,0h10.5v2.7
			c0,0.2-0.1,0.3-0.4,0.2l-1.1-0.1c-0.1,0-0.2-0.1-0.2-0.2v-0.6h-5.6v5.3h6.3v2.1h-6.3v5.8h6v-0.7c0-0.1,0.2-0.2,0.4-0.2
			L171.3,177.4z"/>
	</g>
</g>
<g>
	<defs>
		<rect id="SVGID_00000058567330914751436460000007001755170473171862_" x="98.7" y="19" width="104.7" height="180"/>
	</defs>
	<clipPath id="SVGID_00000087414653315545234370000011668577938803797642_">
		<use xlink:href="#SVGID_00000058567330914751436460000007001755170473171862_"  style="overflow:visible;"/>
	</clipPath>
	<g style="clip-path:url(#SVGID_00000087414653315545234370000011668577938803797642_);">
		<path class="st1" d="M185.9,178.7c0.2,0,0.2,0.2,0.2,0.4l-0.1,1.1c0,0.1,0,0.2-0.1,0.2c0,0,0,0,0,0h-2.5l-3.8-6.7H177v5h0.7
			c0.2,0,0.2,0.2,0.2,0.4l-0.1,1.1c0,0.1-0.1,0.2-0.1,0.2c0,0,0,0,0,0h-3.8c-0.2,0-0.3-0.1-0.2-0.4l0.1-1.1c0-0.1,0-0.1,0.2-0.2h0.6
			v-14h-0.7c-0.2,0-0.2-0.2-0.2-0.4l0.1-1.1c0-0.1,0.1-0.2,0.2-0.2c0,0,0,0,0,0h5.1c4.4,0,6.4,1.7,6.4,5.2c0.1,2.2-1.2,4.2-3.3,5
			l3.2,5.5L185.9,178.7z M179,171.7c2.4,0,3.8-1.1,3.8-3.5s-1.3-3.2-3.6-3.2H177v6.7H179z"/>
		<path class="st1" d="M203.1,163c0.2,0,0.3,0.1,0.2,0.4l-0.1,1.1c0,0.1,0,0.1-0.2,0.2h-0.6h-0.2v15.7h-1.7c-0.1,0-0.2,0-0.2-0.1
			l-9.1-12.8v11.2h0.2h0.7c0.2,0,0.2,0.2,0.2,0.4l-0.1,1.1c0,0.1-0.1,0.2-0.2,0.2c0,0,0,0,0,0h-3.8c-0.2,0-0.3-0.1-0.2-0.4l0.1-1.1
			c0-0.1,0.1-0.2,0.2-0.2h0.6v-14h-0.7c-0.1,0-0.2-0.2-0.2-0.4l0.1-1.1c0-0.1,0.1-0.2,0.2-0.2c0,0,0,0,0,0h2.5
			c0.1,0,0.2,0.1,0.3,0.2l9,12.5v-11h-0.7c-0.1,0-0.2-0.2-0.2-0.4l0.1-1.1c0-0.1,0.1-0.2,0.2-0.2c0,0,0,0,0,0L203.1,163z"/>
		<path class="st1" d="M112,197.4c0.1,0,0.2,0.1,0.2,0.3l-0.1,1c0,0.1-0.1,0.1-0.1,0.1c0,0,0,0,0,0h-3.4c-0.2,0-0.2-0.1-0.2-0.3l0-1
			c0-0.1,0.1-0.2,0.2-0.2h0.5l-0.7-2.1h-6.1l-0.7,2.1h0.6c0.1,0,0.2,0.1,0.2,0.3l-0.1,1c0,0.1-0.1,0.1-0.1,0.1c0,0,0,0,0,0h-3.2
			c-0.2,0-0.2-0.1-0.2-0.3l0.1-1c0-0.1,0.1-0.2,0.2-0.2h0.5l4.3-12h-0.6c-0.1,0-0.2-0.1-0.2-0.3l0.1-1c0-0.1,0.1-0.1,0.1-0.1
			c0,0,0,0,0,0h3l5.1,13.4L112,197.4z M107.8,193.4l-2.5-7.1l0,0l-2.3,7.1H107.8z"/>
	</g>
</g>
<g>
	<defs>
		<rect id="SVGID_00000160172057089370782120000007478863275414443948_" x="97.9" y="19" width="106.2" height="180"/>
	</defs>
	<clipPath id="SVGID_00000009568761885676939570000011241121067611480214_">
		<use xlink:href="#SVGID_00000160172057089370782120000007478863275414443948_"  style="overflow:visible;"/>
	</clipPath>
	<g style="clip-path:url(#SVGID_00000009568761885676939570000011241121067611480214_);">
		<path class="st1" d="M124.1,183.9c0.2,0,0.2,0.1,0.2,0.3l-0.1,1c0,0.1-0.1,0.2-0.2,0.2h-0.6l0,0v7.9c0,3.9-1.5,5.7-5.4,5.7
			c-3.7,0-5.3-1.2-5.3-5.7v-7.9h-0.6c-0.1,0-0.2-0.1-0.2-0.3l0.1-1c0-0.1,0.1-0.1,0.1-0.1c0,0,0,0,0,0h3.3c0.2,0,0.2,0.1,0.2,0.3
			l-0.1,1c0,0.1-0.1,0.2-0.2,0.2H115v8.3c0,2.4,0.7,3.7,3.1,3.7c2.7,0,3.3-1.6,3.3-3.7v-8.3h-0.6c-0.1,0-0.2-0.1-0.2-0.3l0.1-1
			c0-0.1,0.1-0.1,0.1-0.1c0,0,0,0,0,0L124.1,183.9z"/>
		<path class="st1" d="M135,194.7c0,2.4-1.8,4.2-5.1,4.2c-1.5,0-2.9-0.3-4.3-0.8v-2.3c0-0.2,0.1-0.3,0.4-0.2l1.2,0.1
			c0.1,0,0.2,0.1,0.2,0.2v1c0.8,0.2,1.6,0.3,2.4,0.3c1.7,0,3.1-0.6,3.1-2.2s-0.7-2.1-3.6-3.1c-2.1-0.8-3.6-1.9-3.6-4
			c0-2.4,1.8-4,5.1-4c1.1,0,2.3,0.1,3.4,0.4v2.5c0,0.2-0.1,0.3-0.4,0.2l-1.1-0.1c-0.1,0-0.2-0.1-0.2-0.2v-1c-0.5-0.1-1-0.1-1.5-0.1
			c-1.8,0-3,0.8-3,2.1s0.8,1.9,3.4,2.8C133.9,191.5,134.9,192.8,135,194.7"/>
		<path class="st1" d="M146.7,183.9v2.3c0,0.1-0.1,0.2-0.3,0.2l-1-0.1c-0.1,0-0.1-0.1-0.2-0.1v-0.6l0,0h-2.9v11.6h0.6
			c0.1,0,0.2,0.1,0.2,0.3l-0.1,1c0,0.1-0.1,0.1-0.1,0.1c0,0,0,0,0,0h-3.3c-0.2,0-0.2-0.1-0.2-0.3l0.1-1c0-0.1,0.1-0.2,0.2-0.2h0.6
			v-11.7h-2.7v0.6c0,0.1-0.1,0.2-0.3,0.2l-1-0.1c-0.1,0-0.1-0.1-0.1-0.1c0,0,0,0,0,0v-2.3H146.7z"/>
		<path class="st1" d="M158.6,197.4c0.1,0,0.2,0.1,0.2,0.3l-0.1,1c0,0.1-0.1,0.1-0.1,0.1c0,0,0,0,0,0h-2.2l-3.3-5.8H151v4.3h0.6
			c0.1,0,0.2,0.1,0.2,0.3l-0.1,1c0,0.1-0.1,0.1-0.1,0.1c0,0,0,0,0,0h-3.2c-0.1,0-0.2-0.1-0.2-0.3l0.1-1c0-0.1,0.1-0.2,0.1-0.2h0.6
			v-12h-0.6c-0.1,0-0.2-0.1-0.2-0.3l0.1-1c0-0.1,0.1-0.1,0.1-0.1c0,0,0,0,0,0h4.3c3.7,0,5.5,1.4,5.5,4.4c0.1,1.9-1.1,3.6-2.8,4.3
			l2.7,4.7L158.6,197.4z M152.7,191.4c2.1,0,3.3-0.9,3.3-3s-1.1-2.8-3.1-2.8H151v5.7L152.7,191.4z"/>
		<path class="st1" d="M172.9,197.4c0.1,0,0.2,0.1,0.2,0.3l-0.1,1c0,0.1-0.1,0.1-0.1,0.1c0,0,0,0,0,0h-3.4c-0.2,0-0.2-0.1-0.2-0.3
			l0.1-1c0-0.1,0.1-0.2,0.2-0.2h0.5l-0.8-2.1h-6.1l-0.7,2.1h0.6c0.1,0,0.2,0.1,0.2,0.3l-0.1,1c0,0.1-0.1,0.1-0.1,0.1c0,0,0,0,0,0
			h-3.2c-0.1,0-0.2-0.1-0.2-0.3l0.1-1c0-0.1,0.1-0.2,0.1-0.2h0.5l4.3-12h-0.6c-0.1,0-0.2-0.1-0.2-0.3l0.1-1c0-0.1,0.1-0.1,0.1-0.1
			c0,0,0,0,0,0h3l5.1,13.4L172.9,197.4z M168.7,193.4l-2.5-7.1l0,0l-2.3,7.1H168.7z"/>
		<path class="st1" d="M183.6,196.3c0.1,0,0.1,0.1,0.2,0.1c0,0,0,0,0,0v2.3h-9.3c-0.1,0-0.2-0.1-0.2-0.3l0.1-1
			c0-0.1,0.1-0.2,0.1-0.2h0.6v-11.9h-0.6c-0.1,0-0.2-0.1-0.2-0.3l0.1-1c0-0.1,0.1-0.1,0.1-0.1c0,0,0,0,0,0h3.3
			c0.2,0,0.2,0.1,0.2,0.3l-0.1,0.9c0,0.1-0.1,0.2-0.2,0.2h-0.6V197h5.1v-0.6c0-0.1,0.1-0.2,0.3-0.2L183.6,196.3z"/>
	</g>
</g>
<g>
	<defs>
		<rect id="SVGID_00000016063904004426127690000005411533685894687160_" x="98.7" y="19" width="104.7" height="180"/>
	</defs>
	<clipPath id="SVGID_00000043452606629101582330000009021973890798721673_">
		<use xlink:href="#SVGID_00000016063904004426127690000005411533685894687160_"  style="overflow:visible;"/>
	</clipPath>
	<g style="clip-path:url(#SVGID_00000043452606629101582330000009021973890798721673_);">
		<path class="st1" d="M188.5,197.4c0.1,0,0.2,0.1,0.2,0.3l-0.1,1c0,0.1-0.1,0.1-0.1,0.1c0,0,0,0,0,0h-3.3c-0.1,0-0.2-0.1-0.2-0.3
			l0.1-1c0-0.1,0.1-0.2,0.1-0.2h0.6v-12h-0.6c-0.1,0-0.2-0.1-0.2-0.3l0.1-1c0-0.1,0.1-0.1,0.1-0.1c0,0,0,0,0,0h3.3
			c0.1,0,0.2,0.1,0.2,0.3l-0.1,1c0,0.1-0.1,0.2-0.1,0.2h-0.6v12L188.5,197.4z"/>
		<path class="st1" d="M203.1,197.4c0.1,0,0.2,0.1,0.2,0.3l-0.1,1c0,0.1-0.1,0.1-0.1,0.1c0,0,0,0,0,0h-3.4c-0.2,0-0.2-0.1-0.2-0.3
			l0.1-1c0-0.1,0.1-0.2,0.2-0.2h0.5l-0.8-2.1h-6.1l-0.7,2.1h0.6c0.1,0,0.2,0.1,0.2,0.3l-0.1,1c0,0.1-0.1,0.1-0.1,0.1c0,0,0,0,0,0
			h-3.2c-0.1,0-0.2-0.1-0.2-0.3l0.1-1c0-0.1,0.1-0.2,0.1-0.2h0.5l4.3-12h-0.6c-0.1,0-0.2-0.1-0.2-0.3l0.1-1c0-0.1,0.1-0.1,0.1-0.1
			c0,0,0,0,0,0h3.1l5.1,13.4L203.1,197.4z M198.9,193.4l-2.5-7.1l0,0l-2.4,7.1H198.9z"/>
	</g>
</g>
<g>
	<defs>
		<rect id="SVGID_00000170971729123284295530000018252592772360423355_" x="97.9" y="19" width="106.2" height="180"/>
	</defs>
	<clipPath id="SVGID_00000074444086527415836890000000989479747443539385_">
		<use xlink:href="#SVGID_00000170971729123284295530000018252592772360423355_"  style="overflow:visible;"/>
	</clipPath>
	<g style="clip-path:url(#SVGID_00000074444086527415836890000000989479747443539385_);">
		<path class="st1" d="M191.7,100.4c-13.7,22.5-43,29.6-65.4,15.9c-6.5-4-11.9-9.4-15.9-15.9l-9.1,8.5
			c17.5,26.2,52.4,34.4,79.7,18.7c7.7-4.5,14.6-11.5,19.7-18.8L191.7,100.4z"/>
		<rect x="111.4" y="19" class="st8" width="79.3" height="3"/>
		<path class="st1" d="M190.6,50.7c-0.1,8.8,1.9,43.9-39.6,68.4c-41.6-24.5-39.5-59.6-39.6-68.4V22h79.2V50.7z"/>
		<path class="st8" d="M116.6,81.5c5,12.3,14.9,26.2,34.4,37.7c19.5-11.5,29.4-25.3,34.4-37.7L151,49.7L116.6,81.5z"/>
		<path class="st9" d="M144.6,29.9v15.3c-3.9-1.3-8.2-0.7-11.7,1.6V31.6C135.2,29.4,140.6,28.4,144.6,29.9"/>
		<path class="st9" d="M120.1,29.9v15.3c3.9-1.3,8.2-0.7,11.7,1.6V31.7C129.5,29.4,124,28.4,120.1,29.9"/>
		<path class="st10" d="M148.1,42L148.1,42c-0.6-0.1-1-0.1-1.3-0.1v-5c0.3,0,0.7,0,1.3,0.1h0.1c1.2,0,1.3-0.5,1.3-0.5
			c-0.2-0.5-0.7-0.9-1.3-0.9l0,0c-0.6-0.1-1-0.1-1.3-0.1v-4.2h-1v15.4c-5.8-1.2-10-0.6-13.5,1.9c-3.4-2.5-7.7-3.1-13.3-1.9V31.2h-1
			v4.2c-0.2,0-0.5,0-0.9,0.1v-0.2c0-0.1-0.1-0.2-0.2-0.2c0,0,0,0,0,0l-1.4,0.1c-0.1,0-0.2,0.1-0.2,0.2v1.8c0,0.1,0.1,0.2,0.2,0.2
			l1.4-0.1c0.1,0,0.2-0.1,0.2-0.2V37l0.9-0.1v5c-0.2,0-0.5,0-0.9,0.1v-0.2c0-0.1-0.1-0.2-0.2-0.2c0,0,0,0,0,0l-1.4,0.2
			c-0.1,0-0.2,0.1-0.2,0.2v1.8c0,0.1,0.1,0.2,0.2,0.2l1.4-0.1c0.1,0,0.2-0.1,0.2-0.2v-0.2l0.9-0.1v4.5l0.6-0.2
			c5.8-1.4,10-0.7,13.4,1.8l0.3,0.2l0.3-0.2c3.4-2.6,7.6-3.2,13.4-1.8l0.6,0.2v-4.5c0.3,0,0.7,0,1.3,0.1h0.1c1.2,0,1.3-0.5,1.3-0.5
			C149.2,42.4,148.7,42,148.1,42"/>
		<path class="st10" d="M118.8,120.4c-0.6,0.7-1.5,0.8-2.5,0.1c-0.4-0.3-0.8-0.7-1.1-1.2l0.5-0.7c0-0.1,0.1-0.1,0.2,0l0.3,0.3
			c0,0,0,0.1,0,0.1l-0.2,0.3c0.2,0.2,0.4,0.5,0.6,0.7c0.5,0.4,1.1,0.5,1.4,0.1s0.3-0.8-0.4-1.8c-0.4-0.7-0.6-1.4-0.2-2
			s1.4-0.8,2.4,0c0.3,0.3,0.6,0.6,0.9,0.9l-0.6,0.7c0,0-0.1,0-0.2,0l-0.3-0.3c0,0,0-0.1,0-0.1l0.2-0.3c-0.1-0.1-0.3-0.3-0.4-0.4
			c-0.5-0.4-1.1-0.4-1.4,0s-0.2,0.7,0.4,1.6S119.2,119.9,118.8,120.4"/>
		<path class="st10" d="M124.3,124.6C124.3,124.6,124.3,124.6,124.3,124.6C124.3,124.7,124.3,124.7,124.3,124.6l-0.4,0.8l-3-1.8
			c0,0,0-0.1,0-0.1l0.2-0.3c0,0,0.1,0,0.1,0l0.2,0.1l2.3-3.9l-0.2-0.1c0,0,0-0.1,0-0.1l0.2-0.3c0,0,0,0,0.1,0c0,0,0,0,0,0l2.9,1.7
			l-0.4,0.8c0,0-0.1,0-0.1,0l-0.3-0.2c0,0,0-0.1,0-0.1l0.1-0.2l-1.6-0.9l-0.9,1.5l1.8,1l-0.3,0.6l-1.8-1l-1,1.6l1.7,1l0.1-0.2
			c0,0,0.1,0,0.1,0L124.3,124.6z"/>
		<path class="st10" d="M130.6,127.5C130.6,127.5,130.6,127.6,130.6,127.5l-0.4,0.9l-3.2-1.4c-0.1,0-0.1-0.1,0-0.1l0.2-0.3
			c0,0,0,0,0.1,0l0.2,0.1l1.8-4.1l-0.2-0.1c0,0,0-0.1,0-0.1l0.2-0.3c0,0,0.1,0,0.1,0l3.1,1.3L132,124c0,0-0.1,0.1-0.1,0l-0.3-0.2
			c0,0,0-0.1,0-0.1l0.1-0.2l-1.6-0.6l-0.7,1.6l1.9,0.8l-0.3,0.6l-1.9-0.8l-0.8,1.7l1.8,0.8l0.1-0.2c0-0.1,0.1-0.1,0.1,0L130.6,127.5
			z"/>
		<path class="st10" d="M139.1,125.3c0,0,0.1,0.1,0,0.1l-0.1,0.3c0,0,0,0-0.1,0h-0.2l-2.2,1.3l1,3l0.2,0.1c0.1,0,0.1,0.1,0,0.1
			l-0.1,0.3c0,0-0.1,0-0.1,0l-0.7-0.2l-1-2.9l-0.6,0.4l-0.4,1.4l0.2,0.1c0,0,0.1,0.1,0,0.1l-0.1,0.3c0,0,0,0-0.1,0l-1.2-0.3
			c0,0-0.1-0.1,0-0.1l0.1-0.3c0,0,0.1,0,0.1,0h0.2l1.2-4.3l-0.2-0.1c0,0,0-0.1,0-0.1l0.1-0.3c0,0,0.1,0,0.1,0l1.2,0.3
			c0,0,0,0.1,0,0.1c0,0,0,0,0,0l-0.1,0.3c0,0,0,0-0.1,0h-0.2l-0.5,2l2.4-1.4l-0.2-0.1c0,0,0-0.1,0-0.1l0.1-0.3c0,0,0.1,0,0.1,0
			L139.1,125.3z"/>
		<path class="st10" d="M151.8,126.8c0.1,0,0.1,0,0.1,0.1v0.4c0,0,0,0-0.1,0.1h-0.2l-1.5,4.7c0,0.2-0.2,0.3-0.4,0.2h-0.6
			c-0.1,0-0.1-0.1-0.1-0.1l-0.8-4.3l0,0l-1.2,4c0,0.2-0.2,0.3-0.4,0.3h-0.5c-0.1,0-0.1,0-0.1-0.1l-1-5.1h-0.2c0,0-0.1-0.1-0.1-0.1
			v-0.4c0,0,0-0.1,0.1-0.1l1.2,0.1c0.1,0,0.1,0,0.1,0.1v0.4c0,0,0,0-0.1,0h-0.2l0.7,4.2l0,0l1.3-4.3c0.1-0.2,0.2-0.3,0.4-0.3h0.4
			c0.1,0,0.1,0,0.1,0.1l0.8,4.6l0,0l1.2-4.1h-0.2c0,0-0.1,0-0.1-0.1v-0.4c0,0,0,0,0.1,0L151.8,126.8z"/>
		<path class="st10" d="M156.3,131.5C156.3,131.5,156.4,131.5,156.3,131.5l0.1,0.5c0,0,0,0,0,0.1l-1.2,0.1c0,0-0.1,0-0.1-0.1v-0.4
			c0,0,0,0,0-0.1h0.2l-0.4-4.5h-0.2c0,0-0.1,0-0.1-0.1v-0.4c0,0,0-0.1,0.1-0.1l1.2-0.1c0.1,0,0.1,0,0.1,0.1v0.4c0,0,0,0,0,0.1h-0.2
			l0.4,4.5L156.3,131.5z"/>
		<path class="st10" d="M163.1,129.4c0.2,0.9-0.4,1.7-1.6,1.9c-0.5,0.1-1.1,0.1-1.6,0l-0.2-0.9c0-0.1,0-0.1,0.1-0.1l0.4-0.1
			c0,0,0.1,0,0.1,0l0.1,0.4c0.3,0,0.6,0,0.9,0c0.6-0.1,1.1-0.4,1-1s-0.4-0.7-1.6-0.9c-0.8-0.1-1.5-0.4-1.6-1.2
			c-0.1-0.8,0.4-1.6,1.6-1.8c0.4-0.1,0.9-0.1,1.3-0.1l0.2,0.9c0,0.1,0,0.1-0.1,0.1h-0.4c0,0-0.1,0-0.1,0l-0.1-0.4l-0.6,0.1
			c-0.7,0.1-1,0.5-0.9,1s0.4,0.6,1.5,0.8S163,128.8,163.1,129.4"/>
		<path class="st10" d="M166.7,124.2c2.1-0.7,3,0.1,3.5,1.7c0.7,2-0.1,3-1.9,3.6l-1.5,0.5c0,0-0.1,0-0.1-0.1l-0.1-0.4 M166.7,129.5
			l0.2-0.1l-1.4-4.3l-0.2,0.1c0,0-0.1,0-0.1-0.1l-0.1-0.3c0,0,0-0.1,0-0.1L166.7,129.5z M168.4,128.9c1.5-0.5,1.5-1.6,1.1-2.7
			s-1-1.9-2.5-1.4l-0.6,0.2l1.4,4.1L168.4,128.9z"/>
		<path class="st10" d="M177,122.8c0.9,1.7,0.5,2.9-0.7,3.5c-1.3,0.6-2.4,0.2-3.3-1.5c-0.6-1.2-0.8-2.8,0.8-3.6
			C175.1,120.6,176.2,121.3,177,122.8 M173.7,124.4c0.4,0.8,1.2,1.8,2.2,1.3c0.9-0.4,0.9-1.4,0.3-2.6c-0.4-0.9-1.2-1.8-2.2-1.3
			C173,122.4,173.3,123.6,173.7,124.4"/>
		<path class="st10" d="M185.7,119.8c0,0,0.1,0,0.1,0l0.2,0.3c0,0,0,0,0,0.1c0,0,0,0,0,0l-1,0.7c0,0-0.1,0-0.1,0l-0.2-0.3
			c0,0,0-0.1,0-0.1l0.1-0.1l-2.1-2.8l0.8,3.5c0,0.1,0,0.2-0.1,0.3l-0.2,0.2c-0.1,0-0.1,0-0.2,0l-3.1-1.9l1.9,2.8l0.2-0.1
			c0.1,0,0.1,0,0.1,0l0.2,0.3c0,0,0,0,0,0.1c0,0,0,0,0,0l-1,0.7c-0.1,0-0.1,0-0.1,0l-0.2-0.3c0,0,0,0,0-0.1l0.2-0.1l-2.5-3.8
			l-0.2,0.1c0,0-0.1,0-0.1-0.1l-0.2-0.3c0,0,0-0.1,0-0.1c0,0,0,0,0,0l0.7-0.5c0,0,0.1,0,0.1,0l3.7,2.2l-0.9-4.1c0,0,0-0.1,0-0.2
			l0.7-0.5c0.1,0,0.1,0,0.1,0.1l0.2,0.3 M182.8,116.2l-0.2,0.1l2.7,3.6L182.8,116.2z"/>
		<path class="st1" d="M103.5,104.7l5.8-5.4l1.3-1.2l0.7,1.2c1.3,2.1,2.7,4.1,4.2,5.9l2-1.8c-2.7-3.2-4.9-6.9-6.5-10.8
			c-0.6-1.5-1.1-3-1.6-4.5l-3.2,8.1l-6.7,0.9v0.1L103.5,104.7z"/>
		<path class="st9" d="M182,29.9v15.3c-3.9-1.3-8.2-0.7-11.7,1.6V31.6C172.6,29.4,178.1,28.4,182,29.9"/>
		<path class="st9" d="M157.5,29.9v15.3c3.9-1.3,8.2-0.7,11.7,1.6V31.7C166.9,29.4,161.5,28.4,157.5,29.9"/>
		<path class="st10" d="M185.5,42L185.5,42c-0.6-0.1-1-0.1-1.3-0.1v-5c0.3,0,0.7,0,1.3,0.1h0.1c1.2,0,1.3-0.5,1.3-0.5
			c-0.2-0.5-0.7-0.9-1.3-0.9l0,0c-0.6-0.1-1-0.1-1.3-0.1v-4.2h-1v15.4c-5.7-1.2-9.9-0.6-13.3,1.9c-3.4-2.5-7.7-3.1-13.4-1.9V31.2h-1
			v4.2c-0.2,0-0.5,0-0.9,0.1v-0.2c0-0.1-0.1-0.2-0.2-0.2c0,0,0,0,0,0l-1.4,0.1c-0.1,0-0.2,0.1-0.2,0.2v1.8c0,0.1,0.1,0.2,0.2,0.2
			l1.4-0.1c0.1,0,0.2-0.1,0.2-0.2V37l0.9-0.1v5c-0.2,0-0.5,0-0.9,0.1v-0.2c0-0.1-0.1-0.2-0.2-0.2c0,0,0,0,0,0l-1.4,0.2
			c-0.1,0-0.2,0.1-0.2,0.2v1.8c0,0.1,0.1,0.2,0.2,0.2l1.4-0.1c0.1,0,0.2-0.1,0.2-0.2v-0.2l0.9-0.1v4.5l0.6-0.2
			c5.8-1.4,10.1-0.8,13.4,1.8l0.3,0.2l0.3-0.2c3.4-2.6,7.6-3.2,13.4-1.8l0.6,0.2v-4.5c0.3,0,0.7,0,1.3,0.1h0.1
			c1.2,0,1.3-0.5,1.3-0.5c-0.2-0.5-0.7-0.9-1.3-0.9"/>
		<path class="st1" d="M198.5,104.7l-5.8-5.4l-1.3-1.2l-0.7,1.2c-1.3,2.1-2.7,4.1-4.2,5.9l-2-1.8c2.7-3.2,4.9-6.9,6.5-10.8
			c0.6-1.5,1.1-3,1.5-4.5l3.2,8.1l6.7,0.9v0.1L198.5,104.7z"/>
		<path class="st10" d="M153,93.7c1.7,1,3.6,1.6,5.6,1.7h0.2c0.5,0,0.9-0.2,1.4-0.4c0.3-0.2,0.6-0.4,0.8-0.8c0.2-0.3,0.4-0.6,0.4-1
			c-0.1,0.1-0.3,0.1-0.4,0.1h-0.2c-1.8,0.2-3.7,0-5.4-0.6c-0.5,0.5-1.3,0.7-2,0.5C153.2,93.4,153.1,93.6,153,93.7"/>
		<path class="st10" d="M156.4,80.9c-0.1,0.2-0.1,0.3-0.2,0.4c-0.3,0.5-0.8,1-1.3,1.3c0,0.2,0,0.3,0,0.5c1-0.4,2-1,3-1.5
			c3.8-2,6.4-4.3,7.3-5.9c0-0.1,0.1-0.1,0.1-0.2c0.3-0.5,0.4-1,0.4-1.6c0-0.8-0.3-1.6-1-2.2c-1,2.2-2.4,4.1-4.2,5.8
			C159.2,78.8,157.8,79.9,156.4,80.9"/>
		<path class="st10" d="M155.9,90.4c-0.4,0.4-1,0.7-1.6,0.8c-0.1,0-0.3,0-0.4,0c0,0.1-0.1,0.3-0.1,0.4c3.4,1,6.2,1.2,7.7,0.7
			l0.2-0.1c0.5-0.1,0.9-0.4,1.3-0.7c0.3-0.3,0.5-0.6,0.6-1c0.1-0.2,0.1-0.5,0.1-0.8c-0.3,0.1-0.6,0.2-0.9,0.3
			C161.4,90.5,159.2,90.6,155.9,90.4"/>
		<path class="st10" d="M165.4,81.6c-1.2,1.4-4.5,2.9-8.8,3.9c-0.3,0.5-0.8,0.9-1.4,1.1c-0.2,0.1-0.4,0.1-0.6,0.2c0,0.2,0,0.3,0,0.4
			h1c4.3-0.2,7.6-1.2,9.1-2.2l0.1-0.1c0.4-0.3,0.8-0.8,1.1-1.2c0.2-0.4,0.3-0.8,0.3-1.3c0-0.4-0.1-0.9-0.3-1.2
			c-0.1,0.1-0.2,0.3-0.3,0.4L165.4,81.6"/>
		<path class="st10" d="M158,96.5c-2-0.2-3.8-0.8-5.6-1.8c-0.1,0.2-0.2,0.3-0.3,0.5c1.5,0.8,3,1.4,4.6,1.8l-0.2,0.2
			c-0.3,0.3-0.6,0.4-1,0.6c-0.5,0.1-0.9,0.2-1.4,0.1H154c-1-0.3-2-0.7-2.9-1.3c-0.1,0.1-0.3,0.3-0.4,0.4c0.9,0.7,2,1.2,3.1,1.5
			c-0.2,0.2-0.5,0.3-0.8,0.4c-0.4,0.1-0.8,0.1-1.2,0h-0.1c-0.8-0.2-1.5-0.6-2.2-1.1c-0.2,0.1-0.3,0.2-0.5,0.2
			c-0.4,0.1-0.8,0.2-1.3,0.2c-1.2,0-2.3-0.6-3.2-1.4c0,0-0.3,0.2-0.3,0.3c0.9,1,2.1,1.6,3.4,1.6c0.6,0,1.2-0.1,1.7-0.4
			c0.8,0.6,1.6,0.9,2.6,1.1h0.1c0.4,0.1,0.9,0.1,1.3-0.1c0.3-0.1,0.6-0.3,0.9-0.5c0.1-0.1,0.2-0.2,0.3-0.3c0.5,0.1,0.9,0,1.4-0.1
			c0.4-0.1,0.7-0.3,1-0.6c0.2-0.2,0.4-0.4,0.6-0.7c0.4,0,0.8,0,1.2-0.1c0.3,0,0.5-0.2,0.8-0.3c0.2-0.1,0.3-0.3,0.4-0.5
			c-0.5,0.1-1,0.2-1.6,0.2L158,96.5"/>
		<path class="st10" d="M160.2,81.4c-1,0.6-2.1,1.2-3.3,1.7c-0.1,0.2-0.3,0.4-0.5,0.6c-0.4,0.5-1,0.8-1.6,1c0,0.2,0,0.3,0,0.4
			c0.6-0.1,1.3-0.3,1.9-0.5c4.1-1.1,7.2-2.7,8.4-4.1l0.1-0.1c0.4-0.4,0.6-0.9,0.7-1.5c0.2-0.8,0.1-1.6-0.4-2.2
			C164.1,78.7,162.2,80.2,160.2,81.4"/>
		<path class="st10" d="M165.1,85.6l-0.2,0.1c-1.4,1-4.4,1.9-8.3,2.2l0,0c-0.3,0.3-0.6,0.6-1,0.7c-0.4,0.2-0.8,0.3-1.2,0.3
			c0,0.2-0.1,0.2-0.1,0.4h0.1c4.3,0.5,7.7,0.2,9.3-0.6l0.2-0.1c0.5-0.3,0.9-0.6,1.3-1.1c0.3-0.4,0.4-0.8,0.5-1.2
			c0.1-0.4,0.1-0.8-0.1-1.2C165.4,85.3,165.2,85.5,165.1,85.6"/>
		<path class="st10" d="M156.5,77.5c0,0.6-0.2,1.1-0.5,1.6c-0.3,0.5-0.7,1-1.3,1.3c0,0.2,0,0.3,0,0.5c1.8-1,3.5-2.3,5.1-3.8
			c1.7-1.6,3.1-3.5,4.1-5.7c0.2-0.5,0.3-1.1,0.3-1.7c0-1.1-0.6-2.2-1.6-2.7c0,0.3,0,0.5,0,0.8c-0.2,1.8-1.8,4.9-4.6,8.1
			C157.4,76.4,157,76.9,156.5,77.5"/>
		<path class="st10" d="M157.1,75.5c2.8-3.3,4.4-6.4,4.5-8.2c0.2-0.9-0.1-1.9-0.8-2.5c0,1.6-2.2,5.5-5.7,9.9
			c0.3,0.8,0.2,1.8-0.3,2.5c-0.2,0.3-0.4,0.5-0.6,0.7c0,0.2,0.1,0.4,0.1,0.6C155.4,77.5,156.3,76.5,157.1,75.5"/>
		<path d="M135.4,77.3l-0.3-0.1c0,0.4,0,0.8,0,1.2c0,1-0.1,1.9-0.4,2.9c-0.1,0.2,0,0.4,0.2,0.5c0.1,0,0.1,0,0.2,0l0,0
			c0.4-0.9,0.8-1.7,1.3-2.5c0.1-0.2,0.2-0.3,0.3-0.5C136.6,78.2,136.1,77.6,135.4,77.3"/>
		<path d="M167.4,82.2c0-0.6-0.2-1.2-0.6-1.8c0.4-0.6,0.6-1.4,0.6-2.2c0-0.9-0.3-1.7-0.9-2.4c0.3-0.6,0.5-1.3,0.5-2
			c0-1.3-0.6-2.5-1.7-3.2c0-0.3,0-0.5,0-0.8c-0.1-2-0.9-3.3-2.4-3.9c-0.3-1.4-1.1-2.6-2.2-3.5c-1.1,4.6-4.5,9-5.7,10.7
			c-2,2.8-2.4,5.4-3.5,8.6c-1.3,3.8-2.2,7.8-5.6,10.2c0-0.4,0-0.8,0.1-1.2c0.6-5.1,4.7-13.5,3.2-18.4c-0.1-0.3-0.2-0.6-0.3-0.9
			c-1.5-3.3-4.8-3.9-8.3-2.3c-2.2,1-4.4,1.8-5.4,4.1c-0.4,0.9-0.5,1.8-0.5,2.7c0,0.2,0.1,0.3,0.3,0.4c0.2,0.1,0.5-0.1,0.6-0.3
			c0.1-0.2,0.2-0.4,0.2-0.7l0,0c0-0.1,0-0.1,0-0.2c0.1-0.3,0.4-0.4,0.6-0.3c0.2,0.1,0.4,0.4,0.3,0.6c0,0,0,0,0,0c0,0,0,0.1-0.1,0.1
			l-0.2,0.3c-0.1,0.2-0.2,0.4-0.2,0.7c0,0.3,0.1,0.6,0.4,0.7h0.1c1.1,0.3,2.3-0.1,2.8-1.1c0.3-0.4,0.5-0.8,0.7-1.3
			c0.3-0.7,0.3-1.5,0.9-2.2c0.9-1.1,3.7-1.8,4.9-0.4c2.3,2.8-0.3,6.5-1.9,8.9c-2,3-4.9,6.5-6.3,9.9c-3.7,8.9,2.6,17.6,12.8,17.6
			c6.5,0,10.6-2.8,12.9-6.2c-2.6-0.2-5-1.3-6.8-3.2c0.6-0.1,1.1-0.5,1.5-1l0.8-0.1c1,0,1.9-0.7,2.2-1.7c0.2-0.4,0.3-0.9,0.3-1.4
			c0.4-0.2,0.8-0.6,0.9-1.1c0.2-0.4,0.3-0.7,0.3-1.1c1.1-0.4,1.9-1.3,2.2-2.3c0.2-0.5,0.3-1,0.2-1.4c1.2-0.8,2-2.1,2-3.6
			c0-0.4-0.1-0.9-0.3-1.2C167.2,83.9,167.5,83.1,167.4,82.2 M165.6,86.4c-0.1,0.4-0.3,0.8-0.5,1.2c-0.3,0.4-0.8,0.8-1.3,1.1
			l-0.2,0.1c-1.6,0.8-5.1,1.2-9.3,0.6h-0.1c0-0.2,0.1-0.2,0.1-0.4c0.4,0,0.8-0.1,1.2-0.3c0.4-0.2,0.7-0.4,1-0.7l0,0
			c3.9-0.3,7-1.2,8.3-2.2l0.2-0.1c0.1-0.1,0.3-0.2,0.4-0.4C165.7,85.6,165.8,86,165.6,86.4 M163.6,90.5c-0.1,0.4-0.3,0.7-0.6,1
			c-0.4,0.3-0.8,0.6-1.3,0.7l-0.2,0.1c-1.4,0.5-4.3,0.3-7.7-0.7c0-0.1,0.1-0.3,0.1-0.4c0.1,0,0.3,0,0.4,0c0.6-0.1,1.2-0.3,1.6-0.8
			c3.3,0.2,5.6,0.2,6.9-0.3c0.3-0.1,0.6-0.2,0.9-0.3C163.7,90.1,163.7,90.3,163.6,90.5 M158.8,97.2c-0.4,0.1-0.8,0.1-1.2,0.1
			c-0.2,0.3-0.4,0.5-0.6,0.7c-0.3,0.3-0.6,0.5-1,0.6c-0.4,0.1-0.9,0.2-1.4,0.1c-0.1,0.1-0.2,0.2-0.3,0.3c-0.2,0.2-0.5,0.4-0.9,0.5
			c-0.4,0.1-0.8,0.1-1.3,0.1H152c-0.9-0.2-1.8-0.6-2.5-1.2c-1.8,0.8-4,0.3-5.2-1.3c0,0,0.2-0.3,0.3-0.3c0.8,0.9,2,1.4,3.2,1.4
			c0.4,0,0.8,0,1.3-0.2c0.2-0.1,0.4-0.2,0.6-0.2c0.7,0.5,1.4,0.9,2.2,1.1h0.1c0.4,0.1,0.8,0.1,1.2,0c0.3-0.1,0.5-0.2,0.8-0.4
			c-1.1-0.3-2.2-0.8-3.1-1.5c0.1-0.1,0.3-0.2,0.4-0.4c0.9,0.6,1.9,1,2.9,1.3h0.2c0.5,0.1,0.9,0.1,1.4-0.1c0.4-0.1,0.7-0.3,1-0.6
			l0.2-0.2c-1.6-0.4-3.1-1-4.6-1.8c0.1-0.2,0.2-0.3,0.3-0.5c1.7,1,3.6,1.6,5.5,1.8h0.2c0.5,0,1.1-0.1,1.6-0.2
			c-0.1,0.2-0.2,0.4-0.4,0.5C159.2,97,159,97.1,158.8,97.2 M158.7,95.4h-0.2c-2-0.1-3.9-0.7-5.6-1.7c0.1-0.2,0.1-0.3,0.2-0.4
			c0.7,0.2,1.5,0,2-0.5c1.7,0.6,3.6,0.8,5.4,0.6h0.2c0.2,0,0.3-0.1,0.4-0.1c0,0.4-0.2,0.7-0.4,1c-0.2,0.3-0.5,0.6-0.8,0.8
			C159.6,95.2,159.2,95.4,158.7,95.4 M161.6,67.3c-0.2,1.8-1.8,4.9-4.5,8.2c-0.9,1-1.8,2-2.7,3c0-0.2-0.1-0.4-0.1-0.6
			c0.2-0.2,0.4-0.4,0.6-0.7c0.5-0.7,0.6-1.7,0.3-2.5c3.5-4.4,5.6-8.3,5.7-9.9C161.6,65.4,161.9,66.4,161.6,67.3 M162.5,67.1
			c1,0.5,1.6,1.6,1.6,2.7c0,0.6,0,1.2-0.3,1.7c-1,2.1-2.4,4-4.1,5.7c-1.5,1.5-3.2,2.8-5,3.8c0-0.2,0-0.3,0-0.5
			c0.6-0.3,1-0.8,1.3-1.3c0.3-0.5,0.5-1.1,0.5-1.6c0.5-0.5,0.9-1,1.4-1.6c2.8-3.3,4.4-6.3,4.6-8.1C162.5,67.5,162.5,67.3,162.5,67.1
			 M166,79c-0.1,0.5-0.4,1-0.8,1.4l-0.1,0.1c-1.2,1.4-4.3,3-8.4,4.1c-0.6,0.2-1.3,0.3-1.9,0.5c0-0.2,0-0.3,0-0.4
			c0.6-0.2,1.2-0.5,1.6-1c0.2-0.2,0.3-0.4,0.4-0.6c1.1-0.5,2.2-1,3.3-1.7c2.1-1.2,3.9-2.7,5.4-4.6C166.1,77.4,166.2,78.2,166,79
			 M165.2,75.5l-0.1,0.2c-0.8,1.6-3.5,3.8-7.3,5.9c-1,0.5-2,1.1-3,1.5c0-0.2,0-0.3,0-0.5c0.6-0.3,1-0.7,1.3-1.3
			c0.1-0.1,0.1-0.3,0.2-0.4c1.5-0.9,2.9-2,4.2-3.3c1.7-1.6,3.2-3.6,4.2-5.8c0.7,0.5,1,1.3,1,2.2C165.7,74.5,165.6,75,165.2,75.5
			 M164.9,84.8l-0.2,0.1c-1.4,1.1-4.8,2-9.1,2.2h-1c0-0.2,0-0.3,0-0.4c0.2,0,0.4-0.1,0.6-0.2c0.6-0.2,1.1-0.6,1.4-1.1
			c4.3-1,7.5-2.6,8.8-3.9l0.1-0.2c0.1-0.1,0.2-0.3,0.3-0.4c0.2,0.4,0.3,0.8,0.3,1.2c0,0.4-0.1,0.9-0.3,1.3
			C165.7,84,165.3,84.4,164.9,84.8"/>
		<path class="st1" d="M161.7,37h-2.2v-3.5h2.2c0,0.1,0,0.2,0,0.3c0,0.1,0,0.2,0,0.3h-1.4v0.8h1.2c0,0.1,0,0.2,0,0.3
			c0,0.1,0,0.2,0,0.3h-1.2v0.9h1.5c0,0.1,0,0.2,0,0.3C161.7,36.8,161.7,36.9,161.7,37"/>
		<path class="st1" d="M164.9,37c-0.1,0-0.3,0-0.4,0c-0.1,0-0.3,0-0.4,0l-0.7-1.3H163V37c-0.1,0-0.3,0-0.4,0c-0.1,0-0.2,0-0.4,0
			v-3.5h1c0.9,0,1.4,0.3,1.4,1.1c0,0.4-0.3,0.8-0.6,1L164.9,37z M163.4,34h-0.3v1.1h0.3c0.4,0,0.6-0.2,0.6-0.5S163.8,34,163.4,34"/>
		<path class="st1" d="M167.5,37h-2.2v-3.5h2.2c0,0.1,0,0.2,0,0.3c0,0.1,0,0.2,0,0.3h-1.4v0.8h1.2c0,0.1,0,0.2,0,0.3
			c0,0.1,0,0.2,0,0.3h-1.2v0.9h1.5c0,0.1,0,0.2,0,0.3C167.5,36.8,167.5,36.9,167.5,37"/>
		<path class="st1" d="M160.6,40.7h-0.4v1.3c-0.1,0-0.3,0-0.4,0c-0.1,0-0.2,0-0.4,0v-3.6h1.1c0.8,0,1.4,0.3,1.4,1.1
			S161.4,40.7,160.6,40.7 M160.6,39h-0.3v1h0.3c0.4,0,0.6-0.1,0.6-0.5S161,38.9,160.6,39"/>
		<path class="st1" d="M164.6,41.9h-2.2v-3.6h2.2c0,0.1,0,0.2,0,0.3c0,0.1,0,0.2,0,0.3h-1.4v0.8h1.2c0,0.1,0,0.2,0,0.3
			c0,0.1,0,0.2,0,0.3h-1.2v0.9h1.5c0,0.1,0,0.2,0,0.3C164.7,41.7,164.7,41.8,164.6,41.9"/>
		<path class="st1" d="M167.8,41.9c-0.1,0-0.3,0-0.4,0c-0.1,0-0.3,0-0.4,0l-0.7-1.3h-0.3v1.3c-0.1,0-0.3,0-0.4,0c-0.1,0-0.2,0-0.4,0
			v-3.6c0.2,0,0.8,0,1,0c0.9,0,1.3,0.3,1.3,1.1c0,0.4-0.3,0.8-0.6,1L167.8,41.9z M166.3,38.9h-0.3V40h0.3c0.4,0,0.6-0.2,0.6-0.5
			S166.6,38.9,166.3,38.9"/>
		<path class="st1" d="M176.3,37c-0.1,0-0.3,0-0.4,0c-0.1,0-0.2,0-0.4,0l-0.3-0.7H174l-0.2,0.7c-0.1,0-0.3,0-0.4,0
			c-0.1,0-0.2,0-0.4,0l1.2-3.6h0.4h0.4L176.3,37z M175.1,35.7l-0.3-1c0-0.1-0.1-0.3-0.1-0.4l0,0c0,0.1-0.1,0.3-0.1,0.4l-0.3,1H175.1
			z"/>
		<path class="st1" d="M179.3,37c-0.1,0-0.3,0-0.4,0c-0.1,0-0.3,0-0.4,0l-0.7-1.3h-0.3V37c-0.1,0-0.3,0-0.4,0h-0.4v-3.5h1.1
			c0.9,0,1.3,0.3,1.3,1.1c0,0.4-0.3,0.8-0.6,1L179.3,37z M177.8,34h-0.3v1.1h0.3c0.4,0,0.6-0.2,0.6-0.5S178.1,34,177.8,34"/>
		<path class="st1" d="M174.7,39h-0.9v2.9c-0.1,0-0.2,0-0.4,0c-0.1,0-0.3,0-0.4,0V39h-1c0-0.1,0-0.2,0-0.3c0-0.1,0-0.2,0-0.3h2.6
			C174.7,38.6,174.7,38.8,174.7,39"/>
		<path class="st1" d="M177.4,41.9h-2.2v-3.6h2.2c0,0.1,0,0.2,0,0.3c0,0.1,0,0.2,0,0.3h-1.4v0.8h1.2c0,0.1,0,0.2,0,0.3
			c0,0.1,0,0.2,0,0.3h-1.2v0.9h1.5c0,0.1,0,0.2,0,0.3C177.4,41.7,177.4,41.8,177.4,41.9"/>
		<path class="st1" d="M179,42c-0.4,0-0.8-0.1-1.1-0.2c0-0.1,0-0.2,0-0.3c0-0.1,0-0.3,0-0.4c0.3,0.1,0.7,0.2,1,0.2
			c0.4,0,0.6-0.2,0.6-0.4s-0.2-0.4-0.7-0.5c-0.5-0.2-1-0.4-1-1.1c0-0.6,0.6-1,1.3-1c0.3,0,0.6,0,0.9,0.1c0,0.1,0,0.2,0,0.3
			c0,0.1,0,0.2,0,0.3c-0.3-0.1-0.5-0.1-0.8-0.1c-0.4,0-0.6,0.1-0.6,0.3s0.2,0.4,0.7,0.5s1,0.5,1,1.1C180.2,41.5,179.7,42,179,42
			C179,42,179,42,179,42"/>
		<path class="st1" d="M123.6,35.5c0.1,0.2,0.2,0.4,0.2,0.7l0,0c0-0.2,0.1-0.5,0.2-0.7l0.4-1.1c0.1-0.3,0.2-0.6,0.2-0.9h0.4h0.4
			c0,0.4-0.1,0.7-0.2,1.1l-1,2.5c-0.1,0-0.2,0-0.3,0c-0.1,0-0.2,0-0.3,0l-0.9-2.5c-0.1-0.3-0.2-0.7-0.2-1.1h0.4h0.4
			c0,0.3,0.1,0.6,0.2,0.9L123.6,35.5z"/>
		<path class="st1" d="M126.5,37c-0.1,0-0.3,0-0.4,0c-0.1,0-0.3,0-0.4,0v-3.5h0.4h0.4V37z"/>
		<path class="st1" d="M129.6,34.1h-1V37c-0.1,0-0.2,0-0.4,0c-0.1,0-0.3,0-0.4,0v-2.9H127c0-0.1,0-0.2,0-0.3c0-0.1,0-0.2,0-0.3h2.6
			c0,0.1,0,0.2,0,0.3C129.7,33.9,129.7,34,129.6,34.1"/>
		<path class="st1" d="M125.3,41.9c-0.1,0-0.3,0-0.4,0c-0.1,0-0.2,0-0.4,0l-0.3-0.7H123l-0.2,0.7c-0.1,0-0.3,0-0.4,0
			c-0.1,0-0.3,0-0.4,0l1.2-3.6c0.1,0,0.2,0,0.4,0c0.1,0,0.2,0,0.4,0L125.3,41.9z M124.1,40.6l-0.3-1c0-0.1-0.1-0.3-0.1-0.4l0,0
			c0,0.1-0.1,0.3-0.1,0.4l-0.3,1H124.1z"/>
		<path class="st1" d="M129.4,41.9c-0.1,0-0.2,0.1-0.4,0.1c-0.1,0-0.2,0-0.4,0l-0.1-2.1l-0.8,1.8c-0.1,0-0.2,0-0.3,0
			c-0.1,0-0.2,0-0.3,0l-0.8-1.8l-0.1,2.1c-0.1,0-0.3,0-0.4,0c-0.1,0-0.2,0-0.3,0l0.2-3.6c0.1,0,0.2,0,0.3,0c0.1,0,0.2,0,0.3,0l1,2.4
			l1-2.4h0.3c0.1,0,0.2,0,0.3,0L129.4,41.9z"/>
		<path class="st1" d="M137.1,37h-2.2v-3.5h2.2c0,0.1,0,0.2,0,0.3c0,0.1,0,0.2,0,0.3h-1.4v0.8h1.2c0,0.1,0,0.2,0,0.3
			c0,0.1,0,0.2,0,0.3h-1.2v0.9h1.5c0,0.1,0,0.2,0,0.3C137.1,36.8,137.1,36.9,137.1,37"/>
		<path class="st1" d="M137.9,36l0.7-0.9l-0.6-0.9c-0.2-0.2-0.3-0.5-0.4-0.8h0.4h0.4c0,0.2,0.1,0.4,0.3,0.6l0.4,0.5l0.4-0.5
			c0.1-0.2,0.2-0.4,0.3-0.6h0.4h0.4c0,0.3-0.2,0.6-0.4,0.9l-0.6,0.8l0.7,1c0.2,0.3,0.3,0.6,0.4,1c-0.1,0-0.3,0-0.4,0
			c-0.1,0-0.2,0-0.4,0c0-0.2-0.1-0.5-0.2-0.6l-0.5-0.8l-0.5,0.7c-0.1,0.2-0.2,0.4-0.2,0.7c-0.1,0-0.3,0-0.4,0c-0.1,0-0.2,0-0.4,0
			C137.5,36.7,137.7,36.3,137.9,36"/>
		<path class="st1" d="M143.1,34.2c-0.3-0.1-0.5-0.1-0.8-0.1c-0.6,0-1,0.4-1,1.2c0,0.8,0.3,1.2,1,1.2c0.3,0,0.5,0,0.8-0.1
			c0,0.1,0.1,0.2,0.1,0.4c0,0.1,0,0.2,0,0.2c-0.3,0.1-0.6,0.2-0.9,0.2c-0.9,0.1-1.6-0.6-1.7-1.4c0-0.1,0-0.2,0-0.4
			c-0.1-0.9,0.6-1.8,1.5-1.9c0.1,0,0.2,0,0.3,0c0.3,0,0.6,0.1,0.9,0.2c0,0.1,0,0.2,0,0.2C143.2,33.9,143.2,34.1,143.1,34.2"/>
		<path class="st1" d="M136,42c-1,0-1.5-0.7-1.5-1.8s0.5-1.8,1.5-1.8s1.5,0.7,1.5,1.8C137.5,41.3,137,42,136,42 M136,39
			c-0.4,0-0.7,0.3-0.7,1.2c0,0.8,0.3,1.2,0.7,1.2s0.7-0.3,0.7-1.2C136.7,39.3,136.5,39,136,39"/>
		<path class="st1" d="M140.1,41.9h-2.2v-3.6c0.1,0,0.2,0,0.4,0c0.1,0,0.3,0,0.4,0v2.9h1.4c0,0.1,0,0.2,0,0.3
			C140.1,41.7,140.1,41.8,140.1,41.9"/>
		<path class="st1" d="M143.1,40.6c0,0.9-0.3,1.4-1.4,1.4s-1.3-0.5-1.3-1.4v-2.2c0.1,0,0.2,0,0.4,0c0.1,0,0.3,0,0.4,0v2.3
			c0,0.5,0.1,0.8,0.6,0.8c0.5,0,0.6-0.3,0.6-0.8v-2.3c0.1,0,0.3,0,0.4,0c0.1,0,0.2,0,0.4,0V40.6z"/>
	</g>
</g>
<rect x="51" y="9" class="st11" width="200" height="200"/>
</svg>
